solid Exported from Blender-3.4.1
facet normal -1.000000 0.000000 0.000000
outer loop
vertex -0.285800 0.675000 -0.945000
vertex -0.285800 0.675000 0.945000
vertex -0.285800 0.720000 0.945000
endloop
endfacet
facet normal -1.000000 0.000000 0.000000
outer loop
vertex -0.285800 0.675000 -0.945000
vertex -0.285800 0.720000 0.945000
vertex -0.285800 0.720000 -0.945000
endloop
endfacet
facet normal 0.000000 1.000000 0.000000
outer loop
vertex -0.285800 0.720000 -0.945000
vertex -0.285800 0.720000 0.945000
vertex -0.056000 0.720000 0.945000
endloop
endfacet
facet normal 0.000000 1.000000 0.000000
outer loop
vertex -0.285800 0.720000 -0.945000
vertex -0.056000 0.720000 0.945000
vertex -0.056000 0.720000 -0.945000
endloop
endfacet
facet normal 1.000000 0.000000 0.000000
outer loop
vertex -0.056000 0.720000 -0.945000
vertex -0.056000 0.720000 0.945000
vertex -0.056000 0.675000 0.945000
endloop
endfacet
facet normal 1.000000 0.000000 0.000000
outer loop
vertex -0.056000 0.720000 -0.945000
vertex -0.056000 0.675000 0.945000
vertex -0.056000 0.675000 -0.945000
endloop
endfacet
facet normal 0.000000 -1.000000 0.000000
outer loop
vertex -0.056000 0.675000 -0.945000
vertex -0.056000 0.675000 0.945000
vertex -0.285800 0.675000 0.945000
endloop
endfacet
facet normal 0.000000 -1.000000 0.000000
outer loop
vertex -0.056000 0.675000 -0.945000
vertex -0.285800 0.675000 0.945000
vertex -0.285800 0.675000 -0.945000
endloop
endfacet
facet normal 0.000000 0.000000 -1.000000
outer loop
vertex -0.285800 0.720000 -0.945000
vertex -0.056000 0.720000 -0.945000
vertex -0.056000 0.675000 -0.945000
endloop
endfacet
facet normal 0.000000 0.000000 -1.000000
outer loop
vertex -0.285800 0.720000 -0.945000
vertex -0.056000 0.675000 -0.945000
vertex -0.285800 0.675000 -0.945000
endloop
endfacet
facet normal 0.000000 0.000000 1.000000
outer loop
vertex -0.056000 0.720000 0.945000
vertex -0.285800 0.720000 0.945000
vertex -0.285800 0.675000 0.945000
endloop
endfacet
facet normal 0.000000 0.000000 1.000000
outer loop
vertex -0.056000 0.720000 0.945000
vertex -0.285800 0.675000 0.945000
vertex -0.056000 0.675000 0.945000
endloop
endfacet
facet normal -1.000000 0.000000 0.000000
outer loop
vertex -0.285650 -0.720000 -0.945000
vertex -0.285650 -0.720000 0.945000
vertex -0.285650 -0.675000 0.945000
endloop
endfacet
facet normal -1.000000 0.000000 0.000000
outer loop
vertex -0.285650 -0.720000 -0.945000
vertex -0.285650 -0.675000 0.945000
vertex -0.285650 -0.675000 -0.945000
endloop
endfacet
facet normal 0.000000 1.000000 0.000000
outer loop
vertex -0.285650 -0.675000 -0.945000
vertex -0.285650 -0.675000 0.945000
vertex -0.056150 -0.675000 0.945000
endloop
endfacet
facet normal 0.000000 1.000000 0.000000
outer loop
vertex -0.285650 -0.675000 -0.945000
vertex -0.056150 -0.675000 0.945000
vertex -0.056150 -0.675000 -0.945000
endloop
endfacet
facet normal 1.000000 0.000000 0.000000
outer loop
vertex -0.056150 -0.675000 -0.945000
vertex -0.056150 -0.675000 0.945000
vertex -0.056150 -0.720000 0.945000
endloop
endfacet
facet normal 1.000000 0.000000 0.000000
outer loop
vertex -0.056150 -0.675000 -0.945000
vertex -0.056150 -0.720000 0.945000
vertex -0.056150 -0.720000 -0.945000
endloop
endfacet
facet normal 0.000000 -1.000000 0.000000
outer loop
vertex -0.056150 -0.720000 -0.945000
vertex -0.056150 -0.720000 0.945000
vertex -0.285650 -0.720000 0.945000
endloop
endfacet
facet normal 0.000000 -1.000000 0.000000
outer loop
vertex -0.056150 -0.720000 -0.945000
vertex -0.285650 -0.720000 0.945000
vertex -0.285650 -0.720000 -0.945000
endloop
endfacet
facet normal 0.000000 0.000000 -1.000000
outer loop
vertex -0.285650 -0.675000 -0.945000
vertex -0.056150 -0.675000 -0.945000
vertex -0.056150 -0.720000 -0.945000
endloop
endfacet
facet normal 0.000000 0.000000 -1.000000
outer loop
vertex -0.285650 -0.675000 -0.945000
vertex -0.056150 -0.720000 -0.945000
vertex -0.285650 -0.720000 -0.945000
endloop
endfacet
facet normal 0.000000 0.000000 1.000000
outer loop
vertex -0.056150 -0.675000 0.945000
vertex -0.285650 -0.675000 0.945000
vertex -0.285650 -0.720000 0.945000
endloop
endfacet
facet normal 0.000000 0.000000 1.000000
outer loop
vertex -0.056150 -0.675000 0.945000
vertex -0.285650 -0.720000 0.945000
vertex -0.056150 -0.720000 0.945000
endloop
endfacet
facet normal -1.000000 0.000000 0.000000
outer loop
vertex -0.291800 -0.720000 0.853200
vertex -0.291800 -0.720000 0.949200
vertex -0.291800 0.720000 0.949200
endloop
endfacet
facet normal -1.000000 0.000000 0.000000
outer loop
vertex -0.291800 -0.720000 0.853200
vertex -0.291800 0.720000 0.949200
vertex -0.291800 0.720000 0.853200
endloop
endfacet
facet normal 0.000000 1.000000 0.000000
outer loop
vertex -0.291800 0.720000 0.853200
vertex -0.291800 0.720000 0.949200
vertex -0.054800 0.720000 0.949200
endloop
endfacet
facet normal 0.000000 1.000000 0.000000
outer loop
vertex -0.291800 0.720000 0.853200
vertex -0.054800 0.720000 0.949200
vertex -0.054800 0.720000 0.853200
endloop
endfacet
facet normal 1.000000 0.000000 0.000000
outer loop
vertex -0.054800 0.720000 0.853200
vertex -0.054800 0.720000 0.949200
vertex -0.054800 -0.720000 0.949200
endloop
endfacet
facet normal 1.000000 0.000000 0.000000
outer loop
vertex -0.054800 0.720000 0.853200
vertex -0.054800 -0.720000 0.949200
vertex -0.054800 -0.720000 0.853200
endloop
endfacet
facet normal 0.000000 -1.000000 0.000000
outer loop
vertex -0.054800 -0.720000 0.853200
vertex -0.054800 -0.720000 0.949200
vertex -0.291800 -0.720000 0.949200
endloop
endfacet
facet normal 0.000000 -1.000000 0.000000
outer loop
vertex -0.054800 -0.720000 0.853200
vertex -0.291800 -0.720000 0.949200
vertex -0.291800 -0.720000 0.853200
endloop
endfacet
facet normal 0.000000 0.000000 -1.000000
outer loop
vertex -0.291800 0.720000 0.853200
vertex -0.054800 0.720000 0.853200
vertex -0.054800 -0.720000 0.853200
endloop
endfacet
facet normal 0.000000 0.000000 -1.000000
outer loop
vertex -0.291800 0.720000 0.853200
vertex -0.054800 -0.720000 0.853200
vertex -0.291800 -0.720000 0.853200
endloop
endfacet
facet normal 0.000000 0.000000 1.000000
outer loop
vertex -0.054800 0.720000 0.949200
vertex -0.291800 0.720000 0.949200
vertex -0.291800 -0.720000 0.949200
endloop
endfacet
facet normal 0.000000 0.000000 1.000000
outer loop
vertex -0.054800 0.720000 0.949200
vertex -0.291800 -0.720000 0.949200
vertex -0.054800 -0.720000 0.949200
endloop
endfacet
endsolid Exported from Blender-3.4.1
