solid Exported from Blender-3.4.1
facet normal -0.002392 -0.001068 -0.999997
outer loop
vertex -0.017549 -0.041153 -0.048882
vertex -0.035753 -0.027552 -0.048853
vertex -0.044490 -0.007998 -0.048853
endloop
endfacet
facet normal -0.001018 0.000047 -1.000000
outer loop
vertex -0.044490 -0.007998 -0.048853
vertex -0.043488 0.013840 -0.048853
vertex -0.017549 -0.041153 -0.048882
endloop
endfacet
facet normal -0.000541 0.000272 -1.000000
outer loop
vertex -0.017549 -0.041153 -0.048882
vertex -0.043488 0.013840 -0.048853
vertex -0.032511 0.031996 -0.048854
endloop
endfacet
facet normal -0.855752 0.517382 -0.002222
outer loop
vertex -0.032511 0.031996 -0.048854
vertex -0.043488 0.013840 -0.048853
vertex -0.031995 0.033020 -0.009155
endloop
endfacet
facet normal 0.516313 0.856393 0.003300
outer loop
vertex 0.032288 0.032717 -0.048853
vertex 0.015003 0.043138 -0.048853
vertex 0.018734 0.040729 -0.007434
endloop
endfacet
facet normal 0.000051 0.000324 -1.000000
outer loop
vertex 0.015003 0.043138 -0.048853
vertex -0.017549 -0.041153 -0.048882
vertex -0.002159 0.045848 -0.048853
endloop
endfacet
facet normal 0.000168 0.000279 -1.000000
outer loop
vertex -0.017549 -0.041153 -0.048882
vertex 0.015003 0.043138 -0.048853
vertex 0.032288 0.032717 -0.048853
endloop
endfacet
facet normal 0.000321 0.000176 -1.000000
outer loop
vertex 0.032288 0.032717 -0.048853
vertex 0.044249 0.010959 -0.048853
vertex -0.017549 -0.041153 -0.048882
endloop
endfacet
facet normal -0.010074 0.005977 0.999931
outer loop
vertex -0.029772 0.010183 -0.000300
vertex -0.004978 0.016841 -0.000090
vertex -0.023130 0.021712 -0.000302
endloop
endfacet
facet normal -0.146941 0.988982 0.017956
outer loop
vertex -0.014618 0.043275 -0.009094
vertex 0.002535 0.045822 -0.009008
vertex -0.002159 0.045848 -0.048853
endloop
endfacet
facet normal 0.155950 0.987606 -0.017727
outer loop
vertex 0.002535 0.045822 -0.009008
vertex 0.015003 0.043138 -0.048853
vertex -0.002159 0.045848 -0.048853
endloop
endfacet
facet normal 0.297262 0.954364 0.028730
outer loop
vertex 0.015003 0.043138 -0.048853
vertex 0.002535 0.045822 -0.009008
vertex 0.018734 0.040729 -0.007434
endloop
endfacet
facet normal -0.569970 0.821550 -0.013783
outer loop
vertex -0.032511 0.031996 -0.048854
vertex -0.031995 0.033020 -0.009155
vertex -0.018407 0.041781 -0.048853
endloop
endfacet
facet normal -0.508219 0.861078 0.016077
outer loop
vertex -0.014618 0.043275 -0.009094
vertex -0.018407 0.041781 -0.048853
vertex -0.031995 0.033020 -0.009155
endloop
endfacet
facet normal -0.242795 0.969986 -0.013310
outer loop
vertex -0.018407 0.041781 -0.048853
vertex -0.014618 0.043275 -0.009094
vertex -0.002159 0.045848 -0.048853
endloop
endfacet
facet normal -0.000087 0.000349 -1.000000
outer loop
vertex -0.017549 -0.041153 -0.048882
vertex -0.018407 0.041781 -0.048853
vertex -0.002159 0.045848 -0.048853
endloop
endfacet
facet normal -0.000171 0.000348 -1.000000
outer loop
vertex -0.032511 0.031996 -0.048854
vertex -0.018407 0.041781 -0.048853
vertex -0.017549 -0.041153 -0.048882
endloop
endfacet
facet normal -0.434305 0.732809 0.523803
outer loop
vertex -0.014618 0.043275 -0.009094
vertex -0.031995 0.033020 -0.009155
vertex -0.026490 0.034457 -0.006601
endloop
endfacet
facet normal -0.190911 0.496440 0.846818
outer loop
vertex -0.014618 0.043275 -0.009094
vertex -0.026490 0.034457 -0.006601
vertex -0.012708 0.029188 -0.000405
endloop
endfacet
facet normal -0.258350 0.372437 0.891373
outer loop
vertex -0.012708 0.029188 -0.000405
vertex -0.026490 0.034457 -0.006601
vertex -0.023130 0.021712 -0.000302
endloop
endfacet
facet normal 0.999430 0.031193 0.012887
outer loop
vertex 0.044249 0.010959 -0.048853
vertex 0.043665 0.013261 -0.009133
vertex 0.044347 -0.008666 -0.008951
endloop
endfacet
facet normal 0.876217 0.481682 -0.015033
outer loop
vertex 0.032288 0.032717 -0.048853
vertex 0.043665 0.013261 -0.009133
vertex 0.044249 0.010959 -0.048853
endloop
endfacet
facet normal 0.175674 -0.100424 0.979313
outer loop
vertex 0.030441 -0.006368 -0.000203
vertex 0.020843 -0.022290 -0.000114
vertex 0.026043 -0.016987 -0.000503
endloop
endfacet
facet normal 0.005447 0.002306 0.999982
outer loop
vertex 0.030441 -0.006368 -0.000203
vertex 0.000058 0.017260 -0.000092
vertex 0.020843 -0.022290 -0.000114
endloop
endfacet
facet normal 0.000474 -0.000006 -1.000000
outer loop
vertex 0.044249 0.010959 -0.048853
vertex 0.043961 -0.010402 -0.048853
vertex -0.017549 -0.041153 -0.048882
endloop
endfacet
facet normal 0.915166 -0.402983 0.008679
outer loop
vertex 0.038385 -0.023065 -0.048853
vertex 0.043961 -0.010402 -0.048853
vertex 0.044347 -0.008666 -0.008951
endloop
endfacet
facet normal 0.999868 -0.013481 -0.009086
outer loop
vertex 0.043961 -0.010402 -0.048853
vertex 0.044249 0.010959 -0.048853
vertex 0.044347 -0.008666 -0.008951
endloop
endfacet
facet normal -0.189142 0.496796 0.847006
outer loop
vertex -0.012708 0.029188 -0.000405
vertex -0.002747 0.043522 -0.006588
vertex -0.014618 0.043275 -0.009094
endloop
endfacet
facet normal -0.127809 0.843105 0.522340
outer loop
vertex -0.002747 0.043522 -0.006588
vertex 0.002535 0.045822 -0.009008
vertex -0.014618 0.043275 -0.009094
endloop
endfacet
facet normal 0.108389 0.591644 0.798880
outer loop
vertex 0.002535 0.045822 -0.009008
vertex -0.002747 0.043522 -0.006588
vertex 0.018734 0.040729 -0.007434
endloop
endfacet
facet normal 0.905141 -0.424729 0.018025
outer loop
vertex 0.035089 -0.028397 -0.008981
vertex 0.038385 -0.023065 -0.048853
vertex 0.044347 -0.008666 -0.008951
endloop
endfacet
facet normal 0.743783 -0.667842 -0.027825
outer loop
vertex 0.035089 -0.028397 -0.008981
vertex 0.026222 -0.036611 -0.048855
vertex 0.038385 -0.023065 -0.048853
endloop
endfacet
facet normal 0.613383 -0.789351 0.026204
outer loop
vertex 0.026222 -0.036611 -0.048855
vertex 0.035089 -0.028397 -0.008981
vertex 0.020932 -0.039403 -0.009131
endloop
endfacet
facet normal 0.430105 0.048668 0.901466
outer loop
vertex 0.031831 0.003927 -0.001422
vertex 0.030441 -0.006368 -0.000203
vertex 0.042474 0.005817 -0.006602
endloop
endfacet
facet normal 0.866073 0.031079 0.498951
outer loop
vertex 0.043665 0.013261 -0.009133
vertex 0.042474 0.005817 -0.006602
vertex 0.044347 -0.008666 -0.008951
endloop
endfacet
facet normal 0.502086 0.205306 0.840095
outer loop
vertex 0.033341 0.028054 -0.006578
vertex 0.042474 0.005817 -0.006602
vertex 0.043665 0.013261 -0.009133
endloop
endfacet
facet normal 0.293279 0.396725 0.869826
outer loop
vertex 0.033341 0.028054 -0.006578
vertex 0.018734 0.040729 -0.007434
vertex 0.015211 0.027920 -0.000404
endloop
endfacet
facet normal -0.144621 -0.515366 0.844679
outer loop
vertex -0.005558 -0.030107 -0.000219
vertex -0.024915 -0.035063 -0.006557
vertex -0.000366 -0.041965 -0.006565
endloop
endfacet
facet normal -0.157857 -0.556319 0.815837
outer loop
vertex -0.018924 -0.040460 -0.009078
vertex -0.006021 -0.044155 -0.009101
vertex -0.024915 -0.035063 -0.006557
endloop
endfacet
facet normal -0.154569 -0.550720 0.820254
outer loop
vertex -0.024915 -0.035063 -0.006557
vertex -0.006021 -0.044155 -0.009101
vertex -0.000366 -0.041965 -0.006565
endloop
endfacet
facet normal 0.375122 -0.363226 0.852848
outer loop
vertex 0.022065 -0.036203 -0.006577
vertex 0.035089 -0.028397 -0.008981
vertex 0.020843 -0.022290 -0.000114
endloop
endfacet
facet normal 0.493347 -0.642582 0.586257
outer loop
vertex 0.035089 -0.028397 -0.008981
vertex 0.022065 -0.036203 -0.006577
vertex 0.020932 -0.039403 -0.009131
endloop
endfacet
facet normal 0.390756 -0.319850 0.863137
outer loop
vertex 0.026043 -0.016987 -0.000503
vertex 0.020843 -0.022290 -0.000114
vertex 0.039407 -0.017092 -0.006592
endloop
endfacet
facet normal 0.392200 -0.331160 0.858203
outer loop
vertex 0.035089 -0.028397 -0.008981
vertex 0.039407 -0.017092 -0.006592
vertex 0.020843 -0.022290 -0.000114
endloop
endfacet
facet normal 0.847055 -0.397983 0.352288
outer loop
vertex 0.044347 -0.008666 -0.008951
vertex 0.039407 -0.017092 -0.006592
vertex 0.035089 -0.028397 -0.008981
endloop
endfacet
facet normal 0.405549 -0.193204 0.893422
outer loop
vertex 0.026043 -0.016987 -0.000503
vertex 0.039407 -0.017092 -0.006592
vertex 0.030441 -0.006368 -0.000203
endloop
endfacet
facet normal 0.524352 -0.069829 0.848634
outer loop
vertex 0.042474 0.005817 -0.006602
vertex 0.039407 -0.017092 -0.006592
vertex 0.044347 -0.008666 -0.008951
endloop
endfacet
facet normal 0.522391 -0.069566 0.849864
outer loop
vertex 0.042474 0.005817 -0.006602
vertex 0.030441 -0.006368 -0.000203
vertex 0.039407 -0.017092 -0.006592
endloop
endfacet
facet normal 0.861446 0.507846 0.002014
outer loop
vertex 0.032802 0.031687 -0.008979
vertex 0.043665 0.013261 -0.009133
vertex 0.032288 0.032717 -0.048853
endloop
endfacet
facet normal 0.750442 0.438286 0.494714
outer loop
vertex 0.043665 0.013261 -0.009133
vertex 0.032802 0.031687 -0.008979
vertex 0.033341 0.028054 -0.006578
endloop
endfacet
facet normal 0.541770 0.840398 0.014725
outer loop
vertex 0.018734 0.040729 -0.007434
vertex 0.032802 0.031687 -0.008979
vertex 0.032288 0.032717 -0.048853
endloop
endfacet
facet normal 0.427645 0.541701 0.723657
outer loop
vertex 0.033341 0.028054 -0.006578
vertex 0.032802 0.031687 -0.008979
vertex 0.018734 0.040729 -0.007434
endloop
endfacet
facet normal 0.332975 0.066415 0.940594
outer loop
vertex 0.031831 0.003927 -0.001422
vertex 0.026410 0.017991 -0.000496
vertex 0.030441 -0.006368 -0.000203
endloop
endfacet
facet normal 0.301855 0.332185 0.893609
outer loop
vertex 0.015211 0.027920 -0.000404
vertex 0.026410 0.017991 -0.000496
vertex 0.033341 0.028054 -0.006578
endloop
endfacet
facet normal 0.420501 0.102729 0.901457
outer loop
vertex 0.042474 0.005817 -0.006602
vertex 0.026410 0.017991 -0.000496
vertex 0.031831 0.003927 -0.001422
endloop
endfacet
facet normal 0.473272 0.193451 0.859412
outer loop
vertex 0.026410 0.017991 -0.000496
vertex 0.042474 0.005817 -0.006602
vertex 0.033341 0.028054 -0.006578
endloop
endfacet
facet normal 0.000890 -0.000088 1.000000
outer loop
vertex 0.000058 0.017260 -0.000092
vertex 0.001215 -0.027605 -0.000097
vertex 0.020843 -0.022290 -0.000114
endloop
endfacet
facet normal 0.000405 -0.000101 1.000000
outer loop
vertex -0.004978 0.016841 -0.000090
vertex 0.001215 -0.027605 -0.000097
vertex 0.000058 0.017260 -0.000092
endloop
endfacet
facet normal -0.001449 -0.000359 0.999999
outer loop
vertex -0.003764 -0.015884 -0.000100
vertex 0.001215 -0.027605 -0.000097
vertex -0.004978 0.016841 -0.000090
endloop
endfacet
facet normal 0.217933 -0.395358 0.892299
outer loop
vertex 0.020843 -0.022290 -0.000114
vertex 0.008139 -0.029918 -0.000391
vertex 0.022065 -0.036203 -0.006577
endloop
endfacet
facet normal 0.164273 -0.482701 0.860241
outer loop
vertex 0.022065 -0.036203 -0.006577
vertex 0.008139 -0.029918 -0.000391
vertex 0.006310 -0.041620 -0.006608
endloop
endfacet
facet normal 0.019439 -0.068596 0.997455
outer loop
vertex 0.001215 -0.027605 -0.000097
vertex 0.008139 -0.029918 -0.000391
vertex 0.020843 -0.022290 -0.000114
endloop
endfacet
facet normal 0.013692 -0.085644 0.996232
outer loop
vertex -0.005558 -0.030107 -0.000219
vertex 0.008139 -0.029918 -0.000391
vertex 0.001215 -0.027605 -0.000097
endloop
endfacet
facet normal 0.030097 -0.472625 0.880749
outer loop
vertex 0.006310 -0.041620 -0.006608
vertex 0.008139 -0.029918 -0.000391
vertex -0.000366 -0.041965 -0.006565
endloop
endfacet
facet normal 0.017537 -0.465794 0.884719
outer loop
vertex -0.000366 -0.041965 -0.006565
vertex 0.008139 -0.029918 -0.000391
vertex -0.005558 -0.030107 -0.000219
endloop
endfacet
facet normal -0.201559 -0.381450 0.902147
outer loop
vertex -0.024915 -0.035063 -0.006557
vertex -0.014938 -0.027618 -0.001180
vertex -0.021594 -0.021918 -0.000257
endloop
endfacet
facet normal -0.191488 -0.370762 0.908773
outer loop
vertex -0.021594 -0.021918 -0.000257
vertex -0.014938 -0.027618 -0.001180
vertex -0.005558 -0.030107 -0.000219
endloop
endfacet
facet normal -0.195359 -0.388553 0.900478
outer loop
vertex -0.005558 -0.030107 -0.000219
vertex -0.014938 -0.027618 -0.001180
vertex -0.024915 -0.035063 -0.006557
endloop
endfacet
facet normal -0.998858 0.045831 -0.013504
outer loop
vertex -0.043488 0.013840 -0.048853
vertex -0.044490 -0.007998 -0.048853
vertex -0.044128 0.011583 -0.009174
endloop
endfacet
facet normal -0.870197 0.492505 0.013979
outer loop
vertex -0.043488 0.013840 -0.048853
vertex -0.044128 0.011583 -0.009174
vertex -0.031995 0.033020 -0.009155
endloop
endfacet
facet normal -0.000533 0.011166 0.999937
outer loop
vertex 0.000058 0.017260 -0.000092
vertex 0.002119 0.031955 -0.000255
vertex -0.004978 0.016841 -0.000090
endloop
endfacet
facet normal -0.092588 0.447927 0.889263
outer loop
vertex 0.002119 0.031955 -0.000255
vertex -0.002747 0.043522 -0.006588
vertex -0.012708 0.029188 -0.000405
endloop
endfacet
facet normal 0.099943 0.509853 0.854437
outer loop
vertex -0.002747 0.043522 -0.006588
vertex 0.002119 0.031955 -0.000255
vertex 0.018734 0.040729 -0.007434
endloop
endfacet
facet normal 0.147057 0.444513 0.883619
outer loop
vertex 0.015211 0.027920 -0.000404
vertex 0.018734 0.040729 -0.007434
vertex 0.002119 0.031955 -0.000255
endloop
endfacet
facet normal -0.007769 0.014564 0.999864
outer loop
vertex -0.023130 0.021712 -0.000302
vertex -0.004978 0.016841 -0.000090
vertex 0.002119 0.031955 -0.000255
endloop
endfacet
facet normal -0.017135 0.037654 0.999144
outer loop
vertex -0.023130 0.021712 -0.000302
vertex 0.002119 0.031955 -0.000255
vertex -0.012708 0.029188 -0.000405
endloop
endfacet
facet normal 0.068761 0.023375 0.997359
outer loop
vertex 0.026410 0.017991 -0.000496
vertex 0.022156 0.020606 -0.000264
vertex 0.030441 -0.006368 -0.000203
endloop
endfacet
facet normal 0.007110 0.004445 0.999965
outer loop
vertex 0.000058 0.017260 -0.000092
vertex 0.030441 -0.006368 -0.000203
vertex 0.022156 0.020606 -0.000264
endloop
endfacet
facet normal 0.155103 0.165918 0.973866
outer loop
vertex 0.026410 0.017991 -0.000496
vertex 0.015211 0.027920 -0.000404
vertex 0.022156 0.020606 -0.000264
endloop
endfacet
facet normal 0.006236 0.010217 0.999928
outer loop
vertex 0.002119 0.031955 -0.000255
vertex 0.000058 0.017260 -0.000092
vertex 0.022156 0.020606 -0.000264
endloop
endfacet
facet normal -0.011115 -0.001492 0.999937
outer loop
vertex -0.021594 -0.021918 -0.000257
vertex -0.014550 -0.019439 -0.000175
vertex -0.029772 0.010183 -0.000300
endloop
endfacet
facet normal -0.008438 -0.000116 0.999964
outer loop
vertex -0.029772 0.010183 -0.000300
vertex -0.014550 -0.019439 -0.000175
vertex -0.004978 0.016841 -0.000090
endloop
endfacet
facet normal -0.006770 -0.000557 0.999977
outer loop
vertex -0.003764 -0.015884 -0.000100
vertex -0.004978 0.016841 -0.000090
vertex -0.014550 -0.019439 -0.000175
endloop
endfacet
facet normal 0.328655 -0.925909 0.186223
outer loop
vertex 0.007990 -0.043994 -0.009117
vertex 0.000582 -0.051545 -0.033587
vertex 0.020932 -0.039403 -0.009131
endloop
endfacet
facet normal 0.233382 -0.655714 0.718034
outer loop
vertex 0.022065 -0.036203 -0.006577
vertex 0.007990 -0.043994 -0.009117
vertex 0.020932 -0.039403 -0.009131
endloop
endfacet
facet normal 0.216125 -0.632842 0.743506
outer loop
vertex 0.022065 -0.036203 -0.006577
vertex 0.006310 -0.041620 -0.006608
vertex 0.007990 -0.043994 -0.009117
endloop
endfacet
facet normal 0.530967 -0.847319 0.011154
outer loop
vertex 0.020932 -0.039403 -0.009131
vertex 0.003559 -0.050662 -0.037414
vertex 0.026222 -0.036611 -0.048855
endloop
endfacet
facet normal 0.409176 -0.905888 0.109280
outer loop
vertex 0.000582 -0.051545 -0.033587
vertex 0.003559 -0.050662 -0.037414
vertex 0.020932 -0.039403 -0.009131
endloop
endfacet
facet normal -0.267798 -0.936564 0.226123
outer loop
vertex -0.006021 -0.044155 -0.009101
vertex -0.018924 -0.040460 -0.009078
vertex -0.002396 -0.051185 -0.033925
endloop
endfacet
facet normal -0.144126 -0.957434 0.250093
outer loop
vertex 0.000582 -0.051545 -0.033587
vertex -0.006021 -0.044155 -0.009101
vertex -0.002396 -0.051185 -0.033925
endloop
endfacet
facet normal -0.548993 -0.835815 -0.004413
outer loop
vertex -0.017549 -0.041153 -0.048882
vertex -0.002396 -0.051185 -0.033925
vertex -0.018924 -0.040460 -0.009078
endloop
endfacet
facet normal -0.411471 -0.307287 0.858060
outer loop
vertex -0.024915 -0.035063 -0.006557
vertex -0.021594 -0.021918 -0.000257
vertex -0.034197 -0.029439 -0.008994
endloop
endfacet
facet normal -0.419049 -0.295241 0.858621
outer loop
vertex -0.040346 -0.013755 -0.006602
vertex -0.034197 -0.029439 -0.008994
vertex -0.021594 -0.021918 -0.000257
endloop
endfacet
facet normal -0.551041 -0.766158 0.330691
outer loop
vertex -0.024915 -0.035063 -0.006557
vertex -0.034197 -0.029439 -0.008994
vertex -0.018924 -0.040460 -0.009078
endloop
endfacet
facet normal -0.585170 -0.810888 -0.006097
outer loop
vertex -0.017549 -0.041153 -0.048882
vertex -0.018924 -0.040460 -0.009078
vertex -0.034197 -0.029439 -0.008994
endloop
endfacet
facet normal -0.598486 -0.801001 -0.014557
outer loop
vertex -0.017549 -0.041153 -0.048882
vertex -0.034197 -0.029439 -0.008994
vertex -0.035753 -0.027552 -0.048853
endloop
endfacet
facet normal -0.419031 -0.295176 0.858652
outer loop
vertex -0.021594 -0.021918 -0.000257
vertex -0.028425 -0.012468 -0.000342
vertex -0.040346 -0.013755 -0.006602
endloop
endfacet
facet normal -0.450832 -0.123816 0.883980
outer loop
vertex -0.040346 -0.013755 -0.006602
vertex -0.028425 -0.012468 -0.000342
vertex -0.031180 -0.002915 -0.000409
endloop
endfacet
facet normal -0.016352 -0.002826 0.999862
outer loop
vertex -0.021594 -0.021918 -0.000257
vertex -0.029772 0.010183 -0.000300
vertex -0.028425 -0.012468 -0.000342
endloop
endfacet
facet normal -0.038705 -0.004154 0.999242
outer loop
vertex -0.031180 -0.002915 -0.000409
vertex -0.028425 -0.012468 -0.000342
vertex -0.029772 0.010183 -0.000300
endloop
endfacet
facet normal -0.530739 -0.035014 0.846812
outer loop
vertex -0.042019 0.011725 -0.006597
vertex -0.040346 -0.013755 -0.006602
vertex -0.031180 -0.002915 -0.000409
endloop
endfacet
facet normal -0.452762 0.041259 0.890676
outer loop
vertex -0.031180 -0.002915 -0.000409
vertex -0.029772 0.010183 -0.000300
vertex -0.042019 0.011725 -0.006597
endloop
endfacet
facet normal -0.718087 0.405925 0.565311
outer loop
vertex -0.044128 0.011583 -0.009174
vertex -0.042019 0.011725 -0.006597
vertex -0.031995 0.033020 -0.009155
endloop
endfacet
facet normal -0.419444 0.241799 0.874986
outer loop
vertex -0.023130 0.021712 -0.000302
vertex -0.042019 0.011725 -0.006597
vertex -0.029772 0.010183 -0.000300
endloop
endfacet
facet normal -0.466090 0.318547 0.825401
outer loop
vertex -0.042019 0.011725 -0.006597
vertex -0.026490 0.034457 -0.006601
vertex -0.031995 0.033020 -0.009155
endloop
endfacet
facet normal -0.441108 0.301484 0.845299
outer loop
vertex -0.026490 0.034457 -0.006601
vertex -0.042019 0.011725 -0.006597
vertex -0.023130 0.021712 -0.000302
endloop
endfacet
facet normal 0.024841 0.043720 0.998735
outer loop
vertex 0.002119 0.031955 -0.000255
vertex 0.019199 0.023027 -0.000289
vertex 0.015211 0.027920 -0.000404
endloop
endfacet
facet normal 0.032372 0.049846 0.998232
outer loop
vertex 0.022156 0.020606 -0.000264
vertex 0.015211 0.027920 -0.000404
vertex 0.019199 0.023027 -0.000289
endloop
endfacet
facet normal 0.020415 0.035252 0.999170
outer loop
vertex 0.022156 0.020606 -0.000264
vertex 0.019199 0.023027 -0.000289
vertex 0.002119 0.031955 -0.000255
endloop
endfacet
facet normal -0.005573 -0.002111 0.999982
outer loop
vertex 0.001215 -0.027605 -0.000097
vertex -0.003764 -0.015884 -0.000100
vertex 0.000000 -0.027715 -0.000104
endloop
endfacet
facet normal -0.006192 -0.002308 0.999978
outer loop
vertex -0.014550 -0.019439 -0.000175
vertex 0.000000 -0.027715 -0.000104
vertex -0.003764 -0.015884 -0.000100
endloop
endfacet
facet normal -0.009056 -0.007343 0.999932
outer loop
vertex -0.021594 -0.021918 -0.000257
vertex 0.000000 -0.027715 -0.000104
vertex -0.014550 -0.019439 -0.000175
endloop
endfacet
facet normal -0.012309 -0.019464 0.999735
outer loop
vertex -0.005558 -0.030107 -0.000219
vertex 0.000000 -0.027715 -0.000104
vertex -0.021594 -0.021918 -0.000257
endloop
endfacet
facet normal -0.001786 -0.043881 0.999035
outer loop
vertex 0.001215 -0.027605 -0.000097
vertex 0.000000 -0.027715 -0.000104
vertex -0.005558 -0.030107 -0.000219
endloop
endfacet
facet normal 0.000502 -0.006083 -0.999981
outer loop
vertex 0.012867 -0.041274 -0.048866
vertex 0.000397 -0.044604 -0.048852
vertex -0.017549 -0.041153 -0.048882
endloop
endfacet
facet normal 0.001126 -0.000863 -0.999999
outer loop
vertex 0.026222 -0.036611 -0.048855
vertex 0.012867 -0.041274 -0.048866
vertex 0.038385 -0.023065 -0.048853
endloop
endfacet
facet normal 0.294509 -0.842419 -0.451216
outer loop
vertex 0.003559 -0.050662 -0.037414
vertex 0.012867 -0.041274 -0.048866
vertex 0.026222 -0.036611 -0.048855
endloop
endfacet
facet normal 0.000743 -0.000327 -1.000000
outer loop
vertex 0.012867 -0.041274 -0.048866
vertex 0.043961 -0.010402 -0.048853
vertex 0.038385 -0.023065 -0.048853
endloop
endfacet
facet normal 0.000526 -0.000108 -1.000000
outer loop
vertex 0.043961 -0.010402 -0.048853
vertex 0.012867 -0.041274 -0.048866
vertex -0.017549 -0.041153 -0.048882
endloop
endfacet
facet normal -0.049278 -0.959785 0.276379
outer loop
vertex 0.000582 -0.051545 -0.033587
vertex 0.000000 -0.044465 -0.009104
vertex -0.006021 -0.044155 -0.009101
endloop
endfacet
facet normal 0.056968 -0.958717 0.278596
outer loop
vertex 0.007990 -0.043994 -0.009117
vertex 0.000000 -0.044465 -0.009104
vertex 0.000582 -0.051545 -0.033587
endloop
endfacet
facet normal -0.036449 -0.714707 0.698474
outer loop
vertex -0.006021 -0.044155 -0.009101
vertex 0.000000 -0.044465 -0.009104
vertex -0.000366 -0.041965 -0.006565
endloop
endfacet
facet normal 0.041173 -0.708980 0.704025
outer loop
vertex 0.006310 -0.041620 -0.006608
vertex -0.000366 -0.041965 -0.006565
vertex 0.000000 -0.044465 -0.009104
endloop
endfacet
facet normal 0.043063 -0.711150 0.701720
outer loop
vertex 0.007990 -0.043994 -0.009117
vertex 0.006310 -0.041620 -0.006608
vertex 0.000000 -0.044465 -0.009104
endloop
endfacet
facet normal -0.156220 -0.817204 -0.554773
outer loop
vertex 0.000397 -0.044604 -0.048852
vertex -0.001663 -0.051563 -0.038021
vertex -0.017549 -0.041153 -0.048882
endloop
endfacet
facet normal -0.539004 -0.842095 -0.018743
outer loop
vertex -0.017549 -0.041153 -0.048882
vertex -0.001663 -0.051563 -0.038021
vertex -0.002396 -0.051185 -0.033925
endloop
endfacet
facet normal 0.179168 -0.979987 -0.086736
outer loop
vertex 0.003559 -0.050662 -0.037414
vertex 0.000582 -0.051545 -0.033587
vertex -0.001663 -0.051563 -0.038021
endloop
endfacet
facet normal -0.127392 -0.989483 0.068517
outer loop
vertex -0.002396 -0.051185 -0.033925
vertex -0.001663 -0.051563 -0.038021
vertex 0.000582 -0.051545 -0.033587
endloop
endfacet
facet normal -0.773918 0.001576 0.633284
outer loop
vertex -0.042019 0.011725 -0.006597
vertex -0.044128 0.011583 -0.009174
vertex -0.044094 -0.009898 -0.009079
endloop
endfacet
facet normal -0.577956 -0.038108 0.815178
outer loop
vertex -0.042019 0.011725 -0.006597
vertex -0.044094 -0.009898 -0.009079
vertex -0.040346 -0.013755 -0.006602
endloop
endfacet
facet normal -0.999950 -0.001539 0.009882
outer loop
vertex -0.044128 0.011583 -0.009174
vertex -0.044490 -0.007998 -0.048853
vertex -0.044094 -0.009898 -0.009079
endloop
endfacet
facet normal -0.748405 -0.376673 0.545900
outer loop
vertex -0.034197 -0.029439 -0.008994
vertex -0.040346 -0.013755 -0.006602
vertex -0.044094 -0.009898 -0.009079
endloop
endfacet
facet normal -0.912958 -0.407922 -0.010397
outer loop
vertex -0.035753 -0.027552 -0.048853
vertex -0.044094 -0.009898 -0.009079
vertex -0.044490 -0.007998 -0.048853
endloop
endfacet
facet normal -0.892048 -0.451741 0.013437
outer loop
vertex -0.034197 -0.029439 -0.008994
vertex -0.044094 -0.009898 -0.009079
vertex -0.035753 -0.027552 -0.048853
endloop
endfacet
facet normal 0.219143 -0.822840 -0.524319
outer loop
vertex 0.012867 -0.041274 -0.048866
vertex 0.001387 -0.049921 -0.040094
vertex 0.000397 -0.044604 -0.048852
endloop
endfacet
facet normal 0.281656 -0.841544 -0.460949
outer loop
vertex 0.012867 -0.041274 -0.048866
vertex 0.003559 -0.050662 -0.037414
vertex 0.001387 -0.049921 -0.040094
endloop
endfacet
facet normal 0.098737 -0.845636 -0.524548
outer loop
vertex 0.001387 -0.049921 -0.040094
vertex -0.001663 -0.051563 -0.038021
vertex 0.000397 -0.044604 -0.048852
endloop
endfacet
facet normal 0.201122 -0.890052 -0.409094
outer loop
vertex -0.001663 -0.051563 -0.038021
vertex 0.001387 -0.049921 -0.040094
vertex 0.003559 -0.050662 -0.037414
endloop
endfacet
endsolid Exported from Blender-3.4.1
