solid Exported from Blender-3.4.1
facet normal 0.000000 0.000000 -1.000000
outer loop
vertex -0.061396 0.072546 0.000000
vertex 0.052961 0.078867 0.000000
vertex -0.095023 -0.001734 0.000000
endloop
endfacet
facet normal 0.999988 -0.003999 -0.002705
outer loop
vertex 0.094853 -0.005264 0.000000
vertex 0.094895 0.005241 0.000000
vertex 0.094929 0.001919 0.017480
endloop
endfacet
facet normal 0.198155 0.980167 -0.002858
outer loop
vertex 0.024342 0.091870 0.000000
vertex 0.013994 0.093962 0.000000
vertex 0.020682 0.092661 0.017518
endloop
endfacet
facet normal 0.000000 0.000000 1.000000
outer loop
vertex 0.064944 -0.037495 0.099299
vertex 0.048203 -0.057446 0.099299
vertex 0.054546 -0.051461 0.099299
endloop
endfacet
facet normal 0.000000 0.000000 -1.000000
outer loop
vertex 0.094853 -0.005264 0.000000
vertex 0.090429 -0.029384 0.000000
vertex 0.079832 -0.051494 0.000000
endloop
endfacet
facet normal 0.000000 0.000000 -1.000000
outer loop
vertex 0.086628 0.039197 0.000000
vertex 0.061870 0.072169 0.000000
vertex 0.071852 0.062242 0.000000
endloop
endfacet
facet normal 0.000000 0.000000 -1.000000
outer loop
vertex 0.086628 0.039197 0.000000
vertex 0.091422 0.025974 0.000000
vertex 0.093688 0.015727 0.000000
endloop
endfacet
facet normal 0.000000 0.000000 -1.000000
outer loop
vertex 0.061870 0.072169 0.000000
vertex 0.093688 0.015727 0.000000
vertex 0.052961 0.078867 0.000000
endloop
endfacet
facet normal 0.000000 0.000000 -1.000000
outer loop
vertex 0.061870 0.072169 0.000000
vertex 0.086628 0.039197 0.000000
vertex 0.093688 0.015727 0.000000
endloop
endfacet
facet normal 0.000000 0.000000 -1.000000
outer loop
vertex 0.094895 0.005241 0.000000
vertex 0.094853 -0.005264 0.000000
vertex 0.093688 0.015727 0.000000
endloop
endfacet
facet normal 0.903920 -0.383516 0.189326
outer loop
vertex 0.088497 -0.032109 0.022240
vertex 0.084278 -0.042120 0.022104
vertex 0.086578 -0.038963 0.017518
endloop
endfacet
facet normal -0.000013 0.000000 1.000000
outer loop
vertex 0.054546 -0.051461 0.099299
vertex 0.060151 -0.044781 0.099299
vertex 0.064944 -0.037495 0.099299
endloop
endfacet
facet normal 0.743508 -0.623856 0.240831
outer loop
vertex 0.075247 -0.056824 0.021497
vertex 0.060151 -0.044781 0.099299
vertex 0.054546 -0.051461 0.099299
endloop
endfacet
facet normal 0.743324 -0.624088 0.240797
outer loop
vertex 0.068299 -0.064954 0.021874
vertex 0.075247 -0.056824 0.021497
vertex 0.054546 -0.051461 0.099299
endloop
endfacet
facet normal 0.666003 -0.705840 0.241310
outer loop
vertex 0.048203 -0.057446 0.099299
vertex 0.068299 -0.064954 0.021874
vertex 0.054546 -0.051461 0.099299
endloop
endfacet
facet normal 0.000000 0.000000 1.000000
outer loop
vertex 0.017294 0.072969 0.099299
vertex 0.008706 0.074483 0.099299
vertex 0.064944 -0.037495 0.099299
endloop
endfacet
facet normal 0.000000 0.000000 -1.000000
outer loop
vertex -0.061396 0.072546 0.000000
vertex 0.034317 0.088584 0.000000
vertex 0.052961 0.078867 0.000000
endloop
endfacet
facet normal 0.000000 0.000000 -1.000000
outer loop
vertex 0.024342 0.091870 0.000000
vertex 0.034317 0.088584 0.000000
vertex 0.013994 0.093962 0.000000
endloop
endfacet
facet normal 0.000000 0.000000 -1.000000
outer loop
vertex 0.052961 0.078867 0.000000
vertex 0.034317 0.088584 0.000000
vertex 0.043420 0.084565 0.000000
endloop
endfacet
facet normal 0.999528 -0.029695 0.007857
outer loop
vertex 0.094629 -0.008108 0.017747
vertex 0.094853 -0.005264 0.000000
vertex 0.094929 0.001919 0.017480
endloop
endfacet
facet normal 0.000000 0.000000 1.000000
outer loop
vertex -0.008706 0.074483 0.099299
vertex -0.017294 0.072969 0.099299
vertex 0.064944 -0.037495 0.099299
endloop
endfacet
facet normal -0.000000 0.000000 1.000000
outer loop
vertex 0.064944 -0.037495 0.099299
vertex -0.017294 0.072969 0.099299
vertex -0.025648 0.070468 0.099299
endloop
endfacet
facet normal -0.168449 0.955507 0.242137
outer loop
vertex -0.014017 0.093102 0.022131
vertex -0.017294 0.072969 0.099299
vertex -0.008706 0.074483 0.099299
endloop
endfacet
facet normal 0.000002 0.000000 1.000000
outer loop
vertex -0.025648 0.070468 0.099299
vertex -0.033656 0.067014 0.099299
vertex 0.064944 -0.037495 0.099299
endloop
endfacet
facet normal 0.000001 0.000000 1.000000
outer loop
vertex -0.064944 0.037495 0.099299
vertex -0.068857 0.029702 0.099299
vertex 0.064944 -0.037495 0.099299
endloop
endfacet
facet normal 0.000000 0.000000 1.000000
outer loop
vertex -0.060151 0.044781 0.099299
vertex -0.064944 0.037495 0.099299
vertex 0.064944 -0.037495 0.099299
endloop
endfacet
facet normal -0.000001 0.000000 1.000000
outer loop
vertex -0.048203 0.057446 0.099299
vertex -0.054546 0.051461 0.099299
vertex 0.064944 -0.037495 0.099299
endloop
endfacet
facet normal 0.000001 0.000000 1.000000
outer loop
vertex 0.064944 -0.037495 0.099299
vertex -0.054546 0.051461 0.099299
vertex -0.060151 0.044781 0.099299
endloop
endfacet
facet normal -0.743366 0.623737 0.241576
outer loop
vertex -0.054546 0.051461 0.099299
vertex -0.075099 0.057156 0.021350
vertex -0.060151 0.044781 0.099299
endloop
endfacet
facet normal -0.384145 0.890630 0.243333
outer loop
vertex -0.025648 0.070468 0.099299
vertex -0.037097 0.086575 0.022271
vertex -0.033656 0.067014 0.099299
endloop
endfacet
facet normal -0.435924 0.867459 0.239762
outer loop
vertex -0.033656 0.067014 0.099299
vertex -0.037097 0.086575 0.022271
vertex -0.046196 0.082055 0.022081
endloop
endfacet
facet normal -0.000000 0.000000 1.000000
outer loop
vertex -0.068857 -0.029702 0.099299
vertex -0.064943 -0.037495 0.099299
vertex 0.064944 -0.037495 0.099299
endloop
endfacet
facet normal 0.000000 0.000000 1.000000
outer loop
vertex -0.073851 -0.013022 0.099299
vertex -0.071840 -0.021507 0.099299
vertex 0.064944 -0.037495 0.099299
endloop
endfacet
facet normal 0.000000 0.000000 1.000000
outer loop
vertex 0.064944 -0.037495 0.099299
vertex -0.071840 -0.021507 0.099299
vertex -0.068857 -0.029702 0.099299
endloop
endfacet
facet normal 0.000001 0.000000 1.000000
outer loop
vertex -0.073851 0.013022 0.099299
vertex -0.074863 0.004360 0.099299
vertex 0.064944 -0.037495 0.099299
endloop
endfacet
facet normal -0.000000 0.000000 1.000000
outer loop
vertex 0.064944 -0.037495 0.099299
vertex -0.074863 -0.004360 0.099299
vertex -0.073851 -0.013022 0.099299
endloop
endfacet
facet normal 0.000000 0.000000 1.000000
outer loop
vertex -0.074863 0.004360 0.099299
vertex -0.074863 -0.004360 0.099299
vertex 0.064944 -0.037495 0.099299
endloop
endfacet
facet normal -0.957691 0.287790 -0.002263
outer loop
vertex -0.089229 0.032726 0.000000
vertex -0.092271 0.022603 0.000000
vertex -0.090355 0.029118 0.017681
endloop
endfacet
facet normal 0.000000 0.000000 -1.000000
outer loop
vertex 0.064079 -0.070246 0.000000
vertex 0.043909 -0.084242 0.000000
vertex 0.079832 -0.051494 0.000000
endloop
endfacet
facet normal 0.924398 -0.381391 -0.005337
outer loop
vertex 0.086578 -0.038963 0.017518
vertex 0.085065 -0.042385 0.000000
vertex 0.090429 -0.029384 0.000000
endloop
endfacet
facet normal 0.000000 0.000000 -1.000000
outer loop
vertex 0.090429 -0.029384 0.000000
vertex 0.085065 -0.042385 0.000000
vertex 0.079832 -0.051494 0.000000
endloop
endfacet
facet normal 0.071162 -0.977059 0.200728
outer loop
vertex 0.003673 -0.094877 0.017480
vertex 0.013812 -0.093114 0.022467
vertex -0.000341 -0.094175 0.022320
endloop
endfacet
facet normal 0.979720 -0.156563 0.125043
outer loop
vertex 0.092465 -0.021787 0.017575
vertex 0.094629 -0.008108 0.017747
vertex 0.092793 -0.015904 0.022371
endloop
endfacet
facet normal 0.669172 -0.714820 0.203078
outer loop
vertex 0.068299 -0.064954 0.021874
vertex 0.060906 -0.071982 0.021497
vertex 0.064358 -0.069855 0.017609
endloop
endfacet
facet normal 0.662257 -0.709563 0.240699
outer loop
vertex 0.048203 -0.057446 0.099299
vertex 0.060906 -0.071982 0.021497
vertex 0.068299 -0.064954 0.021874
endloop
endfacet
facet normal 0.808805 -0.565128 0.162677
outer loop
vertex 0.075888 -0.057052 0.017518
vertex 0.079898 -0.051266 0.017681
vertex 0.075247 -0.056824 0.021497
endloop
endfacet
facet normal 0.821842 -0.569700 0.004279
outer loop
vertex 0.079832 -0.051494 0.000000
vertex 0.079898 -0.051266 0.017681
vertex 0.075888 -0.057052 0.017518
endloop
endfacet
facet normal 0.000000 0.000000 -1.000000
outer loop
vertex 0.064079 -0.070246 0.000000
vertex 0.079832 -0.051494 0.000000
vertex 0.073659 -0.060057 0.000000
endloop
endfacet
facet normal 0.811187 -0.584780 -0.002904
outer loop
vertex 0.075888 -0.057052 0.017518
vertex 0.073659 -0.060057 0.000000
vertex 0.079832 -0.051494 0.000000
endloop
endfacet
facet normal 0.750778 -0.632845 0.189314
outer loop
vertex 0.068299 -0.064954 0.021874
vertex 0.071446 -0.062535 0.017480
vertex 0.075247 -0.056824 0.021497
endloop
endfacet
facet normal 0.766569 -0.622130 0.159140
outer loop
vertex 0.075888 -0.057052 0.017518
vertex 0.075247 -0.056824 0.021497
vertex 0.071446 -0.062535 0.017480
endloop
endfacet
facet normal 0.713283 -0.688353 0.131903
outer loop
vertex 0.068299 -0.064954 0.021874
vertex 0.064358 -0.069855 0.017609
vertex 0.071446 -0.062535 0.017480
endloop
endfacet
facet normal 0.776948 -0.629498 0.009124
outer loop
vertex 0.073659 -0.060057 0.000000
vertex 0.075888 -0.057052 0.017518
vertex 0.071446 -0.062535 0.017480
endloop
endfacet
facet normal 0.718429 -0.695588 0.004063
outer loop
vertex 0.064079 -0.070246 0.000000
vertex 0.071446 -0.062535 0.017480
vertex 0.064358 -0.069855 0.017609
endloop
endfacet
facet normal 0.728536 -0.684990 -0.004872
outer loop
vertex 0.073659 -0.060057 0.000000
vertex 0.071446 -0.062535 0.017480
vertex 0.064079 -0.070246 0.000000
endloop
endfacet
facet normal -0.000000 0.000000 1.000000
outer loop
vertex 0.064944 -0.037495 0.099299
vertex -0.000000 0.074990 0.099299
vertex -0.008706 0.074483 0.099299
endloop
endfacet
facet normal 0.000000 0.000000 1.000000
outer loop
vertex 0.008706 0.074483 0.099299
vertex -0.000000 0.074990 0.099299
vertex 0.064944 -0.037495 0.099299
endloop
endfacet
facet normal 0.166115 0.986058 0.009812
outer loop
vertex 0.013994 0.093962 0.000000
vertex 0.009982 0.094462 0.017675
vertex 0.020682 0.092661 0.017518
endloop
endfacet
facet normal 0.104109 0.994556 -0.004503
outer loop
vertex 0.004718 0.094933 0.000000
vertex 0.009982 0.094462 0.017675
vertex 0.013994 0.093962 0.000000
endloop
endfacet
facet normal 0.982190 -0.004939 0.187828
outer loop
vertex 0.094023 0.005088 0.022301
vertex 0.094000 -0.005231 0.022150
vertex 0.094929 0.001919 0.017480
endloop
endfacet
facet normal 0.987181 -0.025339 0.157583
outer loop
vertex 0.094929 0.001919 0.017480
vertex 0.094000 -0.005231 0.022150
vertex 0.094629 -0.008108 0.017747
endloop
endfacet
facet normal 0.972414 -0.105663 0.207958
outer loop
vertex 0.094629 -0.008108 0.017747
vertex 0.094000 -0.005231 0.022150
vertex 0.092793 -0.015904 0.022371
endloop
endfacet
facet normal 0.767970 0.593967 0.239637
outer loop
vertex 0.077295 0.054004 0.021497
vertex 0.071118 0.062018 0.021429
vertex 0.060151 0.044781 0.099299
endloop
endfacet
facet normal 0.000000 0.000000 -1.000000
outer loop
vertex 0.079882 0.051492 0.000000
vertex 0.086628 0.039197 0.000000
vertex 0.071852 0.062242 0.000000
endloop
endfacet
facet normal 0.000001 0.000000 1.000000
outer loop
vertex 0.064944 -0.037495 0.099299
vertex 0.064943 0.037495 0.099299
vertex 0.060151 0.044781 0.099299
endloop
endfacet
facet normal 0.000000 0.000000 1.000000
outer loop
vertex 0.068857 0.029702 0.099299
vertex 0.064943 0.037495 0.099299
vertex 0.064944 -0.037495 0.099299
endloop
endfacet
facet normal 0.810690 0.533190 0.241846
outer loop
vertex 0.077295 0.054004 0.021497
vertex 0.060151 0.044781 0.099299
vertex 0.064943 0.037495 0.099299
endloop
endfacet
facet normal -0.000001 0.000000 1.000000
outer loop
vertex 0.064944 -0.037495 0.099299
vertex 0.071840 0.021507 0.099299
vertex 0.068857 0.029702 0.099299
endloop
endfacet
facet normal -0.000005 0.000000 1.000000
outer loop
vertex 0.074863 0.004360 0.099299
vertex 0.064944 -0.037495 0.099299
vertex 0.074863 -0.004360 0.099299
endloop
endfacet
facet normal 0.000009 0.000000 1.000000
outer loop
vertex 0.073851 -0.013022 0.099299
vertex 0.074863 -0.004360 0.099299
vertex 0.064944 -0.037495 0.099299
endloop
endfacet
facet normal 0.970407 0.000000 0.241474
outer loop
vertex 0.074863 0.004360 0.099299
vertex 0.074863 -0.004360 0.099299
vertex 0.094023 0.005088 0.022301
endloop
endfacet
facet normal 0.970555 -0.005687 0.240813
outer loop
vertex 0.074863 -0.004360 0.099299
vertex 0.094000 -0.005231 0.022150
vertex 0.094023 0.005088 0.022301
endloop
endfacet
facet normal 0.963834 -0.112605 0.241544
outer loop
vertex 0.073851 -0.013022 0.099299
vertex 0.092793 -0.015904 0.022371
vertex 0.074863 -0.004360 0.099299
endloop
endfacet
facet normal 0.965031 -0.104154 0.240554
outer loop
vertex 0.094000 -0.005231 0.022150
vertex 0.074863 -0.004360 0.099299
vertex 0.092793 -0.015904 0.022371
endloop
endfacet
facet normal 0.866841 -0.435256 0.243184
outer loop
vertex 0.084278 -0.042120 0.022104
vertex 0.068857 -0.029702 0.099299
vertex 0.064944 -0.037495 0.099299
endloop
endfacet
facet normal 0.893500 -0.379808 0.239590
outer loop
vertex 0.068857 -0.029702 0.099299
vertex 0.084278 -0.042120 0.022104
vertex 0.088497 -0.032109 0.022240
endloop
endfacet
facet normal 0.000000 0.000000 1.000000
outer loop
vertex -0.054546 -0.051461 0.099299
vertex -0.048203 -0.057446 0.099299
vertex 0.064944 -0.037495 0.099299
endloop
endfacet
facet normal 0.000000 0.000000 1.000000
outer loop
vertex -0.048203 -0.057446 0.099299
vertex -0.041208 -0.062653 0.099299
vertex 0.064944 -0.037495 0.099299
endloop
endfacet
facet normal 0.000000 0.000000 -1.000000
outer loop
vertex -0.066551 -0.067792 0.000000
vertex -0.073691 -0.060018 0.000000
vertex -0.081718 -0.048606 0.000000
endloop
endfacet
facet normal -0.817921 -0.575310 -0.004837
outer loop
vertex -0.073691 -0.060018 0.000000
vertex -0.075671 -0.057350 0.017480
vertex -0.081718 -0.048606 0.000000
endloop
endfacet
facet normal -0.896372 -0.443265 -0.005799
outer loop
vertex -0.086432 -0.039302 0.017480
vertex -0.087977 -0.035949 0.000000
vertex -0.081718 -0.048606 0.000000
endloop
endfacet
facet normal -0.818163 -0.560701 0.127372
outer loop
vertex -0.077510 -0.053710 0.021691
vertex -0.081380 -0.048973 0.017685
vertex -0.075671 -0.057350 0.017480
endloop
endfacet
facet normal -0.826293 -0.563226 0.004104
outer loop
vertex -0.075671 -0.057350 0.017480
vertex -0.081380 -0.048973 0.017685
vertex -0.081718 -0.048606 0.000000
endloop
endfacet
facet normal -0.886389 -0.462883 0.007335
outer loop
vertex -0.081718 -0.048606 0.000000
vertex -0.081380 -0.048973 0.017685
vertex -0.086432 -0.039302 0.017480
endloop
endfacet
facet normal -0.963713 -0.112594 0.242033
outer loop
vertex -0.074863 -0.004360 0.099299
vertex -0.092899 -0.015285 0.022402
vertex -0.073851 -0.013022 0.099299
endloop
endfacet
facet normal -0.944475 -0.223845 0.240542
outer loop
vertex -0.073851 -0.013022 0.099299
vertex -0.092899 -0.015285 0.022402
vertex -0.071840 -0.021507 0.099299
endloop
endfacet
facet normal 0.000000 0.000000 1.000000
outer loop
vertex 0.064944 -0.037495 0.099299
vertex -0.041208 0.062653 0.099299
vertex -0.048203 0.057446 0.099299
endloop
endfacet
facet normal 0.000000 0.000000 1.000000
outer loop
vertex -0.033656 0.067014 0.099299
vertex -0.041208 0.062653 0.099299
vertex 0.064944 -0.037495 0.099299
endloop
endfacet
facet normal -0.485155 0.840148 0.242437
outer loop
vertex -0.033656 0.067014 0.099299
vertex -0.046196 0.082055 0.022081
vertex -0.041208 0.062653 0.099299
endloop
endfacet
facet normal -0.810771 0.533355 0.241211
outer loop
vertex -0.060151 0.044781 0.099299
vertex -0.081188 0.047729 0.022070
vertex -0.064944 0.037495 0.099299
endloop
endfacet
facet normal -0.806905 0.539550 0.240395
outer loop
vertex -0.075099 0.057156 0.021350
vertex -0.081188 0.047729 0.022070
vertex -0.060151 0.044781 0.099299
endloop
endfacet
facet normal 0.000000 0.000000 -1.000000
outer loop
vertex -0.061396 0.072546 0.000000
vertex -0.052961 0.078866 0.000000
vertex -0.034318 0.088584 0.000000
endloop
endfacet
facet normal 0.000000 0.000000 -1.000000
outer loop
vertex -0.043902 0.084292 0.000000
vertex -0.034318 0.088584 0.000000
vertex -0.052961 0.078866 0.000000
endloop
endfacet
facet normal 0.000000 0.000000 1.000000
outer loop
vertex -0.054546 -0.051461 0.099299
vertex 0.064944 -0.037495 0.099299
vertex -0.060151 -0.044781 0.099299
endloop
endfacet
facet normal 0.000000 0.000000 1.000000
outer loop
vertex -0.064943 -0.037495 0.099299
vertex -0.060151 -0.044781 0.099299
vertex 0.064944 -0.037495 0.099299
endloop
endfacet
facet normal -0.810527 -0.533084 0.242628
outer loop
vertex -0.077510 -0.053710 0.021691
vertex -0.060151 -0.044781 0.099299
vertex -0.064943 -0.037495 0.099299
endloop
endfacet
facet normal -0.866851 -0.435371 0.242944
outer loop
vertex -0.064943 -0.037495 0.099299
vertex -0.068857 -0.029702 0.099299
vertex -0.084564 -0.041568 0.021990
endloop
endfacet
facet normal -0.879422 -0.456540 0.134865
outer loop
vertex -0.081380 -0.048973 0.017685
vertex -0.084564 -0.041568 0.021990
vertex -0.086432 -0.039302 0.017480
endloop
endfacet
facet normal -0.837176 -0.492237 0.238408
outer loop
vertex -0.064943 -0.037495 0.099299
vertex -0.084564 -0.041568 0.021990
vertex -0.077510 -0.053710 0.021691
endloop
endfacet
facet normal -0.839519 -0.493332 0.227665
outer loop
vertex -0.084564 -0.041568 0.021990
vertex -0.081380 -0.048973 0.017685
vertex -0.077510 -0.053710 0.021691
endloop
endfacet
facet normal -0.000001 0.000000 1.000000
outer loop
vertex -0.068857 0.029702 0.099299
vertex -0.071840 0.021507 0.099299
vertex 0.064944 -0.037495 0.099299
endloop
endfacet
facet normal 0.000000 0.000000 1.000000
outer loop
vertex 0.064944 -0.037495 0.099299
vertex -0.071840 0.021507 0.099299
vertex -0.073851 0.013022 0.099299
endloop
endfacet
facet normal -0.912085 0.332001 0.240574
outer loop
vertex -0.090500 0.026040 0.022298
vertex -0.071840 0.021507 0.099299
vertex -0.068857 0.029702 0.099299
endloop
endfacet
facet normal -0.944130 0.223764 0.241968
outer loop
vertex -0.073851 0.013022 0.099299
vertex -0.071840 0.021507 0.099299
vertex -0.090500 0.026040 0.022298
endloop
endfacet
facet normal -0.947952 0.208924 0.240285
outer loop
vertex -0.073851 0.013022 0.099299
vertex -0.090500 0.026040 0.022298
vertex -0.092867 0.015483 0.022139
endloop
endfacet
facet normal 0.000000 0.000000 -1.000000
outer loop
vertex 0.052954 -0.078921 0.000000
vertex 0.043909 -0.084242 0.000000
vertex 0.064079 -0.070246 0.000000
endloop
endfacet
facet normal 0.000000 0.000000 -1.000000
outer loop
vertex 0.020872 -0.092762 0.000000
vertex 0.007003 -0.094780 0.000000
vertex -0.003510 -0.094934 0.000000
endloop
endfacet
facet normal 0.014647 -0.999889 -0.002758
outer loop
vertex -0.003510 -0.094934 0.000000
vertex 0.007003 -0.094780 0.000000
vertex 0.003673 -0.094877 0.017480
endloop
endfacet
facet normal 0.341303 -0.921499 0.185345
outer loop
vertex 0.037160 -0.086428 0.022400
vertex 0.026912 -0.090287 0.022085
vertex 0.028017 -0.090742 0.017788
endloop
endfacet
facet normal 0.294147 -0.955712 -0.009621
outer loop
vertex 0.034333 -0.088619 0.000000
vertex 0.028017 -0.090742 0.017788
vertex 0.020872 -0.092762 0.000000
endloop
endfacet
facet normal 0.419859 -0.890631 0.174629
outer loop
vertex 0.037160 -0.086428 0.022400
vertex 0.037546 -0.087206 0.017504
vertex 0.043645 -0.083424 0.022129
endloop
endfacet
facet normal 0.415712 -0.909492 -0.002889
outer loop
vertex 0.043909 -0.084242 0.000000
vertex 0.037546 -0.087206 0.017504
vertex 0.034333 -0.088619 0.000000
endloop
endfacet
facet normal 0.348182 -0.937353 0.011756
outer loop
vertex 0.037546 -0.087206 0.017504
vertex 0.028017 -0.090742 0.017788
vertex 0.034333 -0.088619 0.000000
endloop
endfacet
facet normal 0.347152 -0.921562 0.173809
outer loop
vertex 0.028017 -0.090742 0.017788
vertex 0.037546 -0.087206 0.017504
vertex 0.037160 -0.086428 0.022400
endloop
endfacet
facet normal 0.237938 -0.971169 0.014712
outer loop
vertex 0.028017 -0.090742 0.017788
vertex 0.017646 -0.093287 0.017518
vertex 0.020872 -0.092762 0.000000
endloop
endfacet
facet normal 0.212284 -0.956958 0.197907
outer loop
vertex 0.013812 -0.093114 0.022467
vertex 0.017646 -0.093287 0.017518
vertex 0.026912 -0.090287 0.022085
endloop
endfacet
facet normal 0.231256 -0.959468 0.161067
outer loop
vertex 0.017646 -0.093287 0.017518
vertex 0.028017 -0.090742 0.017788
vertex 0.026912 -0.090287 0.022085
endloop
endfacet
facet normal 0.945397 -0.219412 0.241005
outer loop
vertex 0.073851 -0.013022 0.099299
vertex 0.090604 -0.025604 0.022127
vertex 0.092793 -0.015904 0.022371
endloop
endfacet
facet normal 0.953614 -0.220361 0.205087
outer loop
vertex 0.090604 -0.025604 0.022127
vertex 0.092465 -0.021787 0.017575
vertex 0.092793 -0.015904 0.022371
endloop
endfacet
facet normal 0.913349 -0.371126 0.167508
outer loop
vertex 0.089243 -0.032403 0.017521
vertex 0.088497 -0.032109 0.022240
vertex 0.086578 -0.038963 0.017518
endloop
endfacet
facet normal 0.926464 -0.376377 -0.002140
outer loop
vertex 0.090429 -0.029384 0.000000
vertex 0.089243 -0.032403 0.017521
vertex 0.086578 -0.038963 0.017518
endloop
endfacet
facet normal 0.956774 -0.290459 0.014716
outer loop
vertex 0.092465 -0.021787 0.017575
vertex 0.089243 -0.032403 0.017521
vertex 0.090429 -0.029384 0.000000
endloop
endfacet
facet normal 0.938800 -0.301176 0.167174
outer loop
vertex 0.088497 -0.032109 0.022240
vertex 0.089243 -0.032403 0.017521
vertex 0.090604 -0.025604 0.022127
endloop
endfacet
facet normal 0.946516 -0.288011 0.145458
outer loop
vertex 0.090604 -0.025604 0.022127
vertex 0.089243 -0.032403 0.017521
vertex 0.092465 -0.021787 0.017575
endloop
endfacet
facet normal 0.994253 -0.106957 -0.004591
outer loop
vertex 0.094629 -0.008108 0.017747
vertex 0.093724 -0.015759 0.000000
vertex 0.094853 -0.005264 0.000000
endloop
endfacet
facet normal 0.987539 -0.156443 0.017085
outer loop
vertex 0.092465 -0.021787 0.017575
vertex 0.093724 -0.015759 0.000000
vertex 0.094629 -0.008108 0.017747
endloop
endfacet
facet normal 0.000000 0.000000 -1.000000
outer loop
vertex 0.093724 -0.015759 0.000000
vertex 0.090429 -0.029384 0.000000
vertex 0.094853 -0.005264 0.000000
endloop
endfacet
facet normal 0.971922 -0.235045 -0.010993
outer loop
vertex 0.090429 -0.029384 0.000000
vertex 0.093724 -0.015759 0.000000
vertex 0.092465 -0.021787 0.017575
endloop
endfacet
facet normal -0.000002 0.000000 1.000000
outer loop
vertex 0.064944 -0.037495 0.099299
vertex 0.041208 -0.062653 0.099299
vertex 0.048203 -0.057446 0.099299
endloop
endfacet
facet normal 0.886980 -0.439295 0.142431
outer loop
vertex 0.084278 -0.042120 0.022104
vertex 0.083451 -0.045289 0.017480
vertex 0.086578 -0.038963 0.017518
endloop
endfacet
facet normal 0.896400 -0.443152 0.009146
outer loop
vertex 0.086578 -0.038963 0.017518
vertex 0.083451 -0.045289 0.017480
vertex 0.085065 -0.042385 0.000000
endloop
endfacet
facet normal 0.867096 -0.498134 -0.002694
outer loop
vertex 0.085065 -0.042385 0.000000
vertex 0.083451 -0.045289 0.017480
vertex 0.079832 -0.051494 0.000000
endloop
endfacet
facet normal 0.859637 -0.510893 0.003379
outer loop
vertex 0.079832 -0.051494 0.000000
vertex 0.083451 -0.045289 0.017480
vertex 0.079898 -0.051266 0.017681
endloop
endfacet
facet normal 0.810589 -0.559431 0.173151
outer loop
vertex 0.079898 -0.051266 0.017681
vertex 0.079076 -0.051089 0.022101
vertex 0.075247 -0.056824 0.021497
endloop
endfacet
facet normal 0.810550 -0.533209 0.242275
outer loop
vertex 0.060151 -0.044781 0.099299
vertex 0.079076 -0.051089 0.022101
vertex 0.064944 -0.037495 0.099299
endloop
endfacet
facet normal 0.795386 -0.556368 0.240450
outer loop
vertex 0.060151 -0.044781 0.099299
vertex 0.075247 -0.056824 0.021497
vertex 0.079076 -0.051089 0.022101
endloop
endfacet
facet normal 0.839817 -0.487171 0.239526
outer loop
vertex 0.084278 -0.042120 0.022104
vertex 0.064944 -0.037495 0.099299
vertex 0.079076 -0.051089 0.022101
endloop
endfacet
facet normal 0.849930 -0.493020 0.185877
outer loop
vertex 0.079076 -0.051089 0.022101
vertex 0.083451 -0.045289 0.017480
vertex 0.084278 -0.042120 0.022104
endloop
endfacet
facet normal 0.848517 -0.498418 0.177760
outer loop
vertex 0.083451 -0.045289 0.017480
vertex 0.079076 -0.051089 0.022101
vertex 0.079898 -0.051266 0.017681
endloop
endfacet
facet normal 0.399620 0.884678 0.240102
outer loop
vertex 0.034097 0.087752 0.022154
vertex 0.033656 0.067014 0.099299
vertex 0.044080 0.083185 0.022366
endloop
endfacet
facet normal 0.705113 0.709020 -0.010321
outer loop
vertex 0.061870 0.072169 0.000000
vertex 0.065952 0.068366 0.017622
vertex 0.071852 0.062242 0.000000
endloop
endfacet
facet normal 0.166090 0.972567 0.162870
outer loop
vertex 0.009982 0.094462 0.017675
vertex 0.010725 0.093575 0.022214
vertex 0.020682 0.092661 0.017518
endloop
endfacet
facet normal 0.168493 0.955755 0.241129
outer loop
vertex 0.017294 0.072969 0.099299
vertex 0.010725 0.093575 0.022214
vertex 0.008706 0.074483 0.099299
endloop
endfacet
facet normal 0.056417 0.968779 0.241420
outer loop
vertex 0.008706 0.074483 0.099299
vertex 0.010725 0.093575 0.022214
vertex -0.000000 0.074990 0.099299
endloop
endfacet
facet normal 0.049746 0.969342 0.240627
outer loop
vertex 0.010725 0.093575 0.022214
vertex -0.000102 0.094149 0.022140
vertex -0.000000 0.074990 0.099299
endloop
endfacet
facet normal -0.015991 0.999865 -0.003873
outer loop
vertex -0.008475 0.094722 0.000000
vertex 0.000668 0.094937 0.017755
vertex 0.004718 0.094933 0.000000
endloop
endfacet
facet normal 0.051026 0.998632 0.011415
outer loop
vertex 0.000668 0.094937 0.017755
vertex 0.009982 0.094462 0.017675
vertex 0.004718 0.094933 0.000000
endloop
endfacet
facet normal 0.050762 0.981376 0.185270
outer loop
vertex 0.010725 0.093575 0.022214
vertex 0.000668 0.094937 0.017755
vertex -0.000102 0.094149 0.022140
endloop
endfacet
facet normal 0.051639 0.981684 0.183384
outer loop
vertex 0.009982 0.094462 0.017675
vertex 0.000668 0.094937 0.017755
vertex 0.010725 0.093575 0.022214
endloop
endfacet
facet normal 0.743152 0.623559 0.242692
outer loop
vertex 0.071118 0.062018 0.021429
vertex 0.054546 0.051461 0.099299
vertex 0.060151 0.044781 0.099299
endloop
endfacet
facet normal 0.000000 0.000000 1.000000
outer loop
vertex 0.060151 0.044781 0.099299
vertex 0.054546 0.051461 0.099299
vertex 0.064944 -0.037495 0.099299
endloop
endfacet
facet normal 0.000000 0.000000 1.000000
outer loop
vertex 0.054546 0.051461 0.099299
vertex 0.048203 0.057446 0.099299
vertex 0.064944 -0.037495 0.099299
endloop
endfacet
facet normal 0.778501 0.601568 0.179030
outer loop
vertex 0.071118 0.062018 0.021429
vertex 0.077295 0.054004 0.021497
vertex 0.073533 0.060073 0.017463
endloop
endfacet
facet normal 0.738142 0.674525 0.012726
outer loop
vertex 0.065952 0.068366 0.017622
vertex 0.073533 0.060073 0.017463
vertex 0.071852 0.062242 0.000000
endloop
endfacet
facet normal 0.733971 0.668674 0.119005
outer loop
vertex 0.071118 0.062018 0.021429
vertex 0.073533 0.060073 0.017463
vertex 0.065952 0.068366 0.017622
endloop
endfacet
facet normal 0.786312 0.595887 0.163193
outer loop
vertex 0.073533 0.060073 0.017463
vertex 0.077295 0.054004 0.021497
vertex 0.077734 0.054501 0.017567
endloop
endfacet
facet normal 0.801153 0.598443 -0.004545
outer loop
vertex 0.077734 0.054501 0.017567
vertex 0.079882 0.051492 0.000000
vertex 0.071852 0.062242 0.000000
endloop
endfacet
facet normal 0.798501 0.601990 -0.002094
outer loop
vertex 0.073533 0.060073 0.017463
vertex 0.077734 0.054501 0.017567
vertex 0.071852 0.062242 0.000000
endloop
endfacet
facet normal 0.000000 0.000000 1.000000
outer loop
vertex 0.074863 0.004360 0.099299
vertex 0.073851 0.013022 0.099299
vertex 0.064944 -0.037495 0.099299
endloop
endfacet
facet normal -0.000005 0.000000 1.000000
outer loop
vertex 0.073851 0.013022 0.099299
vertex 0.071840 0.021507 0.099299
vertex 0.064944 -0.037495 0.099299
endloop
endfacet
facet normal 0.940110 0.340837 -0.004743
outer loop
vertex 0.086628 0.039197 0.000000
vertex 0.090214 0.029552 0.017681
vertex 0.091422 0.025974 0.000000
endloop
endfacet
facet normal -0.345639 -0.919424 0.187597
outer loop
vertex -0.030853 -0.089783 0.017567
vertex -0.027698 -0.090046 0.022091
vertex -0.037253 -0.086404 0.022336
endloop
endfacet
facet normal 0.000000 0.000000 -1.000000
outer loop
vertex -0.081718 -0.048606 0.000000
vertex -0.014534 -0.093940 0.000000
vertex -0.066551 -0.067792 0.000000
endloop
endfacet
facet normal 0.000000 0.000000 -1.000000
outer loop
vertex 0.020872 -0.092762 0.000000
vertex -0.003510 -0.094934 0.000000
vertex -0.014534 -0.093940 0.000000
endloop
endfacet
facet normal -0.089802 -0.995953 -0.003708
outer loop
vertex -0.010453 -0.094373 0.017460
vertex -0.014534 -0.093940 0.000000
vertex -0.003510 -0.094934 0.000000
endloop
endfacet
facet normal -0.149844 -0.988654 0.010506
outer loop
vertex -0.010453 -0.094373 0.017460
vertex -0.017430 -0.093313 0.017699
vertex -0.014534 -0.093940 0.000000
endloop
endfacet
facet normal 0.000000 0.000000 -1.000000
outer loop
vertex 0.020872 -0.092762 0.000000
vertex -0.014534 -0.093940 0.000000
vertex 0.034333 -0.088619 0.000000
endloop
endfacet
facet normal 0.000000 0.000000 -1.000000
outer loop
vertex -0.093823 -0.015273 0.000000
vertex -0.014534 -0.093940 0.000000
vertex -0.081718 -0.048606 0.000000
endloop
endfacet
facet normal 0.000000 0.000000 -1.000000
outer loop
vertex 0.043909 -0.084242 0.000000
vertex 0.034333 -0.088619 0.000000
vertex -0.014534 -0.093940 0.000000
endloop
endfacet
facet normal 0.000000 0.000000 -1.000000
outer loop
vertex 0.043909 -0.084242 0.000000
vertex -0.014534 -0.093940 0.000000
vertex 0.079832 -0.051494 0.000000
endloop
endfacet
facet normal 0.000000 0.000000 -1.000000
outer loop
vertex -0.093823 -0.015273 0.000000
vertex -0.095023 -0.001734 0.000000
vertex -0.014534 -0.093940 0.000000
endloop
endfacet
facet normal 0.000000 0.000000 -1.000000
outer loop
vertex 0.079832 -0.051494 0.000000
vertex -0.014534 -0.093940 0.000000
vertex 0.094853 -0.005264 0.000000
endloop
endfacet
facet normal 0.000000 0.000000 -1.000000
outer loop
vertex 0.093688 0.015727 0.000000
vertex 0.094853 -0.005264 0.000000
vertex -0.014534 -0.093940 0.000000
endloop
endfacet
facet normal 0.000000 0.000000 -1.000000
outer loop
vertex 0.052961 0.078867 0.000000
vertex -0.014534 -0.093940 0.000000
vertex -0.095023 -0.001734 0.000000
endloop
endfacet
facet normal 0.000000 0.000000 -1.000000
outer loop
vertex 0.093688 0.015727 0.000000
vertex -0.014534 -0.093940 0.000000
vertex 0.052961 0.078867 0.000000
endloop
endfacet
facet normal -0.287473 -0.946681 0.145444
outer loop
vertex -0.030853 -0.089783 0.017567
vertex -0.024230 -0.091804 0.017503
vertex -0.027698 -0.090046 0.022091
endloop
endfacet
facet normal 0.000000 0.000000 -1.000000
outer loop
vertex -0.014534 -0.093940 0.000000
vertex -0.047044 -0.082630 0.000000
vertex -0.066551 -0.067792 0.000000
endloop
endfacet
facet normal -0.682048 -0.731264 0.007954
outer loop
vertex -0.061204 -0.072589 0.017481
vertex -0.068570 -0.065716 0.017734
vertex -0.066551 -0.067792 0.000000
endloop
endfacet
facet normal -0.736492 -0.676430 -0.004664
outer loop
vertex -0.068570 -0.065716 0.017734
vertex -0.073691 -0.060018 0.000000
vertex -0.066551 -0.067792 0.000000
endloop
endfacet
facet normal -0.762520 -0.646846 0.012357
outer loop
vertex -0.073691 -0.060018 0.000000
vertex -0.068570 -0.065716 0.017734
vertex -0.075671 -0.057350 0.017480
endloop
endfacet
facet normal -0.553954 -0.797345 0.239533
outer loop
vertex -0.041208 -0.062653 0.099299
vertex -0.058500 -0.074053 0.021361
vertex -0.049638 -0.080169 0.021497
endloop
endfacet
facet normal -0.579313 -0.778239 0.242364
outer loop
vertex -0.048203 -0.057446 0.099299
vertex -0.058500 -0.074053 0.021361
vertex -0.041208 -0.062653 0.099299
endloop
endfacet
facet normal 0.000000 0.000000 -1.000000
outer loop
vertex -0.081718 -0.048606 0.000000
vertex -0.091372 -0.025998 0.000000
vertex -0.093823 -0.015273 0.000000
endloop
endfacet
facet normal 0.000000 0.000000 -1.000000
outer loop
vertex -0.087977 -0.035949 0.000000
vertex -0.091372 -0.025998 0.000000
vertex -0.081718 -0.048606 0.000000
endloop
endfacet
facet normal -0.996055 -0.088282 -0.008947
outer loop
vertex -0.093823 -0.015273 0.000000
vertex -0.094519 -0.009224 0.017797
vertex -0.095023 -0.001734 0.000000
endloop
endfacet
facet normal -0.690028 0.723774 -0.003403
outer loop
vertex -0.061396 0.072546 0.000000
vertex -0.069010 0.065287 0.000000
vertex -0.064056 0.070092 0.017440
endloop
endfacet
facet normal -0.940505 0.339650 0.009414
outer loop
vertex -0.087936 0.035823 0.017440
vertex -0.089229 0.032726 0.000000
vertex -0.090355 0.029118 0.017681
endloop
endfacet
facet normal -0.919921 0.338971 0.197090
outer loop
vertex -0.090500 0.026040 0.022298
vertex -0.087936 0.035823 0.017440
vertex -0.090355 0.029118 0.017681
endloop
endfacet
facet normal 0.000000 0.000000 -1.000000
outer loop
vertex -0.092271 0.022603 0.000000
vertex -0.089229 0.032726 0.000000
vertex -0.083466 0.045539 0.000000
endloop
endfacet
facet normal -0.911985 0.410190 -0.005227
outer loop
vertex -0.087936 0.035823 0.017440
vertex -0.083466 0.045539 0.000000
vertex -0.089229 0.032726 0.000000
endloop
endfacet
facet normal -0.905369 0.424602 0.004498
outer loop
vertex -0.087936 0.035823 0.017440
vertex -0.083637 0.044986 0.017784
vertex -0.083466 0.045539 0.000000
endloop
endfacet
facet normal 0.000000 0.000000 -1.000000
outer loop
vertex -0.069010 0.065287 0.000000
vertex -0.083466 0.045539 0.000000
vertex -0.075833 0.057286 0.000000
endloop
endfacet
facet normal 0.000000 0.000000 -1.000000
outer loop
vertex -0.061396 0.072546 0.000000
vertex -0.083466 0.045539 0.000000
vertex -0.069010 0.065287 0.000000
endloop
endfacet
facet normal 0.000000 0.000000 -1.000000
outer loop
vertex -0.095023 -0.001734 0.000000
vertex -0.083466 0.045539 0.000000
vertex -0.061396 0.072546 0.000000
endloop
endfacet
facet normal 0.000000 0.000000 -1.000000
outer loop
vertex -0.092271 0.022603 0.000000
vertex -0.083466 0.045539 0.000000
vertex -0.095023 -0.001734 0.000000
endloop
endfacet
facet normal -0.818135 0.542913 0.189474
outer loop
vertex -0.081188 0.047729 0.022070
vertex -0.075099 0.057156 0.021350
vertex -0.077927 0.054245 0.017480
endloop
endfacet
facet normal -0.839977 0.522785 0.145381
outer loop
vertex -0.081188 0.047729 0.022070
vertex -0.077927 0.054245 0.017480
vertex -0.083637 0.044986 0.017784
endloop
endfacet
facet normal -0.838514 0.544851 -0.005661
outer loop
vertex -0.083466 0.045539 0.000000
vertex -0.077927 0.054245 0.017480
vertex -0.075833 0.057286 0.000000
endloop
endfacet
facet normal -0.851011 0.525085 0.008145
outer loop
vertex -0.077927 0.054245 0.017480
vertex -0.083466 0.045539 0.000000
vertex -0.083637 0.044986 0.017784
endloop
endfacet
facet normal -0.513835 0.857875 -0.004851
outer loop
vertex -0.052961 0.078866 0.000000
vertex -0.050512 0.080433 0.017713
vertex -0.043902 0.084292 0.000000
endloop
endfacet
facet normal -0.408716 0.912658 -0.002687
outer loop
vertex -0.043902 0.084292 0.000000
vertex -0.040893 0.085691 0.017480
vertex -0.034318 0.088584 0.000000
endloop
endfacet
facet normal -0.385093 0.922844 0.007883
outer loop
vertex -0.034318 0.088584 0.000000
vertex -0.040893 0.085691 0.017480
vertex -0.031623 0.089557 0.017746
endloop
endfacet
facet normal -0.479379 0.877522 0.012289
outer loop
vertex -0.050512 0.080433 0.017713
vertex -0.040893 0.085691 0.017480
vertex -0.043902 0.084292 0.000000
endloop
endfacet
facet normal -0.384649 0.912942 0.136315
outer loop
vertex -0.031623 0.089557 0.017746
vertex -0.040893 0.085691 0.017480
vertex -0.037097 0.086575 0.022271
endloop
endfacet
facet normal -0.440190 0.878277 0.186715
outer loop
vertex -0.037097 0.086575 0.022271
vertex -0.040893 0.085691 0.017480
vertex -0.046196 0.082055 0.022081
endloop
endfacet
facet normal -0.472012 0.869854 0.143385
outer loop
vertex -0.040893 0.085691 0.017480
vertex -0.050512 0.080433 0.017713
vertex -0.046196 0.082055 0.022081
endloop
endfacet
facet normal 0.000000 0.000000 -1.000000
outer loop
vertex -0.095023 -0.001734 0.000000
vertex -0.094341 0.011651 0.000000
vertex -0.092271 0.022603 0.000000
endloop
endfacet
facet normal -0.956905 0.254602 0.139684
outer loop
vertex -0.090500 0.026040 0.022298
vertex -0.090355 0.029118 0.017681
vertex -0.093108 0.018725 0.017765
endloop
endfacet
facet normal -0.954898 0.210951 0.208970
outer loop
vertex -0.092867 0.015483 0.022139
vertex -0.090500 0.026040 0.022298
vertex -0.093108 0.018725 0.017765
endloop
endfacet
facet normal -0.966589 0.256122 0.010369
outer loop
vertex -0.092271 0.022603 0.000000
vertex -0.093108 0.018725 0.017765
vertex -0.090355 0.029118 0.017681
endloop
endfacet
facet normal -0.982587 0.185716 -0.005754
outer loop
vertex -0.094341 0.011651 0.000000
vertex -0.093108 0.018725 0.017765
vertex -0.092271 0.022603 0.000000
endloop
endfacet
facet normal 0.507048 -0.861914 -0.002643
outer loop
vertex 0.052954 -0.078921 0.000000
vertex 0.050123 -0.080640 0.017480
vertex 0.043909 -0.084242 0.000000
endloop
endfacet
facet normal 0.074078 -0.977976 0.195130
outer loop
vertex 0.003673 -0.094877 0.017480
vertex 0.010670 -0.094347 0.017480
vertex 0.013812 -0.093114 0.022467
endloop
endfacet
facet normal 0.147765 -0.977788 0.148650
outer loop
vertex 0.010670 -0.094347 0.017480
vertex 0.017646 -0.093287 0.017518
vertex 0.013812 -0.093114 0.022467
endloop
endfacet
facet normal 0.075527 -0.997104 0.008855
outer loop
vertex 0.007003 -0.094780 0.000000
vertex 0.010670 -0.094347 0.017480
vertex 0.003673 -0.094877 0.017480
endloop
endfacet
facet normal 0.143986 -0.989563 -0.005694
outer loop
vertex 0.010670 -0.094347 0.017480
vertex 0.007003 -0.094780 0.000000
vertex 0.020872 -0.092762 0.000000
endloop
endfacet
facet normal 0.150236 -0.988648 -0.001963
outer loop
vertex 0.017646 -0.093287 0.017518
vertex 0.010670 -0.094347 0.017480
vertex 0.020872 -0.092762 0.000000
endloop
endfacet
facet normal 0.944250 -0.223793 0.241471
outer loop
vertex 0.090604 -0.025604 0.022127
vertex 0.073851 -0.013022 0.099299
vertex 0.071840 -0.021507 0.099299
endloop
endfacet
facet normal -0.000009 0.000000 1.000000
outer loop
vertex 0.073851 -0.013022 0.099299
vertex 0.064944 -0.037495 0.099299
vertex 0.071840 -0.021507 0.099299
endloop
endfacet
facet normal -0.000026 0.000000 1.000000
outer loop
vertex 0.068857 -0.029702 0.099299
vertex 0.071840 -0.021507 0.099299
vertex 0.064944 -0.037495 0.099299
endloop
endfacet
facet normal 0.911587 -0.331820 0.242701
outer loop
vertex 0.071840 -0.021507 0.099299
vertex 0.068857 -0.029702 0.099299
vertex 0.088497 -0.032109 0.022240
endloop
endfacet
facet normal 0.924635 -0.295314 0.240499
outer loop
vertex 0.090604 -0.025604 0.022127
vertex 0.071840 -0.021507 0.099299
vertex 0.088497 -0.032109 0.022240
endloop
endfacet
facet normal 0.183638 0.961987 0.202135
outer loop
vertex 0.010725 0.093575 0.022214
vertex 0.024390 0.090941 0.022335
vertex 0.020682 0.092661 0.017518
endloop
endfacet
facet normal 0.181720 0.953747 0.239466
outer loop
vertex 0.010725 0.093575 0.022214
vertex 0.017294 0.072969 0.099299
vertex 0.024390 0.090941 0.022335
endloop
endfacet
facet normal 0.402968 0.890630 0.210701
outer loop
vertex 0.037159 0.087399 0.017790
vertex 0.034097 0.087752 0.022154
vertex 0.044080 0.083185 0.022366
endloop
endfacet
facet normal 0.403887 0.914802 -0.003587
outer loop
vertex 0.034317 0.088584 0.000000
vertex 0.037159 0.087399 0.017790
vertex 0.043420 0.084565 0.000000
endloop
endfacet
facet normal 0.485167 0.840170 0.242338
outer loop
vertex 0.033656 0.067014 0.099299
vertex 0.041208 0.062653 0.099299
vertex 0.044080 0.083185 0.022366
endloop
endfacet
facet normal 0.000000 0.000000 1.000000
outer loop
vertex 0.048203 0.057446 0.099299
vertex 0.041208 0.062653 0.099299
vertex 0.064944 -0.037495 0.099299
endloop
endfacet
facet normal 0.000001 0.000000 1.000000
outer loop
vertex 0.064944 -0.037495 0.099299
vertex 0.041208 0.062653 0.099299
vertex 0.033656 0.067014 0.099299
endloop
endfacet
facet normal 0.000000 0.000000 1.000000
outer loop
vertex 0.064944 -0.037495 0.099299
vertex 0.025648 0.070468 0.099299
vertex 0.017294 0.072969 0.099299
endloop
endfacet
facet normal -0.000003 0.000000 1.000000
outer loop
vertex 0.033656 0.067014 0.099299
vertex 0.025648 0.070468 0.099299
vertex 0.064944 -0.037495 0.099299
endloop
endfacet
facet normal 0.384306 0.891001 0.241715
outer loop
vertex 0.025648 0.070468 0.099299
vertex 0.033656 0.067014 0.099299
vertex 0.034097 0.087752 0.022154
endloop
endfacet
facet normal 0.278227 0.929356 0.242668
outer loop
vertex 0.024390 0.090941 0.022335
vertex 0.017294 0.072969 0.099299
vertex 0.025648 0.070468 0.099299
endloop
endfacet
facet normal 0.307030 0.920951 0.239961
outer loop
vertex 0.024390 0.090941 0.022335
vertex 0.025648 0.070468 0.099299
vertex 0.034097 0.087752 0.022154
endloop
endfacet
facet normal 0.600929 0.799295 -0.003479
outer loop
vertex 0.052961 0.078867 0.000000
vertex 0.058444 0.074821 0.017518
vertex 0.061870 0.072169 0.000000
endloop
endfacet
facet normal 0.651777 0.758304 0.012670
outer loop
vertex 0.065952 0.068366 0.017622
vertex 0.061870 0.072169 0.000000
vertex 0.058444 0.074821 0.017518
endloop
endfacet
facet normal -0.107866 0.964715 0.240189
outer loop
vertex -0.007063 0.093828 0.022338
vertex -0.014017 0.093102 0.022131
vertex -0.008706 0.074483 0.099299
endloop
endfacet
facet normal -0.056405 0.968571 0.242257
outer loop
vertex -0.000000 0.074990 0.099299
vertex -0.007063 0.093828 0.022338
vertex -0.008706 0.074483 0.099299
endloop
endfacet
facet normal -0.037872 0.969820 0.240862
outer loop
vertex -0.000102 0.094149 0.022140
vertex -0.007063 0.093828 0.022338
vertex -0.000000 0.074990 0.099299
endloop
endfacet
facet normal -0.189585 0.951999 0.240324
outer loop
vertex -0.023690 0.091131 0.022308
vertex -0.017294 0.072969 0.099299
vertex -0.014017 0.093102 0.022131
endloop
endfacet
facet normal -0.278249 0.929428 0.242365
outer loop
vertex -0.017294 0.072969 0.099299
vertex -0.023690 0.091131 0.022308
vertex -0.025648 0.070468 0.099299
endloop
endfacet
facet normal -0.313038 0.919243 0.238747
outer loop
vertex -0.037097 0.086575 0.022271
vertex -0.025648 0.070468 0.099299
vertex -0.023690 0.091131 0.022308
endloop
endfacet
facet normal -0.313859 0.921749 0.227751
outer loop
vertex -0.031623 0.089557 0.017746
vertex -0.037097 0.086575 0.022271
vertex -0.023690 0.091131 0.022308
endloop
endfacet
facet normal -0.311127 0.950356 -0.004858
outer loop
vertex -0.031623 0.089557 0.017746
vertex -0.023737 0.092048 0.000000
vertex -0.034318 0.088584 0.000000
endloop
endfacet
facet normal -0.172571 0.984956 -0.009013
outer loop
vertex -0.008475 0.094722 0.000000
vertex -0.023737 0.092048 0.000000
vertex -0.014148 0.093888 0.017480
endloop
endfacet
facet normal 0.000000 0.000000 -1.000000
outer loop
vertex -0.023737 0.092048 0.000000
vertex -0.008475 0.094722 0.000000
vertex 0.004718 0.094933 0.000000
endloop
endfacet
facet normal 0.000000 0.000000 -1.000000
outer loop
vertex -0.061396 0.072546 0.000000
vertex -0.034318 0.088584 0.000000
vertex -0.023737 0.092048 0.000000
endloop
endfacet
facet normal 0.000000 0.000000 -1.000000
outer loop
vertex 0.004718 0.094933 0.000000
vertex 0.013994 0.093962 0.000000
vertex -0.023737 0.092048 0.000000
endloop
endfacet
facet normal 0.000000 0.000000 -1.000000
outer loop
vertex 0.034317 0.088584 0.000000
vertex -0.061396 0.072546 0.000000
vertex -0.023737 0.092048 0.000000
endloop
endfacet
facet normal 0.000000 0.000000 -1.000000
outer loop
vertex 0.034317 0.088584 0.000000
vertex -0.023737 0.092048 0.000000
vertex 0.013994 0.093962 0.000000
endloop
endfacet
facet normal -0.110712 0.993786 0.011485
outer loop
vertex -0.014148 0.093888 0.017480
vertex -0.006558 0.094732 0.017615
vertex -0.008475 0.094722 0.000000
endloop
endfacet
facet normal -0.028406 0.999593 0.002525
outer loop
vertex -0.006558 0.094732 0.017615
vertex 0.000668 0.094937 0.017755
vertex -0.008475 0.094722 0.000000
endloop
endfacet
facet normal -0.111898 0.979304 0.168650
outer loop
vertex -0.014148 0.093888 0.017480
vertex -0.014017 0.093102 0.022131
vertex -0.006558 0.094732 0.017615
endloop
endfacet
facet normal -0.107394 0.978548 0.175813
outer loop
vertex -0.007063 0.093828 0.022338
vertex -0.006558 0.094732 0.017615
vertex -0.014017 0.093102 0.022131
endloop
endfacet
facet normal -0.031257 0.984695 0.171461
outer loop
vertex 0.000668 0.094937 0.017755
vertex -0.006558 0.094732 0.017615
vertex -0.000102 0.094149 0.022140
endloop
endfacet
facet normal -0.040066 0.982164 0.183707
outer loop
vertex -0.007063 0.093828 0.022338
vertex -0.000102 0.094149 0.022140
vertex -0.006558 0.094732 0.017615
endloop
endfacet
facet normal 0.932430 0.361263 0.007957
outer loop
vertex 0.090214 0.029552 0.017681
vertex 0.086628 0.039197 0.000000
vertex 0.086279 0.039708 0.017698
endloop
endfacet
facet normal 0.912172 0.332034 0.240201
outer loop
vertex 0.071840 0.021507 0.099299
vertex 0.085841 0.038681 0.022390
vertex 0.068857 0.029702 0.099299
endloop
endfacet
facet normal 0.919949 0.356164 0.163836
outer loop
vertex 0.086279 0.039708 0.017698
vertex 0.085841 0.038681 0.022390
vertex 0.090214 0.029552 0.017681
endloop
endfacet
facet normal 0.866995 0.435445 0.242298
outer loop
vertex 0.085841 0.038681 0.022390
vertex 0.064943 0.037495 0.099299
vertex 0.068857 0.029702 0.099299
endloop
endfacet
facet normal 0.987764 0.071697 0.138502
outer loop
vertex 0.094023 0.005088 0.022301
vertex 0.094929 0.001919 0.017480
vertex 0.094093 0.012919 0.017748
endloop
endfacet
facet normal 0.997070 0.075476 0.012404
outer loop
vertex 0.094895 0.005241 0.000000
vertex 0.094093 0.012919 0.017748
vertex 0.094929 0.001919 0.017480
endloop
endfacet
facet normal 0.993430 0.114348 -0.004578
outer loop
vertex 0.093688 0.015727 0.000000
vertex 0.094093 0.012919 0.017748
vertex 0.094895 0.005241 0.000000
endloop
endfacet
facet normal 0.971640 0.112302 0.208097
outer loop
vertex 0.094093 0.012919 0.017748
vertex 0.092833 0.015684 0.022139
vertex 0.094023 0.005088 0.022301
endloop
endfacet
facet normal 0.964058 0.111954 0.240952
outer loop
vertex 0.074863 0.004360 0.099299
vertex 0.094023 0.005088 0.022301
vertex 0.092833 0.015684 0.022139
endloop
endfacet
facet normal 0.963962 0.112622 0.241028
outer loop
vertex 0.073851 0.013022 0.099299
vertex 0.074863 0.004360 0.099299
vertex 0.092833 0.015684 0.022139
endloop
endfacet
facet normal -0.000191 -0.999994 0.003339
outer loop
vertex 0.003673 -0.094877 0.017480
vertex -0.003280 -0.094875 0.017681
vertex -0.003510 -0.094934 0.000000
endloop
endfacet
facet normal -0.069943 -0.997542 0.004238
outer loop
vertex -0.003510 -0.094934 0.000000
vertex -0.003280 -0.094875 0.017681
vertex -0.010453 -0.094373 0.017460
endloop
endfacet
facet normal 0.003958 -0.989165 0.146754
outer loop
vertex -0.000341 -0.094175 0.022320
vertex -0.003280 -0.094875 0.017681
vertex 0.003673 -0.094877 0.017480
endloop
endfacet
facet normal -0.074447 -0.978025 0.194744
outer loop
vertex -0.010453 -0.094373 0.017460
vertex -0.003280 -0.094875 0.017681
vertex -0.000341 -0.094175 0.022320
endloop
endfacet
facet normal -0.663024 -0.748593 -0.002621
outer loop
vertex -0.061204 -0.072589 0.017481
vertex -0.066551 -0.067792 0.000000
vertex -0.058695 -0.074750 0.000000
endloop
endfacet
facet normal 0.000000 0.000000 -1.000000
outer loop
vertex -0.047044 -0.082630 0.000000
vertex -0.058695 -0.074750 0.000000
vertex -0.066551 -0.067792 0.000000
endloop
endfacet
facet normal -0.771258 -0.607918 0.188669
outer loop
vertex -0.075671 -0.057350 0.017480
vertex -0.070845 -0.062226 0.021497
vertex -0.077510 -0.053710 0.021691
endloop
endfacet
facet normal -0.757472 -0.638851 0.134557
outer loop
vertex -0.068570 -0.065716 0.017734
vertex -0.070845 -0.062226 0.021497
vertex -0.075671 -0.057350 0.017480
endloop
endfacet
facet normal -0.761887 -0.601745 0.239648
outer loop
vertex -0.077510 -0.053710 0.021691
vertex -0.070845 -0.062226 0.021497
vertex -0.060151 -0.044781 0.099299
endloop
endfacet
facet normal -0.743284 -0.623668 0.242006
outer loop
vertex -0.060151 -0.044781 0.099299
vertex -0.070845 -0.062226 0.021497
vertex -0.054546 -0.051461 0.099299
endloop
endfacet
facet normal -0.672233 -0.725822 0.145894
outer loop
vertex -0.066056 -0.067288 0.021497
vertex -0.068570 -0.065716 0.017734
vertex -0.061204 -0.072589 0.017481
endloop
endfacet
facet normal -0.654479 -0.734601 0.178937
outer loop
vertex -0.058500 -0.074053 0.021361
vertex -0.066056 -0.067288 0.021497
vertex -0.061204 -0.072589 0.017481
endloop
endfacet
facet normal -0.705184 -0.667154 0.240042
outer loop
vertex -0.070845 -0.062226 0.021497
vertex -0.066056 -0.067288 0.021497
vertex -0.054546 -0.051461 0.099299
endloop
endfacet
facet normal -0.712560 -0.674133 0.194431
outer loop
vertex -0.066056 -0.067288 0.021497
vertex -0.070845 -0.062226 0.021497
vertex -0.068570 -0.065716 0.017734
endloop
endfacet
facet normal -0.665873 -0.705703 0.242068
outer loop
vertex -0.048203 -0.057446 0.099299
vertex -0.054546 -0.051461 0.099299
vertex -0.066056 -0.067288 0.021497
endloop
endfacet
facet normal -0.645169 -0.725428 0.239812
outer loop
vertex -0.058500 -0.074053 0.021361
vertex -0.048203 -0.057446 0.099299
vertex -0.066056 -0.067288 0.021497
endloop
endfacet
facet normal -0.965586 -0.098937 0.240532
outer loop
vertex -0.092899 -0.015285 0.022402
vertex -0.074863 -0.004360 0.099299
vertex -0.094007 -0.005067 0.022157
endloop
endfacet
facet normal -0.972540 -0.100424 0.209954
outer loop
vertex -0.094007 -0.005067 0.022157
vertex -0.094519 -0.009224 0.017797
vertex -0.092899 -0.015285 0.022402
endloop
endfacet
facet normal -0.910231 0.337612 0.239786
outer loop
vertex -0.068857 0.029702 0.099299
vertex -0.085562 0.039322 0.022342
vertex -0.090500 0.026040 0.022298
endloop
endfacet
facet normal -0.918307 0.340741 0.201511
outer loop
vertex -0.087936 0.035823 0.017440
vertex -0.090500 0.026040 0.022298
vertex -0.085562 0.039322 0.022342
endloop
endfacet
facet normal -0.898638 0.416434 0.137957
outer loop
vertex -0.087936 0.035823 0.017440
vertex -0.085562 0.039322 0.022342
vertex -0.083637 0.044986 0.017784
endloop
endfacet
facet normal -0.866078 0.457147 0.202301
outer loop
vertex -0.085562 0.039322 0.022342
vertex -0.081188 0.047729 0.022070
vertex -0.083637 0.044986 0.017784
endloop
endfacet
facet normal -0.866969 0.435322 0.242609
outer loop
vertex -0.064944 0.037495 0.099299
vertex -0.085562 0.039322 0.022342
vertex -0.068857 0.029702 0.099299
endloop
endfacet
facet normal -0.857844 0.454103 0.240611
outer loop
vertex -0.081188 0.047729 0.022070
vertex -0.085562 0.039322 0.022342
vertex -0.064944 0.037495 0.099299
endloop
endfacet
facet normal -0.736923 0.631761 0.240463
outer loop
vertex -0.068497 0.064801 0.021497
vertex -0.075099 0.057156 0.021350
vertex -0.054546 0.051461 0.099299
endloop
endfacet
facet normal -0.760896 0.648868 -0.002751
outer loop
vertex -0.069010 0.065287 0.000000
vertex -0.075833 0.057286 0.000000
vertex -0.073708 0.059852 0.017480
endloop
endfacet
facet normal -0.799027 0.601230 0.008878
outer loop
vertex -0.077927 0.054245 0.017480
vertex -0.073708 0.059852 0.017480
vertex -0.075833 0.057286 0.000000
endloop
endfacet
facet normal -0.792222 0.596110 0.130525
outer loop
vertex -0.077927 0.054245 0.017480
vertex -0.075099 0.057156 0.021350
vertex -0.073708 0.059852 0.017480
endloop
endfacet
facet normal -0.746405 0.641144 0.178364
outer loop
vertex -0.068497 0.064801 0.021497
vertex -0.073708 0.059852 0.017480
vertex -0.075099 0.057156 0.021350
endloop
endfacet
facet normal -0.676648 0.711951 0.187811
outer loop
vertex -0.068497 0.064801 0.021497
vertex -0.060521 0.072396 0.021442
vertex -0.064056 0.070092 0.017440
endloop
endfacet
facet normal -0.579491 0.778479 0.241165
outer loop
vertex -0.041208 0.062653 0.099299
vertex -0.060521 0.072396 0.021442
vertex -0.048203 0.057446 0.099299
endloop
endfacet
facet normal -0.666068 0.705908 0.240929
outer loop
vertex -0.048203 0.057446 0.099299
vertex -0.060521 0.072396 0.021442
vertex -0.054546 0.051461 0.099299
endloop
endfacet
facet normal -0.668481 0.703758 0.240535
outer loop
vertex -0.068497 0.064801 0.021497
vertex -0.054546 0.051461 0.099299
vertex -0.060521 0.072396 0.021442
endloop
endfacet
facet normal 0.429711 -0.902960 0.003307
outer loop
vertex 0.043948 -0.084159 0.017599
vertex 0.037546 -0.087206 0.017504
vertex 0.043909 -0.084242 0.000000
endloop
endfacet
facet normal 0.495164 -0.868794 0.003000
outer loop
vertex 0.050123 -0.080640 0.017480
vertex 0.043948 -0.084159 0.017599
vertex 0.043909 -0.084242 0.000000
endloop
endfacet
facet normal 0.421211 -0.890380 0.172639
outer loop
vertex 0.037546 -0.087206 0.017504
vertex 0.043948 -0.084159 0.017599
vertex 0.043645 -0.083424 0.022129
endloop
endfacet
facet normal 0.487792 -0.855947 0.171504
outer loop
vertex 0.049416 -0.080142 0.022095
vertex 0.043645 -0.083424 0.022129
vertex 0.043948 -0.084159 0.017599
endloop
endfacet
facet normal 0.490567 -0.855166 0.167435
outer loop
vertex 0.049416 -0.080142 0.022095
vertex 0.043948 -0.084159 0.017599
vertex 0.050123 -0.080640 0.017480
endloop
endfacet
facet normal -0.340421 -0.909234 0.239598
outer loop
vertex -0.025648 -0.070468 0.099299
vertex -0.037253 -0.086404 0.022336
vertex -0.027698 -0.090046 0.022091
endloop
endfacet
facet normal 0.211489 -0.947732 0.238907
outer loop
vertex 0.013812 -0.093114 0.022467
vertex 0.026912 -0.090287 0.022085
vertex 0.017294 -0.072969 0.099299
endloop
endfacet
facet normal -0.143476 -0.978209 0.150072
outer loop
vertex -0.010453 -0.094373 0.017460
vertex -0.014424 -0.093031 0.022411
vertex -0.017430 -0.093313 0.017699
endloop
endfacet
facet normal -0.077999 -0.976262 0.202061
outer loop
vertex -0.000341 -0.094175 0.022320
vertex -0.014424 -0.093031 0.022411
vertex -0.010453 -0.094373 0.017460
endloop
endfacet
facet normal -0.219552 -0.954895 0.199932
outer loop
vertex -0.024230 -0.091804 0.017503
vertex -0.014424 -0.093031 0.022411
vertex -0.027698 -0.090046 0.022091
endloop
endfacet
facet normal -0.217818 -0.956070 0.196179
outer loop
vertex -0.017430 -0.093313 0.017699
vertex -0.014424 -0.093031 0.022411
vertex -0.024230 -0.091804 0.017503
endloop
endfacet
facet normal 0.309792 0.932417 0.186083
outer loop
vertex 0.024390 0.090941 0.022335
vertex 0.034097 0.087752 0.022154
vertex 0.027556 0.090866 0.017440
endloop
endfacet
facet normal 0.330345 0.930796 0.156496
outer loop
vertex 0.037159 0.087399 0.017790
vertex 0.027556 0.090866 0.017440
vertex 0.034097 0.087752 0.022154
endloop
endfacet
facet normal 0.251447 0.956492 0.147977
outer loop
vertex 0.024390 0.090941 0.022335
vertex 0.027556 0.090866 0.017440
vertex 0.020682 0.092661 0.017518
endloop
endfacet
facet normal 0.252743 0.967490 0.009120
outer loop
vertex 0.024342 0.091870 0.000000
vertex 0.020682 0.092661 0.017518
vertex 0.027556 0.090866 0.017440
endloop
endfacet
facet normal 0.312883 0.949787 -0.002983
outer loop
vertex 0.027556 0.090866 0.017440
vertex 0.034317 0.088584 0.000000
vertex 0.024342 0.091870 0.000000
endloop
endfacet
facet normal 0.339295 0.940642 0.008454
outer loop
vertex 0.034317 0.088584 0.000000
vertex 0.027556 0.090866 0.017440
vertex 0.037159 0.087399 0.017790
endloop
endfacet
facet normal 0.512731 0.858543 -0.003334
outer loop
vertex 0.043420 0.084565 0.000000
vertex 0.046824 0.082600 0.017480
vertex 0.052961 0.078867 0.000000
endloop
endfacet
facet normal 0.445044 0.895399 0.013989
outer loop
vertex 0.037159 0.087399 0.017790
vertex 0.046824 0.082600 0.017480
vertex 0.043420 0.084565 0.000000
endloop
endfacet
facet normal 0.443820 0.884578 0.143341
outer loop
vertex 0.037159 0.087399 0.017790
vertex 0.044080 0.083185 0.022366
vertex 0.046824 0.082600 0.017480
endloop
endfacet
facet normal 0.643569 0.750938 0.148028
outer loop
vertex 0.058444 0.074821 0.017518
vertex 0.063524 0.069683 0.021497
vertex 0.065952 0.068366 0.017622
endloop
endfacet
facet normal 0.665864 0.705694 0.242118
outer loop
vertex 0.054546 0.051461 0.099299
vertex 0.063524 0.069683 0.021497
vertex 0.048203 0.057446 0.099299
endloop
endfacet
facet normal 0.696566 0.688319 0.202515
outer loop
vertex 0.065952 0.068366 0.017622
vertex 0.063524 0.069683 0.021497
vertex 0.071118 0.062018 0.021429
endloop
endfacet
facet normal 0.690776 0.682251 0.239503
outer loop
vertex 0.054546 0.051461 0.099299
vertex 0.071118 0.062018 0.021429
vertex 0.063524 0.069683 0.021497
endloop
endfacet
facet normal -0.269397 0.952841 0.139711
outer loop
vertex -0.023690 0.091131 0.022308
vertex -0.021044 0.092587 0.017480
vertex -0.031623 0.089557 0.017746
endloop
endfacet
facet normal -0.275027 0.961352 0.012727
outer loop
vertex -0.021044 0.092587 0.017480
vertex -0.023737 0.092048 0.000000
vertex -0.031623 0.089557 0.017746
endloop
endfacet
facet normal -0.185389 0.982664 -0.001740
outer loop
vertex -0.023737 0.092048 0.000000
vertex -0.021044 0.092587 0.017480
vertex -0.014148 0.093888 0.017480
endloop
endfacet
facet normal -0.182728 0.968560 0.168827
outer loop
vertex -0.014148 0.093888 0.017480
vertex -0.021044 0.092587 0.017480
vertex -0.014017 0.093102 0.022131
endloop
endfacet
facet normal -0.192971 0.963635 0.184850
outer loop
vertex -0.014017 0.093102 0.022131
vertex -0.021044 0.092587 0.017480
vertex -0.023690 0.091131 0.022308
endloop
endfacet
facet normal 0.912978 0.330028 0.239901
outer loop
vertex 0.085841 0.038681 0.022390
vertex 0.071840 0.021507 0.099299
vertex 0.090694 0.025455 0.022116
endloop
endfacet
facet normal 0.919611 0.333119 0.208201
outer loop
vertex 0.085841 0.038681 0.022390
vertex 0.090694 0.025455 0.022116
vertex 0.090214 0.029552 0.017681
endloop
endfacet
facet normal 0.944105 0.223759 0.242068
outer loop
vertex 0.073851 0.013022 0.099299
vertex 0.090694 0.025455 0.022116
vertex 0.071840 0.021507 0.099299
endloop
endfacet
facet normal 0.948096 0.208116 0.240420
outer loop
vertex 0.092833 0.015684 0.022139
vertex 0.090694 0.025455 0.022116
vertex 0.073851 0.013022 0.099299
endloop
endfacet
facet normal 0.814923 0.526994 0.241203
outer loop
vertex 0.064943 0.037495 0.099299
vertex 0.081140 0.047812 0.022035
vertex 0.077295 0.054004 0.021497
endloop
endfacet
facet normal 0.859173 0.451683 0.240423
outer loop
vertex 0.085841 0.038681 0.022390
vertex 0.081140 0.047812 0.022035
vertex 0.064943 0.037495 0.099299
endloop
endfacet
facet normal 0.871501 0.455726 0.181105
outer loop
vertex 0.085841 0.038681 0.022390
vertex 0.086279 0.039708 0.017698
vertex 0.081140 0.047812 0.022035
endloop
endfacet
facet normal -0.560227 -0.828325 -0.004773
outer loop
vertex -0.047044 -0.082630 0.000000
vertex -0.055615 -0.076935 0.017681
vertex -0.058695 -0.074750 0.000000
endloop
endfacet
facet normal -0.556756 -0.830673 -0.002334
outer loop
vertex -0.049806 -0.080828 0.017518
vertex -0.055615 -0.076935 0.017681
vertex -0.047044 -0.082630 0.000000
endloop
endfacet
facet normal -0.614034 -0.789223 0.009432
outer loop
vertex -0.058695 -0.074750 0.000000
vertex -0.055615 -0.076935 0.017681
vertex -0.061204 -0.072589 0.017481
endloop
endfacet
facet normal -0.611437 -0.780254 0.131713
outer loop
vertex -0.058500 -0.074053 0.021361
vertex -0.061204 -0.072589 0.017481
vertex -0.055615 -0.076935 0.017681
endloop
endfacet
facet normal -0.559341 -0.806189 0.192866
outer loop
vertex -0.058500 -0.074053 0.021361
vertex -0.055615 -0.076935 0.017681
vertex -0.049638 -0.080169 0.021497
endloop
endfacet
facet normal -0.546521 -0.822166 0.159242
outer loop
vertex -0.049806 -0.080828 0.017518
vertex -0.049638 -0.080169 0.021497
vertex -0.055615 -0.076935 0.017681
endloop
endfacet
facet normal -0.358208 -0.933596 0.009258
outer loop
vertex -0.037397 -0.087273 0.017481
vertex -0.034359 -0.088612 0.000000
vertex -0.030853 -0.089783 0.017567
endloop
endfacet
facet normal -0.426526 -0.904462 -0.004846
outer loop
vertex -0.034359 -0.088612 0.000000
vertex -0.037397 -0.087273 0.017481
vertex -0.047044 -0.082630 0.000000
endloop
endfacet
facet normal -0.354599 -0.918511 0.174917
outer loop
vertex -0.037253 -0.086404 0.022336
vertex -0.037397 -0.087273 0.017481
vertex -0.030853 -0.089783 0.017567
endloop
endfacet
facet normal 0.000000 0.000000 -1.000000
outer loop
vertex -0.014534 -0.093940 0.000000
vertex -0.024305 -0.091837 0.000000
vertex -0.047044 -0.082630 0.000000
endloop
endfacet
facet normal 0.000000 0.000000 -1.000000
outer loop
vertex -0.047044 -0.082630 0.000000
vertex -0.024305 -0.091837 0.000000
vertex -0.034359 -0.088612 0.000000
endloop
endfacet
facet normal -0.210411 -0.977613 0.000204
outer loop
vertex -0.014534 -0.093940 0.000000
vertex -0.017430 -0.093313 0.017699
vertex -0.024305 -0.091837 0.000000
endloop
endfacet
facet normal -0.216717 -0.976231 0.002768
outer loop
vertex -0.024230 -0.091804 0.017503
vertex -0.024305 -0.091837 0.000000
vertex -0.017430 -0.093313 0.017699
endloop
endfacet
facet normal -0.291834 -0.956464 0.003054
outer loop
vertex -0.024230 -0.091804 0.017503
vertex -0.030853 -0.089783 0.017567
vertex -0.024305 -0.091837 0.000000
endloop
endfacet
facet normal -0.305438 -0.952209 -0.002514
outer loop
vertex -0.034359 -0.088612 0.000000
vertex -0.024305 -0.091837 0.000000
vertex -0.030853 -0.089783 0.017567
endloop
endfacet
facet normal -0.943655 -0.227856 0.239993
outer loop
vertex -0.092899 -0.015285 0.022402
vertex -0.089664 -0.028788 0.022302
vertex -0.071840 -0.021507 0.099299
endloop
endfacet
facet normal -0.911654 -0.331844 0.242418
outer loop
vertex -0.071840 -0.021507 0.099299
vertex -0.089664 -0.028788 0.022302
vertex -0.068857 -0.029702 0.099299
endloop
endfacet
facet normal -0.899875 -0.364937 0.238842
outer loop
vertex -0.089664 -0.028788 0.022302
vertex -0.084564 -0.041568 0.021990
vertex -0.068857 -0.029702 0.099299
endloop
endfacet
facet normal -0.977938 -0.154884 0.140175
outer loop
vertex -0.094519 -0.009224 0.017797
vertex -0.092984 -0.019221 0.017460
vertex -0.092899 -0.015285 0.022402
endloop
endfacet
facet normal -0.952630 -0.229704 0.199329
outer loop
vertex -0.089664 -0.028788 0.022302
vertex -0.092899 -0.015285 0.022402
vertex -0.092984 -0.019221 0.017460
endloop
endfacet
facet normal -0.952862 -0.231278 0.196380
outer loop
vertex -0.089664 -0.028788 0.022302
vertex -0.092984 -0.019221 0.017460
vertex -0.091245 -0.026198 0.017681
endloop
endfacet
facet normal -0.988265 -0.152186 0.013077
outer loop
vertex -0.092984 -0.019221 0.017460
vertex -0.094519 -0.009224 0.017797
vertex -0.093823 -0.015273 0.000000
endloop
endfacet
facet normal -0.974861 -0.222787 -0.003531
outer loop
vertex -0.091372 -0.025998 0.000000
vertex -0.092984 -0.019221 0.017460
vertex -0.093823 -0.015273 0.000000
endloop
endfacet
facet normal -0.970337 -0.241720 0.004235
outer loop
vertex -0.091245 -0.026198 0.017681
vertex -0.092984 -0.019221 0.017460
vertex -0.091372 -0.025998 0.000000
endloop
endfacet
facet normal -0.978392 0.136632 0.155178
outer loop
vertex -0.093108 0.018725 0.017765
vertex -0.094538 0.008778 0.017507
vertex -0.092867 0.015483 0.022139
endloop
endfacet
facet normal -0.989795 0.141980 0.012162
outer loop
vertex -0.094341 0.011651 0.000000
vertex -0.094538 0.008778 0.017507
vertex -0.093108 0.018725 0.017765
endloop
endfacet
facet normal -0.970532 0.000000 0.240974
outer loop
vertex -0.074863 -0.004360 0.099299
vertex -0.074863 0.004360 0.099299
vertex -0.094005 0.005692 0.022204
endloop
endfacet
facet normal -0.970558 -0.000872 0.240867
outer loop
vertex -0.094007 -0.005067 0.022157
vertex -0.074863 -0.004360 0.099299
vertex -0.094005 0.005692 0.022204
endloop
endfacet
facet normal -0.975825 0.114654 0.186063
outer loop
vertex -0.094538 0.008778 0.017507
vertex -0.094005 0.005692 0.022204
vertex -0.092867 0.015483 0.022139
endloop
endfacet
facet normal -0.963901 0.112614 0.241274
outer loop
vertex -0.073851 0.013022 0.099299
vertex -0.094005 0.005692 0.022204
vertex -0.074863 0.004360 0.099299
endloop
endfacet
facet normal -0.963812 0.113626 0.241155
outer loop
vertex -0.092867 0.015483 0.022139
vertex -0.094005 0.005692 0.022204
vertex -0.073851 0.013022 0.099299
endloop
endfacet
facet normal -0.703906 0.710280 0.004257
outer loop
vertex -0.069010 0.065287 0.000000
vertex -0.069118 0.065074 0.017681
vertex -0.064056 0.070092 0.017440
endloop
endfacet
facet normal -0.751155 0.660117 0.003363
outer loop
vertex -0.073708 0.059852 0.017480
vertex -0.069118 0.065074 0.017681
vertex -0.069010 0.065287 0.000000
endloop
endfacet
facet normal -0.690700 0.704576 0.162810
outer loop
vertex -0.068497 0.064801 0.021497
vertex -0.064056 0.070092 0.017440
vertex -0.069118 0.065074 0.017681
endloop
endfacet
facet normal -0.743691 0.647244 0.167332
outer loop
vertex -0.073708 0.059852 0.017480
vertex -0.068497 0.064801 0.021497
vertex -0.069118 0.065074 0.017681
endloop
endfacet
facet normal -0.641104 0.756202 0.130936
outer loop
vertex -0.060521 0.072396 0.021442
vertex -0.058622 0.074679 0.017555
vertex -0.064056 0.070092 0.017440
endloop
endfacet
facet normal -0.645126 0.764022 0.009110
outer loop
vertex -0.064056 0.070092 0.017440
vertex -0.058622 0.074679 0.017555
vertex -0.061396 0.072546 0.000000
endloop
endfacet
facet normal -0.599619 0.800282 -0.002488
outer loop
vertex -0.061396 0.072546 0.000000
vertex -0.058622 0.074679 0.017555
vertex -0.052961 0.078866 0.000000
endloop
endfacet
facet normal -0.578732 0.815480 0.007873
outer loop
vertex -0.052961 0.078866 0.000000
vertex -0.058622 0.074679 0.017555
vertex -0.050512 0.080433 0.017713
endloop
endfacet
facet normal -0.578265 0.779446 0.240983
outer loop
vertex -0.060521 0.072396 0.021442
vertex -0.041208 0.062653 0.099299
vertex -0.052567 0.078280 0.021497
endloop
endfacet
facet normal -0.574310 0.805443 0.146386
outer loop
vertex -0.058622 0.074679 0.017555
vertex -0.052567 0.078280 0.021497
vertex -0.050512 0.080433 0.017713
endloop
endfacet
facet normal -0.586012 0.790509 0.178005
outer loop
vertex -0.058622 0.074679 0.017555
vertex -0.060521 0.072396 0.021442
vertex -0.052567 0.078280 0.021497
endloop
endfacet
facet normal -0.511030 0.825270 0.240370
outer loop
vertex -0.041208 0.062653 0.099299
vertex -0.046196 0.082055 0.022081
vertex -0.052567 0.078280 0.021497
endloop
endfacet
facet normal -0.513084 0.835490 0.196726
outer loop
vertex -0.050512 0.080433 0.017713
vertex -0.052567 0.078280 0.021497
vertex -0.046196 0.082055 0.022081
endloop
endfacet
facet normal 0.544345 -0.821041 0.171990
outer loop
vertex 0.050123 -0.080640 0.017480
vertex 0.055424 -0.076284 0.021497
vertex 0.049416 -0.080142 0.022095
endloop
endfacet
facet normal 0.541335 -0.805800 0.240089
outer loop
vertex 0.049416 -0.080142 0.022095
vertex 0.055424 -0.076284 0.021497
vertex 0.041208 -0.062653 0.099299
endloop
endfacet
facet normal 0.599232 -0.763596 0.240504
outer loop
vertex 0.048203 -0.057446 0.099299
vertex 0.055424 -0.076284 0.021497
vertex 0.060906 -0.071982 0.021497
endloop
endfacet
facet normal 0.579336 -0.778270 0.242210
outer loop
vertex 0.041208 -0.062653 0.099299
vertex 0.055424 -0.076284 0.021497
vertex 0.048203 -0.057446 0.099299
endloop
endfacet
facet normal 0.000000 0.000000 1.000000
outer loop
vertex -0.041208 -0.062653 0.099299
vertex -0.033656 -0.067014 0.099299
vertex 0.064944 -0.037495 0.099299
endloop
endfacet
facet normal -0.000001 0.000000 1.000000
outer loop
vertex -0.025648 -0.070468 0.099299
vertex 0.064944 -0.037495 0.099299
vertex -0.033656 -0.067014 0.099299
endloop
endfacet
facet normal -0.485240 -0.840295 0.241757
outer loop
vertex -0.033656 -0.067014 0.099299
vertex -0.041208 -0.062653 0.099299
vertex -0.049638 -0.080169 0.021497
endloop
endfacet
facet normal -0.481833 -0.842354 0.241405
outer loop
vertex -0.043479 -0.083506 0.022146
vertex -0.033656 -0.067014 0.099299
vertex -0.049638 -0.080169 0.021497
endloop
endfacet
facet normal -0.384238 -0.890845 0.242397
outer loop
vertex -0.025648 -0.070468 0.099299
vertex -0.033656 -0.067014 0.099299
vertex -0.037253 -0.086404 0.022336
endloop
endfacet
facet normal -0.415635 -0.877180 0.240422
outer loop
vertex -0.043479 -0.083506 0.022146
vertex -0.037253 -0.086404 0.022336
vertex -0.033656 -0.067014 0.099299
endloop
endfacet
facet normal 0.000001 0.000000 1.000000
outer loop
vertex -0.025648 -0.070468 0.099299
vertex -0.017294 -0.072969 0.099299
vertex 0.064944 -0.037495 0.099299
endloop
endfacet
facet normal -0.278202 -0.929270 0.243026
outer loop
vertex -0.027698 -0.090046 0.022091
vertex -0.017294 -0.072969 0.099299
vertex -0.025648 -0.070468 0.099299
endloop
endfacet
facet normal -0.218527 -0.946180 0.238725
outer loop
vertex -0.014424 -0.093031 0.022411
vertex -0.017294 -0.072969 0.099299
vertex -0.027698 -0.090046 0.022091
endloop
endfacet
facet normal -0.000003 0.000000 1.000000
outer loop
vertex 0.017294 -0.072969 0.099299
vertex 0.025648 -0.070468 0.099299
vertex 0.064944 -0.037495 0.099299
endloop
endfacet
facet normal 0.335710 -0.911051 0.239341
outer loop
vertex 0.037160 -0.086428 0.022400
vertex 0.025648 -0.070468 0.099299
vertex 0.026912 -0.090287 0.022085
endloop
endfacet
facet normal 0.278199 -0.929258 0.243072
outer loop
vertex 0.025648 -0.070468 0.099299
vertex 0.017294 -0.072969 0.099299
vertex 0.026912 -0.090287 0.022085
endloop
endfacet
facet normal 0.000000 0.000000 1.000000
outer loop
vertex 0.000000 -0.074990 0.099299
vertex 0.008706 -0.074483 0.099299
vertex 0.064944 -0.037495 0.099299
endloop
endfacet
facet normal 0.000000 0.000000 1.000000
outer loop
vertex 0.064944 -0.037495 0.099299
vertex 0.008706 -0.074483 0.099299
vertex 0.017294 -0.072969 0.099299
endloop
endfacet
facet normal 0.168418 -0.955332 0.242851
outer loop
vertex 0.017294 -0.072969 0.099299
vertex 0.008706 -0.074483 0.099299
vertex 0.013812 -0.093114 0.022467
endloop
endfacet
facet normal 0.070108 -0.968367 0.239479
outer loop
vertex 0.013812 -0.093114 0.022467
vertex 0.008706 -0.074483 0.099299
vertex -0.000341 -0.094175 0.022320
endloop
endfacet
facet normal 0.056420 -0.968832 0.241206
outer loop
vertex -0.000341 -0.094175 0.022320
vertex 0.008706 -0.074483 0.099299
vertex 0.000000 -0.074990 0.099299
endloop
endfacet
facet normal 0.584829 0.811146 0.004297
outer loop
vertex 0.052961 0.078867 0.000000
vertex 0.052734 0.078937 0.017681
vertex 0.058444 0.074821 0.017518
endloop
endfacet
facet normal 0.526728 0.850027 0.003397
outer loop
vertex 0.046824 0.082600 0.017480
vertex 0.052734 0.078937 0.017681
vertex 0.052961 0.078867 0.000000
endloop
endfacet
facet normal 0.627014 0.741105 0.240037
outer loop
vertex 0.063524 0.069683 0.021497
vertex 0.058204 0.074184 0.021497
vertex 0.048203 0.057446 0.099299
endloop
endfacet
facet normal 0.637668 0.753697 0.159124
outer loop
vertex 0.058444 0.074821 0.017518
vertex 0.058204 0.074184 0.021497
vertex 0.063524 0.069683 0.021497
endloop
endfacet
facet normal 0.579378 0.778328 0.241922
outer loop
vertex 0.041208 0.062653 0.099299
vertex 0.048203 0.057446 0.099299
vertex 0.058204 0.074184 0.021497
endloop
endfacet
facet normal 0.580009 0.798184 0.162765
outer loop
vertex 0.052734 0.078937 0.017681
vertex 0.058204 0.074184 0.021497
vertex 0.058444 0.074821 0.017518
endloop
endfacet
facet normal 0.968691 0.192553 0.156718
outer loop
vertex 0.094093 0.012919 0.017748
vertex 0.092182 0.022751 0.017480
vertex 0.092833 0.015684 0.022139
endloop
endfacet
facet normal 0.959864 0.210562 0.185271
outer loop
vertex 0.092833 0.015684 0.022139
vertex 0.092182 0.022751 0.017480
vertex 0.090694 0.025455 0.022116
endloop
endfacet
facet normal 0.951265 0.270915 0.147311
outer loop
vertex 0.090694 0.025455 0.022116
vertex 0.092182 0.022751 0.017480
vertex 0.090214 0.029552 0.017681
endloop
endfacet
facet normal 0.960623 0.277694 0.009436
outer loop
vertex 0.090214 0.029552 0.017681
vertex 0.092182 0.022751 0.017480
vertex 0.091422 0.025974 0.000000
endloop
endfacet
facet normal 0.976407 0.215922 -0.002641
outer loop
vertex 0.093688 0.015727 0.000000
vertex 0.091422 0.025974 0.000000
vertex 0.092182 0.022751 0.017480
endloop
endfacet
facet normal 0.981560 0.190994 0.007820
outer loop
vertex 0.093688 0.015727 0.000000
vertex 0.092182 0.022751 0.017480
vertex 0.094093 0.012919 0.017748
endloop
endfacet
facet normal 0.870254 0.465286 0.161761
outer loop
vertex 0.081552 0.048625 0.017480
vertex 0.081140 0.047812 0.022035
vertex 0.086279 0.039708 0.017698
endloop
endfacet
facet normal 0.838561 0.544729 0.009230
outer loop
vertex 0.077734 0.054501 0.017567
vertex 0.081552 0.048625 0.017480
vertex 0.079882 0.051492 0.000000
endloop
endfacet
facet normal 0.828765 0.536123 0.160379
outer loop
vertex 0.077734 0.054501 0.017567
vertex 0.077295 0.054004 0.021497
vertex 0.081552 0.048625 0.017480
endloop
endfacet
facet normal 0.830519 0.530477 0.169803
outer loop
vertex 0.081140 0.047812 0.022035
vertex 0.081552 0.048625 0.017480
vertex 0.077295 0.054004 0.021497
endloop
endfacet
facet normal 0.876695 0.481023 -0.004862
outer loop
vertex 0.079882 0.051492 0.000000
vertex 0.081552 0.048625 0.017480
vertex 0.086628 0.039197 0.000000
endloop
endfacet
facet normal 0.883486 0.468442 0.003897
outer loop
vertex 0.086279 0.039708 0.017698
vertex 0.086628 0.039197 0.000000
vertex 0.081552 0.048625 0.017480
endloop
endfacet
facet normal -0.491688 -0.870688 0.012041
outer loop
vertex -0.047044 -0.082630 0.000000
vertex -0.043675 -0.084288 0.017681
vertex -0.049806 -0.080828 0.017518
endloop
endfacet
facet normal -0.429475 -0.903074 -0.002850
outer loop
vertex -0.037397 -0.087273 0.017481
vertex -0.043675 -0.084288 0.017681
vertex -0.047044 -0.082630 0.000000
endloop
endfacet
facet normal -0.488214 -0.857439 0.162620
outer loop
vertex -0.049806 -0.080828 0.017518
vertex -0.043675 -0.084288 0.017681
vertex -0.049638 -0.080169 0.021497
endloop
endfacet
facet normal -0.483231 -0.858516 0.171576
outer loop
vertex -0.049638 -0.080169 0.021497
vertex -0.043675 -0.084288 0.017681
vertex -0.043479 -0.083506 0.022146
endloop
endfacet
facet normal -0.419893 -0.890656 0.174421
outer loop
vertex -0.043479 -0.083506 0.022146
vertex -0.043675 -0.084288 0.017681
vertex -0.037253 -0.086404 0.022336
endloop
endfacet
facet normal -0.418525 -0.891763 0.172031
outer loop
vertex -0.043675 -0.084288 0.017681
vertex -0.037397 -0.087273 0.017481
vertex -0.037253 -0.086404 0.022336
endloop
endfacet
facet normal -0.908349 -0.373217 0.188711
outer loop
vertex -0.084564 -0.041568 0.021990
vertex -0.089099 -0.032811 0.017480
vertex -0.086432 -0.039302 0.017480
endloop
endfacet
facet normal -0.908310 -0.367357 0.200057
outer loop
vertex -0.089664 -0.028788 0.022302
vertex -0.089099 -0.032811 0.017480
vertex -0.084564 -0.041568 0.021990
endloop
endfacet
facet normal -0.939364 -0.309333 0.148012
outer loop
vertex -0.091245 -0.026198 0.017681
vertex -0.089099 -0.032811 0.017480
vertex -0.089664 -0.028788 0.022302
endloop
endfacet
facet normal -0.924931 -0.380031 0.008854
outer loop
vertex -0.089099 -0.032811 0.017480
vertex -0.087977 -0.035949 0.000000
vertex -0.086432 -0.039302 0.017480
endloop
endfacet
facet normal -0.946430 -0.322896 -0.002783
outer loop
vertex -0.089099 -0.032811 0.017480
vertex -0.091372 -0.025998 0.000000
vertex -0.087977 -0.035949 0.000000
endloop
endfacet
facet normal -0.951135 -0.308756 0.003339
outer loop
vertex -0.091372 -0.025998 0.000000
vertex -0.089099 -0.032811 0.017480
vertex -0.091245 -0.026198 0.017681
endloop
endfacet
facet normal -0.988490 -0.033086 0.147624
outer loop
vertex -0.094007 -0.005067 0.022157
vertex -0.094935 0.001701 0.017460
vertex -0.094519 -0.009224 0.017797
endloop
endfacet
facet normal -0.981216 -0.000660 0.192910
outer loop
vertex -0.094005 0.005692 0.022204
vertex -0.094935 0.001701 0.017460
vertex -0.094007 -0.005067 0.022157
endloop
endfacet
facet normal -0.987517 0.054415 0.147812
outer loop
vertex -0.094538 0.008778 0.017507
vertex -0.094935 0.001701 0.017460
vertex -0.094005 0.005692 0.022204
endloop
endfacet
facet normal -0.999213 -0.037665 0.012446
outer loop
vertex -0.094519 -0.009224 0.017797
vertex -0.094935 0.001701 0.017460
vertex -0.095023 -0.001734 0.000000
endloop
endfacet
facet normal -0.998692 0.050886 -0.004978
outer loop
vertex -0.095023 -0.001734 0.000000
vertex -0.094935 0.001701 0.017460
vertex -0.094341 0.011651 0.000000
endloop
endfacet
facet normal -0.998427 0.056023 -0.002041
outer loop
vertex -0.094935 0.001701 0.017460
vertex -0.094538 0.008778 0.017507
vertex -0.094341 0.011651 0.000000
endloop
endfacet
facet normal 0.549773 -0.819274 0.162912
outer loop
vertex 0.055984 -0.076667 0.017681
vertex 0.055424 -0.076284 0.021497
vertex 0.050123 -0.080640 0.017480
endloop
endfacet
facet normal 0.560857 -0.827859 0.009421
outer loop
vertex 0.052954 -0.078921 0.000000
vertex 0.055984 -0.076667 0.017681
vertex 0.050123 -0.080640 0.017480
endloop
endfacet
facet normal 0.625921 -0.768012 0.135578
outer loop
vertex 0.060906 -0.071982 0.021497
vertex 0.055984 -0.076667 0.017681
vertex 0.064358 -0.069855 0.017609
endloop
endfacet
facet normal 0.608666 -0.775616 0.167168
outer loop
vertex 0.055424 -0.076284 0.021497
vertex 0.055984 -0.076667 0.017681
vertex 0.060906 -0.071982 0.021497
endloop
endfacet
facet normal 0.631067 -0.775695 0.007225
outer loop
vertex 0.055984 -0.076667 0.017681
vertex 0.064079 -0.070246 0.000000
vertex 0.064358 -0.069855 0.017609
endloop
endfacet
facet normal 0.614914 -0.788579 -0.004849
outer loop
vertex 0.064079 -0.070246 0.000000
vertex 0.055984 -0.076667 0.017681
vertex 0.052954 -0.078921 0.000000
endloop
endfacet
facet normal 0.000000 0.000000 1.000000
outer loop
vertex 0.000000 -0.074990 0.099299
vertex 0.064944 -0.037495 0.099299
vertex -0.008706 -0.074483 0.099299
endloop
endfacet
facet normal 0.000000 0.000000 1.000000
outer loop
vertex -0.017294 -0.072969 0.099299
vertex -0.008706 -0.074483 0.099299
vertex 0.064944 -0.037495 0.099299
endloop
endfacet
facet normal -0.168413 -0.955301 0.242976
outer loop
vertex -0.014424 -0.093031 0.022411
vertex -0.008706 -0.074483 0.099299
vertex -0.017294 -0.072969 0.099299
endloop
endfacet
facet normal -0.056413 -0.968716 0.241677
outer loop
vertex 0.000000 -0.074990 0.099299
vertex -0.008706 -0.074483 0.099299
vertex -0.000341 -0.094175 0.022320
endloop
endfacet
facet normal -0.077080 -0.967900 0.239223
outer loop
vertex -0.008706 -0.074483 0.099299
vertex -0.014424 -0.093031 0.022411
vertex -0.000341 -0.094175 0.022320
endloop
endfacet
facet normal 0.000000 0.000000 1.000000
outer loop
vertex 0.033656 -0.067014 0.099299
vertex 0.041208 -0.062653 0.099299
vertex 0.064944 -0.037495 0.099299
endloop
endfacet
facet normal 0.000004 0.000000 1.000000
outer loop
vertex 0.025648 -0.070468 0.099299
vertex 0.033656 -0.067014 0.099299
vertex 0.064944 -0.037495 0.099299
endloop
endfacet
facet normal 0.480799 -0.842923 0.241481
outer loop
vertex 0.049416 -0.080142 0.022095
vertex 0.033656 -0.067014 0.099299
vertex 0.043645 -0.083424 0.022129
endloop
endfacet
facet normal 0.485219 -0.840258 0.241930
outer loop
vertex 0.041208 -0.062653 0.099299
vertex 0.033656 -0.067014 0.099299
vertex 0.049416 -0.080142 0.022095
endloop
endfacet
facet normal 0.416249 -0.876908 0.240352
outer loop
vertex 0.043645 -0.083424 0.022129
vertex 0.033656 -0.067014 0.099299
vertex 0.037160 -0.086428 0.022400
endloop
endfacet
facet normal 0.384237 -0.890842 0.242411
outer loop
vertex 0.033656 -0.067014 0.099299
vertex 0.025648 -0.070468 0.099299
vertex 0.037160 -0.086428 0.022400
endloop
endfacet
facet normal 0.579988 0.798191 0.162806
outer loop
vertex 0.052567 0.078280 0.021497
vertex 0.058204 0.074184 0.021497
vertex 0.052734 0.078937 0.017681
endloop
endfacet
facet normal 0.570505 0.785141 0.240994
outer loop
vertex 0.058204 0.074184 0.021497
vertex 0.052567 0.078280 0.021497
vertex 0.041208 0.062653 0.099299
endloop
endfacet
facet normal 0.504053 0.829593 0.240220
outer loop
vertex 0.041208 0.062653 0.099299
vertex 0.052567 0.078280 0.021497
vertex 0.044080 0.083185 0.022366
endloop
endfacet
facet normal 0.505910 0.842907 0.183202
outer loop
vertex 0.046824 0.082600 0.017480
vertex 0.044080 0.083185 0.022366
vertex 0.052567 0.078280 0.021497
endloop
endfacet
facet normal 0.515276 0.840543 0.167267
outer loop
vertex 0.052734 0.078937 0.017681
vertex 0.046824 0.082600 0.017480
vertex 0.052567 0.078280 0.021497
endloop
endfacet
endsolid Exported from Blender-3.4.1
