solid Exported from Blender-3.4.1
facet normal 0.000000 0.000000 1.000000
outer loop
vertex 0.045000 0.052000 0.061250
vertex -0.045000 0.052000 0.061250
vertex -0.045000 -0.052000 0.061250
endloop
endfacet
facet normal 0.000000 0.000000 1.000000
outer loop
vertex 0.045000 0.052000 0.061250
vertex -0.045000 -0.052000 0.061250
vertex 0.045000 -0.052000 0.061250
endloop
endfacet
facet normal 0.000000 -1.000000 0.000000
outer loop
vertex 0.045000 -0.052000 -0.061250
vertex 0.045000 -0.052000 0.061250
vertex -0.045000 -0.052000 0.061250
endloop
endfacet
facet normal 0.000000 -1.000000 0.000000
outer loop
vertex 0.045000 -0.052000 -0.061250
vertex -0.045000 -0.052000 0.061250
vertex -0.045000 -0.052000 -0.061250
endloop
endfacet
facet normal -1.000000 0.000000 0.000000
outer loop
vertex -0.045000 -0.052000 -0.061250
vertex -0.045000 -0.052000 0.061250
vertex -0.045000 0.052000 0.061250
endloop
endfacet
facet normal -1.000000 0.000000 0.000000
outer loop
vertex -0.045000 -0.052000 -0.061250
vertex -0.045000 0.052000 0.061250
vertex -0.045000 0.052000 -0.061250
endloop
endfacet
facet normal 0.000000 0.000000 -1.000000
outer loop
vertex -0.045000 0.052000 -0.061250
vertex 0.045000 0.052000 -0.061250
vertex 0.045000 -0.052000 -0.061250
endloop
endfacet
facet normal 0.000000 0.000000 -1.000000
outer loop
vertex -0.045000 0.052000 -0.061250
vertex 0.045000 -0.052000 -0.061250
vertex -0.045000 -0.052000 -0.061250
endloop
endfacet
facet normal 1.000000 0.000000 0.000000
outer loop
vertex 0.045000 0.052000 -0.061250
vertex 0.045000 0.052000 0.061250
vertex 0.045000 -0.052000 0.061250
endloop
endfacet
facet normal 1.000000 0.000000 0.000000
outer loop
vertex 0.045000 0.052000 -0.061250
vertex 0.045000 -0.052000 0.061250
vertex 0.045000 -0.052000 -0.061250
endloop
endfacet
facet normal 0.000000 1.000000 0.000000
outer loop
vertex -0.045000 0.052000 -0.061250
vertex -0.045000 0.052000 0.061250
vertex 0.045000 0.052000 0.061250
endloop
endfacet
facet normal 0.000000 1.000000 0.000000
outer loop
vertex -0.045000 0.052000 -0.061250
vertex 0.045000 0.052000 0.061250
vertex 0.045000 0.052000 -0.061250
endloop
endfacet
endsolid Exported from Blender-3.4.1
