solid Exported from Blender-3.4.1
facet normal 0.000000 0.000000 1.000000
outer loop
vertex 0.013000 0.051500 0.019500
vertex -0.013000 0.051500 0.019500
vertex -0.013000 -0.051500 0.019500
endloop
endfacet
facet normal 0.000000 0.000000 1.000000
outer loop
vertex 0.013000 0.051500 0.019500
vertex -0.013000 -0.051500 0.019500
vertex 0.013000 -0.051500 0.019500
endloop
endfacet
facet normal 0.000000 -1.000000 0.000000
outer loop
vertex 0.013000 -0.051500 -0.019500
vertex 0.013000 -0.051500 0.019500
vertex -0.013000 -0.051500 0.019500
endloop
endfacet
facet normal 0.000000 -1.000000 0.000000
outer loop
vertex 0.013000 -0.051500 -0.019500
vertex -0.013000 -0.051500 0.019500
vertex -0.013000 -0.051500 -0.019500
endloop
endfacet
facet normal -1.000000 0.000000 0.000000
outer loop
vertex -0.013000 -0.051500 -0.019500
vertex -0.013000 -0.051500 0.019500
vertex -0.013000 0.051500 0.019500
endloop
endfacet
facet normal -1.000000 0.000000 0.000000
outer loop
vertex -0.013000 -0.051500 -0.019500
vertex -0.013000 0.051500 0.019500
vertex -0.013000 0.051500 -0.019500
endloop
endfacet
facet normal 0.000000 0.000000 -1.000000
outer loop
vertex -0.013000 0.051500 -0.019500
vertex 0.013000 0.051500 -0.019500
vertex 0.013000 -0.051500 -0.019500
endloop
endfacet
facet normal 0.000000 0.000000 -1.000000
outer loop
vertex -0.013000 0.051500 -0.019500
vertex 0.013000 -0.051500 -0.019500
vertex -0.013000 -0.051500 -0.019500
endloop
endfacet
facet normal 1.000000 0.000000 0.000000
outer loop
vertex 0.013000 0.051500 -0.019500
vertex 0.013000 0.051500 0.019500
vertex 0.013000 -0.051500 0.019500
endloop
endfacet
facet normal 1.000000 0.000000 0.000000
outer loop
vertex 0.013000 0.051500 -0.019500
vertex 0.013000 -0.051500 0.019500
vertex 0.013000 -0.051500 -0.019500
endloop
endfacet
facet normal 0.000000 1.000000 0.000000
outer loop
vertex -0.013000 0.051500 -0.019500
vertex -0.013000 0.051500 0.019500
vertex 0.013000 0.051500 0.019500
endloop
endfacet
facet normal 0.000000 1.000000 0.000000
outer loop
vertex -0.013000 0.051500 -0.019500
vertex 0.013000 0.051500 0.019500
vertex 0.013000 0.051500 -0.019500
endloop
endfacet
endsolid Exported from Blender-3.4.1
