solid Exported from Blender-3.4.1
facet normal 0.000000 0.000000 1.000000
outer loop
vertex 0.363000 0.112500 0.045000
vertex -0.363000 0.112500 0.045000
vertex -0.363000 -0.112500 0.045000
endloop
endfacet
facet normal 0.000000 0.000000 1.000000
outer loop
vertex 0.363000 0.112500 0.045000
vertex -0.363000 -0.112500 0.045000
vertex 0.363000 -0.112500 0.045000
endloop
endfacet
facet normal 0.000000 -1.000000 0.000000
outer loop
vertex 0.363000 -0.112500 -0.045000
vertex 0.363000 -0.112500 0.045000
vertex -0.363000 -0.112500 0.045000
endloop
endfacet
facet normal 0.000000 -1.000000 0.000000
outer loop
vertex 0.363000 -0.112500 -0.045000
vertex -0.363000 -0.112500 0.045000
vertex -0.363000 -0.112500 -0.045000
endloop
endfacet
facet normal -1.000000 0.000000 0.000000
outer loop
vertex -0.363000 -0.112500 -0.045000
vertex -0.363000 -0.112500 0.045000
vertex -0.363000 0.112500 0.045000
endloop
endfacet
facet normal -1.000000 0.000000 0.000000
outer loop
vertex -0.363000 -0.112500 -0.045000
vertex -0.363000 0.112500 0.045000
vertex -0.363000 0.112500 -0.045000
endloop
endfacet
facet normal 0.000000 0.000000 -1.000000
outer loop
vertex -0.363000 0.112500 -0.045000
vertex 0.363000 0.112500 -0.045000
vertex 0.363000 -0.112500 -0.045000
endloop
endfacet
facet normal 0.000000 0.000000 -1.000000
outer loop
vertex -0.363000 0.112500 -0.045000
vertex 0.363000 -0.112500 -0.045000
vertex -0.363000 -0.112500 -0.045000
endloop
endfacet
facet normal 1.000000 0.000000 0.000000
outer loop
vertex 0.363000 0.112500 -0.045000
vertex 0.363000 0.112500 0.045000
vertex 0.363000 -0.112500 0.045000
endloop
endfacet
facet normal 1.000000 0.000000 0.000000
outer loop
vertex 0.363000 0.112500 -0.045000
vertex 0.363000 -0.112500 0.045000
vertex 0.363000 -0.112500 -0.045000
endloop
endfacet
facet normal 0.000000 1.000000 0.000000
outer loop
vertex -0.363000 0.112500 -0.045000
vertex -0.363000 0.112500 0.045000
vertex 0.363000 0.112500 0.045000
endloop
endfacet
facet normal 0.000000 1.000000 0.000000
outer loop
vertex -0.363000 0.112500 -0.045000
vertex 0.363000 0.112500 0.045000
vertex 0.363000 0.112500 -0.045000
endloop
endfacet
endsolid Exported from Blender-3.4.1
