solid Exported from Blender-3.4.1
facet normal 0.000000 0.000000 1.000000
outer loop
vertex 0.292500 0.030100 0.179000
vertex -0.292500 0.030100 0.179000
vertex -0.292500 -0.030100 0.179000
endloop
endfacet
facet normal 0.000000 0.000000 1.000000
outer loop
vertex 0.292500 0.030100 0.179000
vertex -0.292500 -0.030100 0.179000
vertex 0.292500 -0.030100 0.179000
endloop
endfacet
facet normal 0.000000 -1.000000 0.000000
outer loop
vertex 0.292500 -0.030100 -0.179000
vertex 0.292500 -0.030100 0.179000
vertex -0.292500 -0.030100 0.179000
endloop
endfacet
facet normal 0.000000 -1.000000 0.000000
outer loop
vertex 0.292500 -0.030100 -0.179000
vertex -0.292500 -0.030100 0.179000
vertex -0.292500 -0.030100 -0.179000
endloop
endfacet
facet normal -1.000000 0.000000 0.000000
outer loop
vertex -0.292500 -0.030100 -0.179000
vertex -0.292500 -0.030100 0.179000
vertex -0.292500 0.030100 0.179000
endloop
endfacet
facet normal -1.000000 0.000000 0.000000
outer loop
vertex -0.292500 -0.030100 -0.179000
vertex -0.292500 0.030100 0.179000
vertex -0.292500 0.030100 -0.179000
endloop
endfacet
facet normal 0.000000 0.000000 -1.000000
outer loop
vertex -0.292500 0.030100 -0.179000
vertex 0.292500 0.030100 -0.179000
vertex 0.292500 -0.030100 -0.179000
endloop
endfacet
facet normal 0.000000 0.000000 -1.000000
outer loop
vertex -0.292500 0.030100 -0.179000
vertex 0.292500 -0.030100 -0.179000
vertex -0.292500 -0.030100 -0.179000
endloop
endfacet
facet normal 1.000000 0.000000 0.000000
outer loop
vertex 0.292500 0.030100 -0.179000
vertex 0.292500 0.030100 0.179000
vertex 0.292500 -0.030100 0.179000
endloop
endfacet
facet normal 1.000000 0.000000 0.000000
outer loop
vertex 0.292500 0.030100 -0.179000
vertex 0.292500 -0.030100 0.179000
vertex 0.292500 -0.030100 -0.179000
endloop
endfacet
facet normal 0.000000 1.000000 0.000000
outer loop
vertex -0.292500 0.030100 -0.179000
vertex -0.292500 0.030100 0.179000
vertex 0.292500 0.030100 0.179000
endloop
endfacet
facet normal 0.000000 1.000000 0.000000
outer loop
vertex -0.292500 0.030100 -0.179000
vertex 0.292500 0.030100 0.179000
vertex 0.292500 0.030100 -0.179000
endloop
endfacet
endsolid Exported from Blender-3.4.1
