solid Exported from Blender-3.4.1
facet normal 0.098017 0.995185 0.000000
outer loop
vertex 0.000000 0.022500 -0.008500
vertex 0.000000 0.022500 0.008500
vertex 0.004390 0.022068 0.008500
endloop
endfacet
facet normal 0.098017 0.995185 0.000000
outer loop
vertex 0.000000 0.022500 -0.008500
vertex 0.004390 0.022068 0.008500
vertex 0.004390 0.022068 -0.008500
endloop
endfacet
facet normal 0.290285 0.956940 0.000000
outer loop
vertex 0.004390 0.022068 -0.008500
vertex 0.004390 0.022068 0.008500
vertex 0.008610 0.020787 0.008500
endloop
endfacet
facet normal 0.290285 0.956940 0.000000
outer loop
vertex 0.004390 0.022068 -0.008500
vertex 0.008610 0.020787 0.008500
vertex 0.008610 0.020787 -0.008500
endloop
endfacet
facet normal 0.471396 0.881921 0.000000
outer loop
vertex 0.008610 0.020787 -0.008500
vertex 0.008610 0.020787 0.008500
vertex 0.012500 0.018708 0.008500
endloop
endfacet
facet normal 0.471397 0.881921 0.000000
outer loop
vertex 0.008610 0.020787 -0.008500
vertex 0.012500 0.018708 0.008500
vertex 0.012500 0.018708 -0.008500
endloop
endfacet
facet normal 0.634393 0.773010 0.000000
outer loop
vertex 0.012500 0.018708 -0.008500
vertex 0.012500 0.018708 0.008500
vertex 0.015910 0.015910 0.008500
endloop
endfacet
facet normal 0.634393 0.773010 0.000000
outer loop
vertex 0.012500 0.018708 -0.008500
vertex 0.015910 0.015910 0.008500
vertex 0.015910 0.015910 -0.008500
endloop
endfacet
facet normal 0.773011 0.634393 0.000000
outer loop
vertex 0.015910 0.015910 -0.008500
vertex 0.015910 0.015910 0.008500
vertex 0.018708 0.012500 0.008500
endloop
endfacet
facet normal 0.773010 0.634394 0.000000
outer loop
vertex 0.015910 0.015910 -0.008500
vertex 0.018708 0.012500 0.008500
vertex 0.018708 0.012500 -0.008500
endloop
endfacet
facet normal 0.881921 0.471397 0.000000
outer loop
vertex 0.018708 0.012500 -0.008500
vertex 0.018708 0.012500 0.008500
vertex 0.020787 0.008610 0.008500
endloop
endfacet
facet normal 0.881921 0.471397 0.000000
outer loop
vertex 0.018708 0.012500 -0.008500
vertex 0.020787 0.008610 0.008500
vertex 0.020787 0.008610 -0.008500
endloop
endfacet
facet normal 0.956941 0.290284 0.000000
outer loop
vertex 0.020787 0.008610 -0.008500
vertex 0.020787 0.008610 0.008500
vertex 0.022068 0.004390 0.008500
endloop
endfacet
facet normal 0.956940 0.290285 0.000000
outer loop
vertex 0.020787 0.008610 -0.008500
vertex 0.022068 0.004390 0.008500
vertex 0.022068 0.004390 -0.008500
endloop
endfacet
facet normal 0.995185 0.098017 0.000000
outer loop
vertex 0.022068 0.004390 -0.008500
vertex 0.022068 0.004390 0.008500
vertex 0.022500 0.000000 0.008500
endloop
endfacet
facet normal 0.995185 0.098017 0.000000
outer loop
vertex 0.022068 0.004390 -0.008500
vertex 0.022500 0.000000 0.008500
vertex 0.022500 0.000000 -0.008500
endloop
endfacet
facet normal 0.995185 -0.098017 0.000000
outer loop
vertex 0.022500 0.000000 -0.008500
vertex 0.022500 0.000000 0.008500
vertex 0.022068 -0.004390 0.008500
endloop
endfacet
facet normal 0.995185 -0.098017 0.000000
outer loop
vertex 0.022500 0.000000 -0.008500
vertex 0.022068 -0.004390 0.008500
vertex 0.022068 -0.004390 -0.008500
endloop
endfacet
facet normal 0.956940 -0.290285 0.000000
outer loop
vertex 0.022068 -0.004390 -0.008500
vertex 0.022068 -0.004390 0.008500
vertex 0.020787 -0.008610 0.008500
endloop
endfacet
facet normal 0.956941 -0.290284 0.000000
outer loop
vertex 0.022068 -0.004390 -0.008500
vertex 0.020787 -0.008610 0.008500
vertex 0.020787 -0.008610 -0.008500
endloop
endfacet
facet normal 0.881921 -0.471397 0.000000
outer loop
vertex 0.020787 -0.008610 -0.008500
vertex 0.020787 -0.008610 0.008500
vertex 0.018708 -0.012500 0.008500
endloop
endfacet
facet normal 0.881921 -0.471397 0.000000
outer loop
vertex 0.020787 -0.008610 -0.008500
vertex 0.018708 -0.012500 0.008500
vertex 0.018708 -0.012500 -0.008500
endloop
endfacet
facet normal 0.773010 -0.634394 0.000000
outer loop
vertex 0.018708 -0.012500 -0.008500
vertex 0.018708 -0.012500 0.008500
vertex 0.015910 -0.015910 0.008500
endloop
endfacet
facet normal 0.773011 -0.634393 0.000000
outer loop
vertex 0.018708 -0.012500 -0.008500
vertex 0.015910 -0.015910 0.008500
vertex 0.015910 -0.015910 -0.008500
endloop
endfacet
facet normal 0.634393 -0.773010 0.000000
outer loop
vertex 0.015910 -0.015910 -0.008500
vertex 0.015910 -0.015910 0.008500
vertex 0.012500 -0.018708 0.008500
endloop
endfacet
facet normal 0.634393 -0.773010 0.000000
outer loop
vertex 0.015910 -0.015910 -0.008500
vertex 0.012500 -0.018708 0.008500
vertex 0.012500 -0.018708 -0.008500
endloop
endfacet
facet normal 0.471397 -0.881921 0.000000
outer loop
vertex 0.012500 -0.018708 -0.008500
vertex 0.012500 -0.018708 0.008500
vertex 0.008610 -0.020787 0.008500
endloop
endfacet
facet normal 0.471396 -0.881921 0.000000
outer loop
vertex 0.012500 -0.018708 -0.008500
vertex 0.008610 -0.020787 0.008500
vertex 0.008610 -0.020787 -0.008500
endloop
endfacet
facet normal 0.290285 -0.956940 0.000000
outer loop
vertex 0.008610 -0.020787 -0.008500
vertex 0.008610 -0.020787 0.008500
vertex 0.004390 -0.022068 0.008500
endloop
endfacet
facet normal 0.290285 -0.956940 0.000000
outer loop
vertex 0.008610 -0.020787 -0.008500
vertex 0.004390 -0.022068 0.008500
vertex 0.004390 -0.022068 -0.008500
endloop
endfacet
facet normal 0.098017 -0.995185 0.000000
outer loop
vertex 0.004390 -0.022068 -0.008500
vertex 0.004390 -0.022068 0.008500
vertex 0.000000 -0.022500 0.008500
endloop
endfacet
facet normal 0.098017 -0.995185 0.000000
outer loop
vertex 0.004390 -0.022068 -0.008500
vertex 0.000000 -0.022500 0.008500
vertex 0.000000 -0.022500 -0.008500
endloop
endfacet
facet normal -0.098017 -0.995185 0.000000
outer loop
vertex 0.000000 -0.022500 -0.008500
vertex 0.000000 -0.022500 0.008500
vertex -0.004390 -0.022068 0.008500
endloop
endfacet
facet normal -0.098017 -0.995185 0.000000
outer loop
vertex 0.000000 -0.022500 -0.008500
vertex -0.004390 -0.022068 0.008500
vertex -0.004390 -0.022068 -0.008500
endloop
endfacet
facet normal -0.290285 -0.956940 0.000000
outer loop
vertex -0.004390 -0.022068 -0.008500
vertex -0.004390 -0.022068 0.008500
vertex -0.008610 -0.020787 0.008500
endloop
endfacet
facet normal -0.290285 -0.956940 0.000000
outer loop
vertex -0.004390 -0.022068 -0.008500
vertex -0.008610 -0.020787 0.008500
vertex -0.008610 -0.020787 -0.008500
endloop
endfacet
facet normal -0.471396 -0.881921 0.000000
outer loop
vertex -0.008610 -0.020787 -0.008500
vertex -0.008610 -0.020787 0.008500
vertex -0.012500 -0.018708 0.008500
endloop
endfacet
facet normal -0.471397 -0.881921 0.000000
outer loop
vertex -0.008610 -0.020787 -0.008500
vertex -0.012500 -0.018708 0.008500
vertex -0.012500 -0.018708 -0.008500
endloop
endfacet
facet normal -0.634393 -0.773010 0.000000
outer loop
vertex -0.012500 -0.018708 -0.008500
vertex -0.012500 -0.018708 0.008500
vertex -0.015910 -0.015910 0.008500
endloop
endfacet
facet normal -0.634393 -0.773010 0.000000
outer loop
vertex -0.012500 -0.018708 -0.008500
vertex -0.015910 -0.015910 0.008500
vertex -0.015910 -0.015910 -0.008500
endloop
endfacet
facet normal -0.773011 -0.634393 0.000000
outer loop
vertex -0.015910 -0.015910 -0.008500
vertex -0.015910 -0.015910 0.008500
vertex -0.018708 -0.012500 0.008500
endloop
endfacet
facet normal -0.773010 -0.634394 0.000000
outer loop
vertex -0.015910 -0.015910 -0.008500
vertex -0.018708 -0.012500 0.008500
vertex -0.018708 -0.012500 -0.008500
endloop
endfacet
facet normal -0.881921 -0.471397 0.000000
outer loop
vertex -0.018708 -0.012500 -0.008500
vertex -0.018708 -0.012500 0.008500
vertex -0.020787 -0.008610 0.008500
endloop
endfacet
facet normal -0.881921 -0.471397 0.000000
outer loop
vertex -0.018708 -0.012500 -0.008500
vertex -0.020787 -0.008610 0.008500
vertex -0.020787 -0.008610 -0.008500
endloop
endfacet
facet normal -0.956941 -0.290284 0.000000
outer loop
vertex -0.020787 -0.008610 -0.008500
vertex -0.020787 -0.008610 0.008500
vertex -0.022068 -0.004390 0.008500
endloop
endfacet
facet normal -0.956940 -0.290285 0.000000
outer loop
vertex -0.020787 -0.008610 -0.008500
vertex -0.022068 -0.004390 0.008500
vertex -0.022068 -0.004390 -0.008500
endloop
endfacet
facet normal -0.995185 -0.098017 0.000000
outer loop
vertex -0.022068 -0.004390 -0.008500
vertex -0.022068 -0.004390 0.008500
vertex -0.022500 0.000000 0.008500
endloop
endfacet
facet normal -0.995185 -0.098017 0.000000
outer loop
vertex -0.022068 -0.004390 -0.008500
vertex -0.022500 0.000000 0.008500
vertex -0.022500 0.000000 -0.008500
endloop
endfacet
facet normal -0.995185 0.098017 0.000000
outer loop
vertex -0.022500 0.000000 -0.008500
vertex -0.022500 0.000000 0.008500
vertex -0.022068 0.004390 0.008500
endloop
endfacet
facet normal -0.995185 0.098017 0.000000
outer loop
vertex -0.022500 0.000000 -0.008500
vertex -0.022068 0.004390 0.008500
vertex -0.022068 0.004390 -0.008500
endloop
endfacet
facet normal -0.956940 0.290285 0.000000
outer loop
vertex -0.022068 0.004390 -0.008500
vertex -0.022068 0.004390 0.008500
vertex -0.020787 0.008610 0.008500
endloop
endfacet
facet normal -0.956941 0.290284 0.000000
outer loop
vertex -0.022068 0.004390 -0.008500
vertex -0.020787 0.008610 0.008500
vertex -0.020787 0.008610 -0.008500
endloop
endfacet
facet normal -0.881921 0.471397 0.000000
outer loop
vertex -0.020787 0.008610 -0.008500
vertex -0.020787 0.008610 0.008500
vertex -0.018708 0.012500 0.008500
endloop
endfacet
facet normal -0.881921 0.471397 0.000000
outer loop
vertex -0.020787 0.008610 -0.008500
vertex -0.018708 0.012500 0.008500
vertex -0.018708 0.012500 -0.008500
endloop
endfacet
facet normal -0.773010 0.634394 0.000000
outer loop
vertex -0.018708 0.012500 -0.008500
vertex -0.018708 0.012500 0.008500
vertex -0.015910 0.015910 0.008500
endloop
endfacet
facet normal -0.773011 0.634393 0.000000
outer loop
vertex -0.018708 0.012500 -0.008500
vertex -0.015910 0.015910 0.008500
vertex -0.015910 0.015910 -0.008500
endloop
endfacet
facet normal -0.634393 0.773010 0.000000
outer loop
vertex -0.015910 0.015910 -0.008500
vertex -0.015910 0.015910 0.008500
vertex -0.012500 0.018708 0.008500
endloop
endfacet
facet normal -0.634393 0.773010 0.000000
outer loop
vertex -0.015910 0.015910 -0.008500
vertex -0.012500 0.018708 0.008500
vertex -0.012500 0.018708 -0.008500
endloop
endfacet
facet normal -0.471397 0.881921 0.000000
outer loop
vertex -0.012500 0.018708 -0.008500
vertex -0.012500 0.018708 0.008500
vertex -0.008610 0.020787 0.008500
endloop
endfacet
facet normal -0.471396 0.881921 0.000000
outer loop
vertex -0.012500 0.018708 -0.008500
vertex -0.008610 0.020787 0.008500
vertex -0.008610 0.020787 -0.008500
endloop
endfacet
facet normal 0.000000 0.000000 1.000000
outer loop
vertex 0.008610 0.020787 0.008500
vertex 0.004390 0.022068 0.008500
vertex 0.000000 0.022500 0.008500
endloop
endfacet
facet normal 0.000000 0.000000 1.000000
outer loop
vertex 0.000000 0.022500 0.008500
vertex -0.004390 0.022068 0.008500
vertex -0.008610 0.020787 0.008500
endloop
endfacet
facet normal 0.000000 0.000000 1.000000
outer loop
vertex -0.008610 0.020787 0.008500
vertex -0.012500 0.018708 0.008500
vertex -0.015910 0.015910 0.008500
endloop
endfacet
facet normal 0.000000 0.000000 1.000000
outer loop
vertex -0.015910 0.015910 0.008500
vertex -0.018708 0.012500 0.008500
vertex -0.020787 0.008610 0.008500
endloop
endfacet
facet normal 0.000000 0.000000 1.000000
outer loop
vertex -0.020787 0.008610 0.008500
vertex -0.022068 0.004390 0.008500
vertex -0.022500 0.000000 0.008500
endloop
endfacet
facet normal 0.000000 0.000000 1.000000
outer loop
vertex -0.022500 0.000000 0.008500
vertex -0.022068 -0.004390 0.008500
vertex -0.020787 -0.008610 0.008500
endloop
endfacet
facet normal 0.000001 0.000000 1.000000
outer loop
vertex -0.020787 -0.008610 0.008500
vertex -0.018708 -0.012500 0.008500
vertex -0.015910 -0.015910 0.008500
endloop
endfacet
facet normal 0.000000 0.000000 1.000000
outer loop
vertex -0.015910 -0.015910 0.008500
vertex -0.012500 -0.018708 0.008500
vertex -0.008610 -0.020787 0.008500
endloop
endfacet
facet normal -0.000000 0.000000 1.000000
outer loop
vertex -0.008610 -0.020787 0.008500
vertex -0.004390 -0.022068 0.008500
vertex 0.000000 -0.022500 0.008500
endloop
endfacet
facet normal 0.000000 0.000000 1.000000
outer loop
vertex 0.000000 -0.022500 0.008500
vertex 0.004390 -0.022068 0.008500
vertex 0.008610 -0.020787 0.008500
endloop
endfacet
facet normal 0.000000 0.000000 1.000000
outer loop
vertex 0.008610 -0.020787 0.008500
vertex 0.012500 -0.018708 0.008500
vertex 0.015910 -0.015910 0.008500
endloop
endfacet
facet normal 0.000000 0.000000 1.000000
outer loop
vertex 0.015910 -0.015910 0.008500
vertex 0.018708 -0.012500 0.008500
vertex 0.020787 -0.008610 0.008500
endloop
endfacet
facet normal 0.000000 0.000000 1.000000
outer loop
vertex 0.020787 -0.008610 0.008500
vertex 0.022068 -0.004390 0.008500
vertex 0.022500 0.000000 0.008500
endloop
endfacet
facet normal 0.000000 0.000000 1.000000
outer loop
vertex 0.022500 0.000000 0.008500
vertex 0.022068 0.004390 0.008500
vertex 0.020787 0.008610 0.008500
endloop
endfacet
facet normal -0.000001 0.000000 1.000000
outer loop
vertex 0.020787 0.008610 0.008500
vertex 0.018708 0.012500 0.008500
vertex 0.015910 0.015910 0.008500
endloop
endfacet
facet normal 0.000000 0.000000 1.000000
outer loop
vertex 0.015910 0.015910 0.008500
vertex 0.012500 0.018708 0.008500
vertex 0.008610 0.020787 0.008500
endloop
endfacet
facet normal 0.000000 0.000000 1.000000
outer loop
vertex 0.008610 0.020787 0.008500
vertex 0.000000 0.022500 0.008500
vertex -0.008610 0.020787 0.008500
endloop
endfacet
facet normal 0.000000 0.000000 1.000000
outer loop
vertex -0.008610 0.020787 0.008500
vertex -0.015910 0.015910 0.008500
vertex -0.020787 0.008610 0.008500
endloop
endfacet
facet normal 0.000000 0.000000 1.000000
outer loop
vertex -0.020787 0.008610 0.008500
vertex -0.022500 0.000000 0.008500
vertex -0.020787 -0.008610 0.008500
endloop
endfacet
facet normal 0.000000 0.000000 1.000000
outer loop
vertex -0.020787 -0.008610 0.008500
vertex -0.015910 -0.015910 0.008500
vertex -0.008610 -0.020787 0.008500
endloop
endfacet
facet normal 0.000000 0.000000 1.000000
outer loop
vertex -0.008610 -0.020787 0.008500
vertex 0.000000 -0.022500 0.008500
vertex 0.008610 -0.020787 0.008500
endloop
endfacet
facet normal 0.000000 0.000000 1.000000
outer loop
vertex 0.008610 -0.020787 0.008500
vertex 0.015910 -0.015910 0.008500
vertex 0.020787 -0.008610 0.008500
endloop
endfacet
facet normal 0.000000 0.000000 1.000000
outer loop
vertex 0.020787 -0.008610 0.008500
vertex 0.022500 0.000000 0.008500
vertex 0.020787 0.008610 0.008500
endloop
endfacet
facet normal 0.000000 0.000000 1.000000
outer loop
vertex 0.020787 0.008610 0.008500
vertex 0.015910 0.015910 0.008500
vertex 0.008610 0.020787 0.008500
endloop
endfacet
facet normal 0.000000 0.000000 1.000000
outer loop
vertex 0.008610 0.020787 0.008500
vertex -0.008610 0.020787 0.008500
vertex -0.020787 0.008610 0.008500
endloop
endfacet
facet normal -0.000000 0.000000 1.000000
outer loop
vertex -0.020787 0.008610 0.008500
vertex -0.020787 -0.008610 0.008500
vertex -0.008610 -0.020787 0.008500
endloop
endfacet
facet normal 0.000000 0.000000 1.000000
outer loop
vertex -0.008610 -0.020787 0.008500
vertex 0.008610 -0.020787 0.008500
vertex 0.020787 -0.008610 0.008500
endloop
endfacet
facet normal 0.000000 0.000000 1.000000
outer loop
vertex 0.020787 -0.008610 0.008500
vertex 0.020787 0.008610 0.008500
vertex 0.008610 0.020787 0.008500
endloop
endfacet
facet normal 0.000000 0.000000 1.000000
outer loop
vertex 0.008610 0.020787 0.008500
vertex -0.020787 0.008610 0.008500
vertex -0.008610 -0.020787 0.008500
endloop
endfacet
facet normal 0.000000 0.000000 1.000000
outer loop
vertex -0.008610 -0.020787 0.008500
vertex 0.020787 -0.008610 0.008500
vertex 0.008610 0.020787 0.008500
endloop
endfacet
facet normal -0.290285 0.956940 0.000000
outer loop
vertex -0.008610 0.020787 -0.008500
vertex -0.008610 0.020787 0.008500
vertex -0.004390 0.022068 0.008500
endloop
endfacet
facet normal -0.290285 0.956940 0.000000
outer loop
vertex -0.008610 0.020787 -0.008500
vertex -0.004390 0.022068 0.008500
vertex -0.004390 0.022068 -0.008500
endloop
endfacet
facet normal -0.098017 0.995185 0.000000
outer loop
vertex -0.004390 0.022068 -0.008500
vertex -0.004390 0.022068 0.008500
vertex 0.000000 0.022500 0.008500
endloop
endfacet
facet normal -0.098017 0.995185 0.000000
outer loop
vertex -0.004390 0.022068 -0.008500
vertex 0.000000 0.022500 0.008500
vertex 0.000000 0.022500 -0.008500
endloop
endfacet
facet normal 0.000000 0.000000 -1.000000
outer loop
vertex -0.004390 0.022068 -0.008500
vertex 0.000000 0.022500 -0.008500
vertex 0.004390 0.022068 -0.008500
endloop
endfacet
facet normal 0.000001 0.000000 -1.000000
outer loop
vertex 0.004390 0.022068 -0.008500
vertex 0.008610 0.020787 -0.008500
vertex 0.012500 0.018708 -0.008500
endloop
endfacet
facet normal 0.000000 0.000000 -1.000000
outer loop
vertex 0.012500 0.018708 -0.008500
vertex 0.015910 0.015910 -0.008500
vertex 0.018708 0.012500 -0.008500
endloop
endfacet
facet normal 0.000002 0.000000 -1.000000
outer loop
vertex 0.018708 0.012500 -0.008500
vertex 0.020787 0.008610 -0.008500
vertex 0.022068 0.004390 -0.008500
endloop
endfacet
facet normal 0.000000 0.000000 -1.000000
outer loop
vertex 0.022068 0.004390 -0.008500
vertex 0.022500 0.000000 -0.008500
vertex 0.022068 -0.004390 -0.008500
endloop
endfacet
facet normal 0.000002 0.000000 -1.000000
outer loop
vertex 0.022068 -0.004390 -0.008500
vertex 0.020787 -0.008610 -0.008500
vertex 0.018708 -0.012500 -0.008500
endloop
endfacet
facet normal 0.000000 0.000000 -1.000000
outer loop
vertex 0.018708 -0.012500 -0.008500
vertex 0.015910 -0.015910 -0.008500
vertex 0.012500 -0.018708 -0.008500
endloop
endfacet
facet normal 0.000001 0.000000 -1.000000
outer loop
vertex 0.012500 -0.018708 -0.008500
vertex 0.008610 -0.020787 -0.008500
vertex 0.004390 -0.022068 -0.008500
endloop
endfacet
facet normal 0.000000 0.000000 -1.000000
outer loop
vertex 0.004390 -0.022068 -0.008500
vertex 0.000000 -0.022500 -0.008500
vertex -0.004390 -0.022068 -0.008500
endloop
endfacet
facet normal -0.000001 0.000000 -1.000000
outer loop
vertex -0.004390 -0.022068 -0.008500
vertex -0.008610 -0.020787 -0.008500
vertex -0.012500 -0.018708 -0.008500
endloop
endfacet
facet normal 0.000000 0.000000 -1.000000
outer loop
vertex -0.012500 -0.018708 -0.008500
vertex -0.015910 -0.015910 -0.008500
vertex -0.018708 -0.012500 -0.008500
endloop
endfacet
facet normal -0.000002 0.000000 -1.000000
outer loop
vertex -0.018708 -0.012500 -0.008500
vertex -0.020787 -0.008610 -0.008500
vertex -0.022068 -0.004390 -0.008500
endloop
endfacet
facet normal 0.000000 0.000000 -1.000000
outer loop
vertex -0.022068 -0.004390 -0.008500
vertex -0.022500 0.000000 -0.008500
vertex -0.022068 0.004390 -0.008500
endloop
endfacet
facet normal -0.000002 0.000000 -1.000000
outer loop
vertex -0.022068 0.004390 -0.008500
vertex -0.020787 0.008610 -0.008500
vertex -0.018708 0.012500 -0.008500
endloop
endfacet
facet normal 0.000000 0.000000 -1.000000
outer loop
vertex -0.018708 0.012500 -0.008500
vertex -0.015910 0.015910 -0.008500
vertex -0.012500 0.018708 -0.008500
endloop
endfacet
facet normal -0.000001 0.000000 -1.000000
outer loop
vertex -0.012500 0.018708 -0.008500
vertex -0.008610 0.020787 -0.008500
vertex -0.004390 0.022068 -0.008500
endloop
endfacet
facet normal 0.000000 0.000000 -1.000000
outer loop
vertex -0.004390 0.022068 -0.008500
vertex 0.004390 0.022068 -0.008500
vertex 0.012500 0.018708 -0.008500
endloop
endfacet
facet normal 0.000000 0.000000 -1.000000
outer loop
vertex 0.012500 0.018708 -0.008500
vertex 0.018708 0.012500 -0.008500
vertex 0.022068 0.004390 -0.008500
endloop
endfacet
facet normal -0.000000 0.000000 -1.000000
outer loop
vertex 0.022068 0.004390 -0.008500
vertex 0.022068 -0.004390 -0.008500
vertex 0.018708 -0.012500 -0.008500
endloop
endfacet
facet normal 0.000000 0.000000 -1.000000
outer loop
vertex 0.018708 -0.012500 -0.008500
vertex 0.012500 -0.018708 -0.008500
vertex 0.004390 -0.022068 -0.008500
endloop
endfacet
facet normal 0.000000 0.000000 -1.000000
outer loop
vertex 0.004390 -0.022068 -0.008500
vertex -0.004390 -0.022068 -0.008500
vertex -0.012500 -0.018708 -0.008500
endloop
endfacet
facet normal 0.000000 0.000000 -1.000000
outer loop
vertex -0.012500 -0.018708 -0.008500
vertex -0.018708 -0.012500 -0.008500
vertex -0.022068 -0.004390 -0.008500
endloop
endfacet
facet normal 0.000000 0.000000 -1.000000
outer loop
vertex -0.022068 -0.004390 -0.008500
vertex -0.022068 0.004390 -0.008500
vertex -0.018708 0.012500 -0.008500
endloop
endfacet
facet normal -0.000000 0.000000 -1.000000
outer loop
vertex -0.018708 0.012500 -0.008500
vertex -0.012500 0.018708 -0.008500
vertex -0.004390 0.022068 -0.008500
endloop
endfacet
facet normal 0.000000 0.000000 -1.000000
outer loop
vertex -0.004390 0.022068 -0.008500
vertex 0.012500 0.018708 -0.008500
vertex 0.022068 0.004390 -0.008500
endloop
endfacet
facet normal 0.000000 0.000000 -1.000000
outer loop
vertex 0.022068 0.004390 -0.008500
vertex 0.018708 -0.012500 -0.008500
vertex 0.004390 -0.022068 -0.008500
endloop
endfacet
facet normal 0.000000 0.000000 -1.000000
outer loop
vertex 0.004390 -0.022068 -0.008500
vertex -0.012500 -0.018708 -0.008500
vertex -0.022068 -0.004390 -0.008500
endloop
endfacet
facet normal 0.000000 0.000000 -1.000000
outer loop
vertex -0.022068 -0.004390 -0.008500
vertex -0.018708 0.012500 -0.008500
vertex -0.004390 0.022068 -0.008500
endloop
endfacet
facet normal 0.000000 0.000000 -1.000000
outer loop
vertex -0.004390 0.022068 -0.008500
vertex 0.022068 0.004390 -0.008500
vertex 0.004390 -0.022068 -0.008500
endloop
endfacet
facet normal 0.000000 0.000000 -1.000000
outer loop
vertex 0.004390 -0.022068 -0.008500
vertex -0.022068 -0.004390 -0.008500
vertex -0.004390 0.022068 -0.008500
endloop
endfacet
endsolid Exported from Blender-3.4.1
