solid Exported from Blender-3.4.1
facet normal 0.098017 0.995185 0.000000
outer loop
vertex 0.000000 0.006000 0.097000
vertex 0.000000 0.006000 0.177000
vertex 0.001171 0.005885 0.177000
endloop
endfacet
facet normal 0.098017 0.995185 0.000000
outer loop
vertex 0.000000 0.006000 0.097000
vertex 0.001171 0.005885 0.177000
vertex 0.001171 0.005885 0.097000
endloop
endfacet
facet normal 0.290285 0.956940 0.000000
outer loop
vertex 0.001171 0.005885 0.097000
vertex 0.001171 0.005885 0.177000
vertex 0.002296 0.005543 0.177000
endloop
endfacet
facet normal 0.290285 0.956940 0.000000
outer loop
vertex 0.001171 0.005885 0.097000
vertex 0.002296 0.005543 0.177000
vertex 0.002296 0.005543 0.097000
endloop
endfacet
facet normal 0.471397 0.881921 0.000000
outer loop
vertex 0.002296 0.005543 0.097000
vertex 0.002296 0.005543 0.177000
vertex 0.003333 0.004989 0.177000
endloop
endfacet
facet normal 0.471397 0.881921 0.000000
outer loop
vertex 0.002296 0.005543 0.097000
vertex 0.003333 0.004989 0.177000
vertex 0.003333 0.004989 0.097000
endloop
endfacet
facet normal 0.634393 0.773010 0.000000
outer loop
vertex 0.003333 0.004989 0.097000
vertex 0.003333 0.004989 0.177000
vertex 0.004243 0.004243 0.177000
endloop
endfacet
facet normal 0.634393 0.773010 0.000000
outer loop
vertex 0.003333 0.004989 0.097000
vertex 0.004243 0.004243 0.177000
vertex 0.004243 0.004243 0.097000
endloop
endfacet
facet normal 0.773011 0.634393 0.000000
outer loop
vertex 0.004243 0.004243 0.097000
vertex 0.004243 0.004243 0.177000
vertex 0.004989 0.003333 0.177000
endloop
endfacet
facet normal 0.773010 0.634394 0.000000
outer loop
vertex 0.004243 0.004243 0.097000
vertex 0.004989 0.003333 0.177000
vertex 0.004989 0.003333 0.097000
endloop
endfacet
facet normal 0.881921 0.471396 0.000000
outer loop
vertex 0.004989 0.003333 0.097000
vertex 0.004989 0.003333 0.177000
vertex 0.005543 0.002296 0.177000
endloop
endfacet
facet normal 0.881921 0.471397 0.000000
outer loop
vertex 0.004989 0.003333 0.097000
vertex 0.005543 0.002296 0.177000
vertex 0.005543 0.002296 0.097000
endloop
endfacet
facet normal 0.956940 0.290285 0.000000
outer loop
vertex 0.005543 0.002296 0.097000
vertex 0.005543 0.002296 0.177000
vertex 0.005885 0.001171 0.177000
endloop
endfacet
facet normal 0.956940 0.290284 0.000000
outer loop
vertex 0.005543 0.002296 0.097000
vertex 0.005885 0.001171 0.177000
vertex 0.005885 0.001171 0.097000
endloop
endfacet
facet normal 0.995185 0.098017 0.000000
outer loop
vertex 0.005885 0.001171 0.097000
vertex 0.005885 0.001171 0.177000
vertex 0.006000 0.000000 0.177000
endloop
endfacet
facet normal 0.995185 0.098018 0.000000
outer loop
vertex 0.005885 0.001171 0.097000
vertex 0.006000 0.000000 0.177000
vertex 0.006000 0.000000 0.097000
endloop
endfacet
facet normal 0.995185 -0.098018 0.000000
outer loop
vertex 0.006000 0.000000 0.097000
vertex 0.006000 0.000000 0.177000
vertex 0.005885 -0.001171 0.177000
endloop
endfacet
facet normal 0.995185 -0.098017 0.000000
outer loop
vertex 0.006000 0.000000 0.097000
vertex 0.005885 -0.001171 0.177000
vertex 0.005885 -0.001171 0.097000
endloop
endfacet
facet normal 0.956940 -0.290284 0.000000
outer loop
vertex 0.005885 -0.001171 0.097000
vertex 0.005885 -0.001171 0.177000
vertex 0.005543 -0.002296 0.177000
endloop
endfacet
facet normal 0.956940 -0.290285 0.000000
outer loop
vertex 0.005885 -0.001171 0.097000
vertex 0.005543 -0.002296 0.177000
vertex 0.005543 -0.002296 0.097000
endloop
endfacet
facet normal 0.881921 -0.471397 0.000000
outer loop
vertex 0.005543 -0.002296 0.097000
vertex 0.005543 -0.002296 0.177000
vertex 0.004989 -0.003333 0.177000
endloop
endfacet
facet normal 0.881921 -0.471396 0.000000
outer loop
vertex 0.005543 -0.002296 0.097000
vertex 0.004989 -0.003333 0.177000
vertex 0.004989 -0.003333 0.097000
endloop
endfacet
facet normal 0.773010 -0.634394 0.000000
outer loop
vertex 0.004989 -0.003333 0.097000
vertex 0.004989 -0.003333 0.177000
vertex 0.004243 -0.004243 0.177000
endloop
endfacet
facet normal 0.773011 -0.634393 0.000000
outer loop
vertex 0.004989 -0.003333 0.097000
vertex 0.004243 -0.004243 0.177000
vertex 0.004243 -0.004243 0.097000
endloop
endfacet
facet normal 0.634393 -0.773010 0.000000
outer loop
vertex 0.004243 -0.004243 0.097000
vertex 0.004243 -0.004243 0.177000
vertex 0.003333 -0.004989 0.177000
endloop
endfacet
facet normal 0.634393 -0.773010 0.000000
outer loop
vertex 0.004243 -0.004243 0.097000
vertex 0.003333 -0.004989 0.177000
vertex 0.003333 -0.004989 0.097000
endloop
endfacet
facet normal 0.471397 -0.881921 0.000000
outer loop
vertex 0.003333 -0.004989 0.097000
vertex 0.003333 -0.004989 0.177000
vertex 0.002296 -0.005543 0.177000
endloop
endfacet
facet normal 0.471397 -0.881921 0.000000
outer loop
vertex 0.003333 -0.004989 0.097000
vertex 0.002296 -0.005543 0.177000
vertex 0.002296 -0.005543 0.097000
endloop
endfacet
facet normal 0.290285 -0.956940 0.000000
outer loop
vertex 0.002296 -0.005543 0.097000
vertex 0.002296 -0.005543 0.177000
vertex 0.001171 -0.005885 0.177000
endloop
endfacet
facet normal 0.290285 -0.956940 0.000000
outer loop
vertex 0.002296 -0.005543 0.097000
vertex 0.001171 -0.005885 0.177000
vertex 0.001171 -0.005885 0.097000
endloop
endfacet
facet normal 0.098017 -0.995185 0.000000
outer loop
vertex 0.001171 -0.005885 0.097000
vertex 0.001171 -0.005885 0.177000
vertex 0.000000 -0.006000 0.177000
endloop
endfacet
facet normal 0.098017 -0.995185 0.000000
outer loop
vertex 0.001171 -0.005885 0.097000
vertex 0.000000 -0.006000 0.177000
vertex 0.000000 -0.006000 0.097000
endloop
endfacet
facet normal -0.098017 -0.995185 0.000000
outer loop
vertex 0.000000 -0.006000 0.097000
vertex 0.000000 -0.006000 0.177000
vertex -0.001171 -0.005885 0.177000
endloop
endfacet
facet normal -0.098017 -0.995185 0.000000
outer loop
vertex 0.000000 -0.006000 0.097000
vertex -0.001171 -0.005885 0.177000
vertex -0.001171 -0.005885 0.097000
endloop
endfacet
facet normal -0.290285 -0.956940 0.000000
outer loop
vertex -0.001171 -0.005885 0.097000
vertex -0.001171 -0.005885 0.177000
vertex -0.002296 -0.005543 0.177000
endloop
endfacet
facet normal -0.290285 -0.956940 0.000000
outer loop
vertex -0.001171 -0.005885 0.097000
vertex -0.002296 -0.005543 0.177000
vertex -0.002296 -0.005543 0.097000
endloop
endfacet
facet normal -0.471397 -0.881921 0.000000
outer loop
vertex -0.002296 -0.005543 0.097000
vertex -0.002296 -0.005543 0.177000
vertex -0.003333 -0.004989 0.177000
endloop
endfacet
facet normal -0.471397 -0.881921 0.000000
outer loop
vertex -0.002296 -0.005543 0.097000
vertex -0.003333 -0.004989 0.177000
vertex -0.003333 -0.004989 0.097000
endloop
endfacet
facet normal -0.634393 -0.773010 0.000000
outer loop
vertex -0.003333 -0.004989 0.097000
vertex -0.003333 -0.004989 0.177000
vertex -0.004243 -0.004243 0.177000
endloop
endfacet
facet normal -0.634393 -0.773010 0.000000
outer loop
vertex -0.003333 -0.004989 0.097000
vertex -0.004243 -0.004243 0.177000
vertex -0.004243 -0.004243 0.097000
endloop
endfacet
facet normal -0.773011 -0.634393 0.000000
outer loop
vertex -0.004243 -0.004243 0.097000
vertex -0.004243 -0.004243 0.177000
vertex -0.004989 -0.003333 0.177000
endloop
endfacet
facet normal -0.773010 -0.634394 0.000000
outer loop
vertex -0.004243 -0.004243 0.097000
vertex -0.004989 -0.003333 0.177000
vertex -0.004989 -0.003333 0.097000
endloop
endfacet
facet normal -0.881921 -0.471396 0.000000
outer loop
vertex -0.004989 -0.003333 0.097000
vertex -0.004989 -0.003333 0.177000
vertex -0.005543 -0.002296 0.177000
endloop
endfacet
facet normal -0.881921 -0.471397 0.000000
outer loop
vertex -0.004989 -0.003333 0.097000
vertex -0.005543 -0.002296 0.177000
vertex -0.005543 -0.002296 0.097000
endloop
endfacet
facet normal -0.956940 -0.290285 0.000000
outer loop
vertex -0.005543 -0.002296 0.097000
vertex -0.005543 -0.002296 0.177000
vertex -0.005885 -0.001171 0.177000
endloop
endfacet
facet normal -0.956940 -0.290284 0.000000
outer loop
vertex -0.005543 -0.002296 0.097000
vertex -0.005885 -0.001171 0.177000
vertex -0.005885 -0.001171 0.097000
endloop
endfacet
facet normal -0.995185 -0.098017 0.000000
outer loop
vertex -0.005885 -0.001171 0.097000
vertex -0.005885 -0.001171 0.177000
vertex -0.006000 0.000000 0.177000
endloop
endfacet
facet normal -0.995185 -0.098018 0.000000
outer loop
vertex -0.005885 -0.001171 0.097000
vertex -0.006000 0.000000 0.177000
vertex -0.006000 0.000000 0.097000
endloop
endfacet
facet normal -0.995185 0.098018 0.000000
outer loop
vertex -0.006000 0.000000 0.097000
vertex -0.006000 0.000000 0.177000
vertex -0.005885 0.001171 0.177000
endloop
endfacet
facet normal -0.995185 0.098017 0.000000
outer loop
vertex -0.006000 0.000000 0.097000
vertex -0.005885 0.001171 0.177000
vertex -0.005885 0.001171 0.097000
endloop
endfacet
facet normal -0.956940 0.290284 0.000000
outer loop
vertex -0.005885 0.001171 0.097000
vertex -0.005885 0.001171 0.177000
vertex -0.005543 0.002296 0.177000
endloop
endfacet
facet normal -0.956940 0.290285 0.000000
outer loop
vertex -0.005885 0.001171 0.097000
vertex -0.005543 0.002296 0.177000
vertex -0.005543 0.002296 0.097000
endloop
endfacet
facet normal -0.881921 0.471397 0.000000
outer loop
vertex -0.005543 0.002296 0.097000
vertex -0.005543 0.002296 0.177000
vertex -0.004989 0.003333 0.177000
endloop
endfacet
facet normal -0.881921 0.471396 0.000000
outer loop
vertex -0.005543 0.002296 0.097000
vertex -0.004989 0.003333 0.177000
vertex -0.004989 0.003333 0.097000
endloop
endfacet
facet normal -0.773010 0.634394 0.000000
outer loop
vertex -0.004989 0.003333 0.097000
vertex -0.004989 0.003333 0.177000
vertex -0.004243 0.004243 0.177000
endloop
endfacet
facet normal -0.773011 0.634393 0.000000
outer loop
vertex -0.004989 0.003333 0.097000
vertex -0.004243 0.004243 0.177000
vertex -0.004243 0.004243 0.097000
endloop
endfacet
facet normal -0.634393 0.773010 0.000000
outer loop
vertex -0.004243 0.004243 0.097000
vertex -0.004243 0.004243 0.177000
vertex -0.003333 0.004989 0.177000
endloop
endfacet
facet normal -0.634393 0.773010 0.000000
outer loop
vertex -0.004243 0.004243 0.097000
vertex -0.003333 0.004989 0.177000
vertex -0.003333 0.004989 0.097000
endloop
endfacet
facet normal -0.471397 0.881921 0.000000
outer loop
vertex -0.003333 0.004989 0.097000
vertex -0.003333 0.004989 0.177000
vertex -0.002296 0.005543 0.177000
endloop
endfacet
facet normal -0.471397 0.881921 0.000000
outer loop
vertex -0.003333 0.004989 0.097000
vertex -0.002296 0.005543 0.177000
vertex -0.002296 0.005543 0.097000
endloop
endfacet
facet normal 0.000000 0.000000 1.000000
outer loop
vertex 0.002296 0.005543 0.177000
vertex 0.001171 0.005885 0.177000
vertex 0.000000 0.006000 0.177000
endloop
endfacet
facet normal 0.000000 0.000000 1.000000
outer loop
vertex 0.000000 0.006000 0.177000
vertex -0.001171 0.005885 0.177000
vertex -0.002296 0.005543 0.177000
endloop
endfacet
facet normal 0.000000 0.000000 1.000000
outer loop
vertex -0.002296 0.005543 0.177000
vertex -0.003333 0.004989 0.177000
vertex -0.004243 0.004243 0.177000
endloop
endfacet
facet normal 0.000000 0.000000 1.000000
outer loop
vertex -0.004243 0.004243 0.177000
vertex -0.004989 0.003333 0.177000
vertex -0.005543 0.002296 0.177000
endloop
endfacet
facet normal 0.000000 0.000000 1.000000
outer loop
vertex -0.005543 0.002296 0.177000
vertex -0.005885 0.001171 0.177000
vertex -0.006000 0.000000 0.177000
endloop
endfacet
facet normal 0.000000 0.000000 1.000000
outer loop
vertex -0.006000 0.000000 0.177000
vertex -0.005885 -0.001171 0.177000
vertex -0.005543 -0.002296 0.177000
endloop
endfacet
facet normal 0.000000 0.000000 1.000000
outer loop
vertex -0.005543 -0.002296 0.177000
vertex -0.004989 -0.003333 0.177000
vertex -0.004243 -0.004243 0.177000
endloop
endfacet
facet normal -0.000054 0.000000 1.000000
outer loop
vertex -0.004243 -0.004243 0.177000
vertex -0.003333 -0.004989 0.177000
vertex -0.002296 -0.005543 0.177000
endloop
endfacet
facet normal 0.000000 0.000000 1.000000
outer loop
vertex -0.002296 -0.005543 0.177000
vertex -0.001171 -0.005885 0.177000
vertex 0.000000 -0.006000 0.177000
endloop
endfacet
facet normal 0.000000 0.000000 1.000000
outer loop
vertex 0.000000 -0.006000 0.177000
vertex 0.001171 -0.005885 0.177000
vertex 0.002296 -0.005543 0.177000
endloop
endfacet
facet normal 0.000000 0.000000 1.000000
outer loop
vertex 0.002296 -0.005543 0.177000
vertex 0.003333 -0.004989 0.177000
vertex 0.004243 -0.004243 0.177000
endloop
endfacet
facet normal 0.000000 0.000000 1.000000
outer loop
vertex 0.004243 -0.004243 0.177000
vertex 0.004989 -0.003333 0.177000
vertex 0.005543 -0.002296 0.177000
endloop
endfacet
facet normal 0.000000 0.000000 1.000000
outer loop
vertex 0.005543 -0.002296 0.177000
vertex 0.005885 -0.001171 0.177000
vertex 0.006000 0.000000 0.177000
endloop
endfacet
facet normal 0.000000 0.000000 1.000000
outer loop
vertex 0.006000 0.000000 0.177000
vertex 0.005885 0.001171 0.177000
vertex 0.005543 0.002296 0.177000
endloop
endfacet
facet normal 0.000000 0.000000 1.000000
outer loop
vertex 0.005543 0.002296 0.177000
vertex 0.004989 0.003333 0.177000
vertex 0.004243 0.004243 0.177000
endloop
endfacet
facet normal 0.000054 0.000000 1.000000
outer loop
vertex 0.004243 0.004243 0.177000
vertex 0.003333 0.004989 0.177000
vertex 0.002296 0.005543 0.177000
endloop
endfacet
facet normal 0.000000 0.000000 1.000000
outer loop
vertex 0.002296 0.005543 0.177000
vertex 0.000000 0.006000 0.177000
vertex -0.002296 0.005543 0.177000
endloop
endfacet
facet normal 0.000000 0.000000 1.000000
outer loop
vertex -0.002296 0.005543 0.177000
vertex -0.004243 0.004243 0.177000
vertex -0.005543 0.002296 0.177000
endloop
endfacet
facet normal 0.000000 0.000000 1.000000
outer loop
vertex -0.005543 0.002296 0.177000
vertex -0.006000 0.000000 0.177000
vertex -0.005543 -0.002296 0.177000
endloop
endfacet
facet normal -0.000014 0.000000 1.000000
outer loop
vertex -0.005543 -0.002296 0.177000
vertex -0.004243 -0.004243 0.177000
vertex -0.002296 -0.005543 0.177000
endloop
endfacet
facet normal 0.000000 0.000000 1.000000
outer loop
vertex -0.002296 -0.005543 0.177000
vertex 0.000000 -0.006000 0.177000
vertex 0.002296 -0.005543 0.177000
endloop
endfacet
facet normal 0.000000 0.000000 1.000000
outer loop
vertex 0.002296 -0.005543 0.177000
vertex 0.004243 -0.004243 0.177000
vertex 0.005543 -0.002296 0.177000
endloop
endfacet
facet normal 0.000000 0.000000 1.000000
outer loop
vertex 0.005543 -0.002296 0.177000
vertex 0.006000 0.000000 0.177000
vertex 0.005543 0.002296 0.177000
endloop
endfacet
facet normal 0.000014 0.000000 1.000000
outer loop
vertex 0.005543 0.002296 0.177000
vertex 0.004243 0.004243 0.177000
vertex 0.002296 0.005543 0.177000
endloop
endfacet
facet normal 0.000000 0.000000 1.000000
outer loop
vertex 0.002296 0.005543 0.177000
vertex -0.002296 0.005543 0.177000
vertex -0.005543 0.002296 0.177000
endloop
endfacet
facet normal 0.000000 0.000000 1.000000
outer loop
vertex -0.005543 0.002296 0.177000
vertex -0.005543 -0.002296 0.177000
vertex -0.002296 -0.005543 0.177000
endloop
endfacet
facet normal 0.000000 0.000000 1.000000
outer loop
vertex -0.002296 -0.005543 0.177000
vertex 0.002296 -0.005543 0.177000
vertex 0.005543 -0.002296 0.177000
endloop
endfacet
facet normal 0.000000 0.000000 1.000000
outer loop
vertex 0.005543 -0.002296 0.177000
vertex 0.005543 0.002296 0.177000
vertex 0.002296 0.005543 0.177000
endloop
endfacet
facet normal 0.000000 0.000000 1.000000
outer loop
vertex 0.002296 0.005543 0.177000
vertex -0.005543 0.002296 0.177000
vertex -0.002296 -0.005543 0.177000
endloop
endfacet
facet normal 0.000000 0.000000 1.000000
outer loop
vertex -0.002296 -0.005543 0.177000
vertex 0.005543 -0.002296 0.177000
vertex 0.002296 0.005543 0.177000
endloop
endfacet
facet normal -0.290285 0.956940 0.000000
outer loop
vertex -0.002296 0.005543 0.097000
vertex -0.002296 0.005543 0.177000
vertex -0.001171 0.005885 0.177000
endloop
endfacet
facet normal -0.290285 0.956940 0.000000
outer loop
vertex -0.002296 0.005543 0.097000
vertex -0.001171 0.005885 0.177000
vertex -0.001171 0.005885 0.097000
endloop
endfacet
facet normal -0.098017 0.995185 0.000000
outer loop
vertex -0.001171 0.005885 0.097000
vertex -0.001171 0.005885 0.177000
vertex 0.000000 0.006000 0.177000
endloop
endfacet
facet normal -0.098017 0.995185 0.000000
outer loop
vertex -0.001171 0.005885 0.097000
vertex 0.000000 0.006000 0.177000
vertex 0.000000 0.006000 0.097000
endloop
endfacet
facet normal 0.000000 0.000000 -1.000000
outer loop
vertex -0.001171 0.005885 0.097000
vertex 0.000000 0.006000 0.097000
vertex 0.001171 0.005885 0.097000
endloop
endfacet
facet normal 0.000027 0.000000 -1.000000
outer loop
vertex 0.001171 0.005885 0.097000
vertex 0.002296 0.005543 0.097000
vertex 0.003333 0.004989 0.097000
endloop
endfacet
facet normal -0.000054 0.000000 -1.000000
outer loop
vertex 0.003333 0.004989 0.097000
vertex 0.004243 0.004243 0.097000
vertex 0.004989 0.003333 0.097000
endloop
endfacet
facet normal 0.000108 0.000000 -1.000000
outer loop
vertex 0.004989 0.003333 0.097000
vertex 0.005543 0.002296 0.097000
vertex 0.005885 0.001171 0.097000
endloop
endfacet
facet normal 0.000000 0.000000 -1.000000
outer loop
vertex 0.005885 0.001171 0.097000
vertex 0.006000 0.000000 0.097000
vertex 0.005885 -0.001171 0.097000
endloop
endfacet
facet normal 0.000108 0.000000 -1.000000
outer loop
vertex 0.005885 -0.001171 0.097000
vertex 0.005543 -0.002296 0.097000
vertex 0.004989 -0.003333 0.097000
endloop
endfacet
facet normal -0.000054 0.000000 -1.000000
outer loop
vertex 0.004989 -0.003333 0.097000
vertex 0.004243 -0.004243 0.097000
vertex 0.003333 -0.004989 0.097000
endloop
endfacet
facet normal 0.000027 0.000000 -1.000000
outer loop
vertex 0.003333 -0.004989 0.097000
vertex 0.002296 -0.005543 0.097000
vertex 0.001171 -0.005885 0.097000
endloop
endfacet
facet normal 0.000000 0.000000 -1.000000
outer loop
vertex 0.001171 -0.005885 0.097000
vertex 0.000000 -0.006000 0.097000
vertex -0.001171 -0.005885 0.097000
endloop
endfacet
facet normal -0.000027 0.000000 -1.000000
outer loop
vertex -0.001171 -0.005885 0.097000
vertex -0.002296 -0.005543 0.097000
vertex -0.003333 -0.004989 0.097000
endloop
endfacet
facet normal 0.000054 0.000000 -1.000000
outer loop
vertex -0.003333 -0.004989 0.097000
vertex -0.004243 -0.004243 0.097000
vertex -0.004989 -0.003333 0.097000
endloop
endfacet
facet normal -0.000108 0.000000 -1.000000
outer loop
vertex -0.004989 -0.003333 0.097000
vertex -0.005543 -0.002296 0.097000
vertex -0.005885 -0.001171 0.097000
endloop
endfacet
facet normal 0.000000 0.000000 -1.000000
outer loop
vertex -0.005885 -0.001171 0.097000
vertex -0.006000 0.000000 0.097000
vertex -0.005885 0.001171 0.097000
endloop
endfacet
facet normal -0.000108 0.000000 -1.000000
outer loop
vertex -0.005885 0.001171 0.097000
vertex -0.005543 0.002296 0.097000
vertex -0.004989 0.003333 0.097000
endloop
endfacet
facet normal 0.000054 0.000000 -1.000000
outer loop
vertex -0.004989 0.003333 0.097000
vertex -0.004243 0.004243 0.097000
vertex -0.003333 0.004989 0.097000
endloop
endfacet
facet normal -0.000027 0.000000 -1.000000
outer loop
vertex -0.003333 0.004989 0.097000
vertex -0.002296 0.005543 0.097000
vertex -0.001171 0.005885 0.097000
endloop
endfacet
facet normal 0.000000 0.000000 -1.000000
outer loop
vertex -0.001171 0.005885 0.097000
vertex 0.001171 0.005885 0.097000
vertex 0.003333 0.004989 0.097000
endloop
endfacet
facet normal 0.000000 0.000000 -1.000000
outer loop
vertex 0.003333 0.004989 0.097000
vertex 0.004989 0.003333 0.097000
vertex 0.005885 0.001171 0.097000
endloop
endfacet
facet normal -0.000028 0.000000 -1.000000
outer loop
vertex 0.005885 0.001171 0.097000
vertex 0.005885 -0.001171 0.097000
vertex 0.004989 -0.003333 0.097000
endloop
endfacet
facet normal 0.000000 0.000000 -1.000000
outer loop
vertex 0.004989 -0.003333 0.097000
vertex 0.003333 -0.004989 0.097000
vertex 0.001171 -0.005885 0.097000
endloop
endfacet
facet normal 0.000000 0.000000 -1.000000
outer loop
vertex 0.001171 -0.005885 0.097000
vertex -0.001171 -0.005885 0.097000
vertex -0.003333 -0.004989 0.097000
endloop
endfacet
facet normal 0.000000 0.000000 -1.000000
outer loop
vertex -0.003333 -0.004989 0.097000
vertex -0.004989 -0.003333 0.097000
vertex -0.005885 -0.001171 0.097000
endloop
endfacet
facet normal 0.000028 0.000000 -1.000000
outer loop
vertex -0.005885 -0.001171 0.097000
vertex -0.005885 0.001171 0.097000
vertex -0.004989 0.003333 0.097000
endloop
endfacet
facet normal 0.000000 0.000000 -1.000000
outer loop
vertex -0.004989 0.003333 0.097000
vertex -0.003333 0.004989 0.097000
vertex -0.001171 0.005885 0.097000
endloop
endfacet
facet normal -0.000004 0.000000 -1.000000
outer loop
vertex -0.001171 0.005885 0.097000
vertex 0.003333 0.004989 0.097000
vertex 0.005885 0.001171 0.097000
endloop
endfacet
facet normal 0.000000 0.000000 -1.000000
outer loop
vertex 0.005885 0.001171 0.097000
vertex 0.004989 -0.003333 0.097000
vertex 0.001171 -0.005885 0.097000
endloop
endfacet
facet normal 0.000004 0.000000 -1.000000
outer loop
vertex 0.001171 -0.005885 0.097000
vertex -0.003333 -0.004989 0.097000
vertex -0.005885 -0.001171 0.097000
endloop
endfacet
facet normal 0.000000 0.000000 -1.000000
outer loop
vertex -0.005885 -0.001171 0.097000
vertex -0.004989 0.003333 0.097000
vertex -0.001171 0.005885 0.097000
endloop
endfacet
facet normal 0.000002 0.000000 -1.000000
outer loop
vertex -0.001171 0.005885 0.097000
vertex 0.005885 0.001171 0.097000
vertex 0.001171 -0.005885 0.097000
endloop
endfacet
facet normal -0.000002 0.000000 -1.000000
outer loop
vertex 0.001171 -0.005885 0.097000
vertex -0.005885 -0.001171 0.097000
vertex -0.001171 0.005885 0.097000
endloop
endfacet
facet normal 0.098017 0.995185 0.000000
outer loop
vertex 0.000000 0.035000 -0.008500
vertex 0.000000 0.035000 0.105500
vertex 0.006828 0.034327 0.105500
endloop
endfacet
facet normal 0.098017 0.995185 0.000000
outer loop
vertex 0.000000 0.035000 -0.008500
vertex 0.006828 0.034327 0.105500
vertex 0.006828 0.034327 -0.008500
endloop
endfacet
facet normal 0.290285 0.956940 0.000000
outer loop
vertex 0.006828 0.034327 -0.008500
vertex 0.006828 0.034327 0.105500
vertex 0.013394 0.032336 0.105500
endloop
endfacet
facet normal 0.290285 0.956940 0.000000
outer loop
vertex 0.006828 0.034327 -0.008500
vertex 0.013394 0.032336 0.105500
vertex 0.013394 0.032336 -0.008500
endloop
endfacet
facet normal 0.471397 0.881921 0.000000
outer loop
vertex 0.013394 0.032336 -0.008500
vertex 0.013394 0.032336 0.105500
vertex 0.019445 0.029101 0.105500
endloop
endfacet
facet normal 0.471397 0.881921 0.000000
outer loop
vertex 0.013394 0.032336 -0.008500
vertex 0.019445 0.029101 0.105500
vertex 0.019445 0.029101 -0.008500
endloop
endfacet
facet normal 0.634393 0.773011 0.000000
outer loop
vertex 0.019445 0.029101 -0.008500
vertex 0.019445 0.029101 0.105500
vertex 0.024749 0.024749 0.105500
endloop
endfacet
facet normal 0.634393 0.773010 0.000000
outer loop
vertex 0.019445 0.029101 -0.008500
vertex 0.024749 0.024749 0.105500
vertex 0.024749 0.024749 -0.008500
endloop
endfacet
facet normal 0.773010 0.634393 0.000000
outer loop
vertex 0.024749 0.024749 -0.008500
vertex 0.024749 0.024749 0.105500
vertex 0.029101 0.019445 0.105500
endloop
endfacet
facet normal 0.773011 0.634393 0.000000
outer loop
vertex 0.024749 0.024749 -0.008500
vertex 0.029101 0.019445 0.105500
vertex 0.029101 0.019445 -0.008500
endloop
endfacet
facet normal 0.881921 0.471397 0.000000
outer loop
vertex 0.029101 0.019445 -0.008500
vertex 0.029101 0.019445 0.105500
vertex 0.032336 0.013394 0.105500
endloop
endfacet
facet normal 0.881921 0.471397 0.000000
outer loop
vertex 0.029101 0.019445 -0.008500
vertex 0.032336 0.013394 0.105500
vertex 0.032336 0.013394 -0.008500
endloop
endfacet
facet normal 0.956940 0.290284 0.000000
outer loop
vertex 0.032336 0.013394 -0.008500
vertex 0.032336 0.013394 0.105500
vertex 0.034327 0.006828 0.105500
endloop
endfacet
facet normal 0.956940 0.290285 0.000000
outer loop
vertex 0.032336 0.013394 -0.008500
vertex 0.034327 0.006828 0.105500
vertex 0.034327 0.006828 -0.008500
endloop
endfacet
facet normal 0.995185 0.098017 0.000000
outer loop
vertex 0.034327 0.006828 -0.008500
vertex 0.034327 0.006828 0.105500
vertex 0.035000 0.000000 0.105500
endloop
endfacet
facet normal 0.995185 0.098017 0.000000
outer loop
vertex 0.034327 0.006828 -0.008500
vertex 0.035000 0.000000 0.105500
vertex 0.035000 0.000000 -0.008500
endloop
endfacet
facet normal 0.995185 -0.098017 0.000000
outer loop
vertex 0.035000 0.000000 -0.008500
vertex 0.035000 0.000000 0.105500
vertex 0.034327 -0.006828 0.105500
endloop
endfacet
facet normal 0.995185 -0.098017 0.000000
outer loop
vertex 0.035000 0.000000 -0.008500
vertex 0.034327 -0.006828 0.105500
vertex 0.034327 -0.006828 -0.008500
endloop
endfacet
facet normal 0.956940 -0.290285 0.000000
outer loop
vertex 0.034327 -0.006828 -0.008500
vertex 0.034327 -0.006828 0.105500
vertex 0.032336 -0.013394 0.105500
endloop
endfacet
facet normal 0.956940 -0.290284 0.000000
outer loop
vertex 0.034327 -0.006828 -0.008500
vertex 0.032336 -0.013394 0.105500
vertex 0.032336 -0.013394 -0.008500
endloop
endfacet
facet normal 0.881921 -0.471397 0.000000
outer loop
vertex 0.032336 -0.013394 -0.008500
vertex 0.032336 -0.013394 0.105500
vertex 0.029101 -0.019445 0.105500
endloop
endfacet
facet normal 0.881921 -0.471397 0.000000
outer loop
vertex 0.032336 -0.013394 -0.008500
vertex 0.029101 -0.019445 0.105500
vertex 0.029101 -0.019445 -0.008500
endloop
endfacet
facet normal 0.773011 -0.634393 0.000000
outer loop
vertex 0.029101 -0.019445 -0.008500
vertex 0.029101 -0.019445 0.105500
vertex 0.024749 -0.024749 0.105500
endloop
endfacet
facet normal 0.773010 -0.634393 0.000000
outer loop
vertex 0.029101 -0.019445 -0.008500
vertex 0.024749 -0.024749 0.105500
vertex 0.024749 -0.024749 -0.008500
endloop
endfacet
facet normal 0.634393 -0.773010 0.000000
outer loop
vertex 0.024749 -0.024749 -0.008500
vertex 0.024749 -0.024749 0.105500
vertex 0.019445 -0.029101 0.105500
endloop
endfacet
facet normal 0.634393 -0.773011 0.000000
outer loop
vertex 0.024749 -0.024749 -0.008500
vertex 0.019445 -0.029101 0.105500
vertex 0.019445 -0.029101 -0.008500
endloop
endfacet
facet normal 0.471397 -0.881921 0.000000
outer loop
vertex 0.019445 -0.029101 -0.008500
vertex 0.019445 -0.029101 0.105500
vertex 0.013394 -0.032336 0.105500
endloop
endfacet
facet normal 0.471397 -0.881921 0.000000
outer loop
vertex 0.019445 -0.029101 -0.008500
vertex 0.013394 -0.032336 0.105500
vertex 0.013394 -0.032336 -0.008500
endloop
endfacet
facet normal 0.290285 -0.956940 0.000000
outer loop
vertex 0.013394 -0.032336 -0.008500
vertex 0.013394 -0.032336 0.105500
vertex 0.006828 -0.034327 0.105500
endloop
endfacet
facet normal 0.290285 -0.956940 0.000000
outer loop
vertex 0.013394 -0.032336 -0.008500
vertex 0.006828 -0.034327 0.105500
vertex 0.006828 -0.034327 -0.008500
endloop
endfacet
facet normal 0.098017 -0.995185 0.000000
outer loop
vertex 0.006828 -0.034327 -0.008500
vertex 0.006828 -0.034327 0.105500
vertex 0.000000 -0.035000 0.105500
endloop
endfacet
facet normal 0.098017 -0.995185 0.000000
outer loop
vertex 0.006828 -0.034327 -0.008500
vertex 0.000000 -0.035000 0.105500
vertex 0.000000 -0.035000 -0.008500
endloop
endfacet
facet normal -0.098017 -0.995185 0.000000
outer loop
vertex 0.000000 -0.035000 -0.008500
vertex 0.000000 -0.035000 0.105500
vertex -0.006828 -0.034327 0.105500
endloop
endfacet
facet normal -0.098017 -0.995185 0.000000
outer loop
vertex 0.000000 -0.035000 -0.008500
vertex -0.006828 -0.034327 0.105500
vertex -0.006828 -0.034327 -0.008500
endloop
endfacet
facet normal -0.290285 -0.956940 0.000000
outer loop
vertex -0.006828 -0.034327 -0.008500
vertex -0.006828 -0.034327 0.105500
vertex -0.013394 -0.032336 0.105500
endloop
endfacet
facet normal -0.290285 -0.956940 0.000000
outer loop
vertex -0.006828 -0.034327 -0.008500
vertex -0.013394 -0.032336 0.105500
vertex -0.013394 -0.032336 -0.008500
endloop
endfacet
facet normal -0.471397 -0.881921 0.000000
outer loop
vertex -0.013394 -0.032336 -0.008500
vertex -0.013394 -0.032336 0.105500
vertex -0.019445 -0.029101 0.105500
endloop
endfacet
facet normal -0.471397 -0.881921 0.000000
outer loop
vertex -0.013394 -0.032336 -0.008500
vertex -0.019445 -0.029101 0.105500
vertex -0.019445 -0.029101 -0.008500
endloop
endfacet
facet normal -0.634393 -0.773011 0.000000
outer loop
vertex -0.019445 -0.029101 -0.008500
vertex -0.019445 -0.029101 0.105500
vertex -0.024749 -0.024749 0.105500
endloop
endfacet
facet normal -0.634393 -0.773010 0.000000
outer loop
vertex -0.019445 -0.029101 -0.008500
vertex -0.024749 -0.024749 0.105500
vertex -0.024749 -0.024749 -0.008500
endloop
endfacet
facet normal -0.773010 -0.634393 0.000000
outer loop
vertex -0.024749 -0.024749 -0.008500
vertex -0.024749 -0.024749 0.105500
vertex -0.029101 -0.019445 0.105500
endloop
endfacet
facet normal -0.773011 -0.634393 0.000000
outer loop
vertex -0.024749 -0.024749 -0.008500
vertex -0.029101 -0.019445 0.105500
vertex -0.029101 -0.019445 -0.008500
endloop
endfacet
facet normal -0.881921 -0.471397 0.000000
outer loop
vertex -0.029101 -0.019445 -0.008500
vertex -0.029101 -0.019445 0.105500
vertex -0.032336 -0.013394 0.105500
endloop
endfacet
facet normal -0.881921 -0.471397 0.000000
outer loop
vertex -0.029101 -0.019445 -0.008500
vertex -0.032336 -0.013394 0.105500
vertex -0.032336 -0.013394 -0.008500
endloop
endfacet
facet normal -0.956940 -0.290284 0.000000
outer loop
vertex -0.032336 -0.013394 -0.008500
vertex -0.032336 -0.013394 0.105500
vertex -0.034327 -0.006828 0.105500
endloop
endfacet
facet normal -0.956940 -0.290285 0.000000
outer loop
vertex -0.032336 -0.013394 -0.008500
vertex -0.034327 -0.006828 0.105500
vertex -0.034327 -0.006828 -0.008500
endloop
endfacet
facet normal -0.995185 -0.098017 0.000000
outer loop
vertex -0.034327 -0.006828 -0.008500
vertex -0.034327 -0.006828 0.105500
vertex -0.035000 0.000000 0.105500
endloop
endfacet
facet normal -0.995185 -0.098017 0.000000
outer loop
vertex -0.034327 -0.006828 -0.008500
vertex -0.035000 0.000000 0.105500
vertex -0.035000 0.000000 -0.008500
endloop
endfacet
facet normal -0.995185 0.098017 0.000000
outer loop
vertex -0.035000 0.000000 -0.008500
vertex -0.035000 0.000000 0.105500
vertex -0.034327 0.006828 0.105500
endloop
endfacet
facet normal -0.995185 0.098017 0.000000
outer loop
vertex -0.035000 0.000000 -0.008500
vertex -0.034327 0.006828 0.105500
vertex -0.034327 0.006828 -0.008500
endloop
endfacet
facet normal -0.956940 0.290285 0.000000
outer loop
vertex -0.034327 0.006828 -0.008500
vertex -0.034327 0.006828 0.105500
vertex -0.032336 0.013394 0.105500
endloop
endfacet
facet normal -0.956940 0.290284 0.000000
outer loop
vertex -0.034327 0.006828 -0.008500
vertex -0.032336 0.013394 0.105500
vertex -0.032336 0.013394 -0.008500
endloop
endfacet
facet normal -0.881921 0.471397 0.000000
outer loop
vertex -0.032336 0.013394 -0.008500
vertex -0.032336 0.013394 0.105500
vertex -0.029101 0.019445 0.105500
endloop
endfacet
facet normal -0.881921 0.471397 0.000000
outer loop
vertex -0.032336 0.013394 -0.008500
vertex -0.029101 0.019445 0.105500
vertex -0.029101 0.019445 -0.008500
endloop
endfacet
facet normal -0.773011 0.634393 0.000000
outer loop
vertex -0.029101 0.019445 -0.008500
vertex -0.029101 0.019445 0.105500
vertex -0.024749 0.024749 0.105500
endloop
endfacet
facet normal -0.773010 0.634393 0.000000
outer loop
vertex -0.029101 0.019445 -0.008500
vertex -0.024749 0.024749 0.105500
vertex -0.024749 0.024749 -0.008500
endloop
endfacet
facet normal -0.634393 0.773010 0.000000
outer loop
vertex -0.024749 0.024749 -0.008500
vertex -0.024749 0.024749 0.105500
vertex -0.019445 0.029101 0.105500
endloop
endfacet
facet normal -0.634393 0.773011 0.000000
outer loop
vertex -0.024749 0.024749 -0.008500
vertex -0.019445 0.029101 0.105500
vertex -0.019445 0.029101 -0.008500
endloop
endfacet
facet normal -0.471397 0.881921 0.000000
outer loop
vertex -0.019445 0.029101 -0.008500
vertex -0.019445 0.029101 0.105500
vertex -0.013394 0.032336 0.105500
endloop
endfacet
facet normal -0.471397 0.881921 0.000000
outer loop
vertex -0.019445 0.029101 -0.008500
vertex -0.013394 0.032336 0.105500
vertex -0.013394 0.032336 -0.008500
endloop
endfacet
facet normal -0.000003 0.000000 1.000000
outer loop
vertex 0.013394 0.032336 0.105500
vertex 0.006828 0.034327 0.105500
vertex 0.000000 0.035000 0.105500
endloop
endfacet
facet normal 0.000003 0.000000 1.000000
outer loop
vertex 0.000000 0.035000 0.105500
vertex -0.006828 0.034327 0.105500
vertex -0.013394 0.032336 0.105500
endloop
endfacet
facet normal 0.000006 0.000000 1.000000
outer loop
vertex -0.013394 0.032336 0.105500
vertex -0.019445 0.029101 0.105500
vertex -0.024749 0.024749 0.105500
endloop
endfacet
facet normal 0.000000 0.000000 1.000000
outer loop
vertex -0.024749 0.024749 0.105500
vertex -0.029101 0.019445 0.105500
vertex -0.032336 0.013394 0.105500
endloop
endfacet
facet normal 0.000000 0.000000 1.000000
outer loop
vertex -0.032336 0.013394 0.105500
vertex -0.034327 0.006828 0.105500
vertex -0.035000 0.000000 0.105500
endloop
endfacet
facet normal 0.000000 0.000000 1.000000
outer loop
vertex -0.035000 0.000000 0.105500
vertex -0.034327 -0.006828 0.105500
vertex -0.032336 -0.013394 0.105500
endloop
endfacet
facet normal 0.000000 0.000000 1.000000
outer loop
vertex -0.032336 -0.013394 0.105500
vertex -0.029101 -0.019445 0.105500
vertex -0.024749 -0.024749 0.105500
endloop
endfacet
facet normal 0.000006 0.000000 1.000000
outer loop
vertex -0.024749 -0.024749 0.105500
vertex -0.019445 -0.029101 0.105500
vertex -0.013394 -0.032336 0.105500
endloop
endfacet
facet normal 0.000003 0.000000 1.000000
outer loop
vertex -0.013394 -0.032336 0.105500
vertex -0.006828 -0.034327 0.105500
vertex 0.000000 -0.035000 0.105500
endloop
endfacet
facet normal -0.000003 0.000000 1.000000
outer loop
vertex 0.000000 -0.035000 0.105500
vertex 0.006828 -0.034327 0.105500
vertex 0.013394 -0.032336 0.105500
endloop
endfacet
facet normal -0.000006 0.000000 1.000000
outer loop
vertex 0.013394 -0.032336 0.105500
vertex 0.019445 -0.029101 0.105500
vertex 0.024749 -0.024749 0.105500
endloop
endfacet
facet normal 0.000000 0.000000 1.000000
outer loop
vertex 0.024749 -0.024749 0.105500
vertex 0.029101 -0.019445 0.105500
vertex 0.032336 -0.013394 0.105500
endloop
endfacet
facet normal 0.000000 0.000000 1.000000
outer loop
vertex 0.032336 -0.013394 0.105500
vertex 0.034327 -0.006828 0.105500
vertex 0.035000 0.000000 0.105500
endloop
endfacet
facet normal 0.000000 0.000000 1.000000
outer loop
vertex 0.035000 0.000000 0.105500
vertex 0.034327 0.006828 0.105500
vertex 0.032336 0.013394 0.105500
endloop
endfacet
facet normal 0.000000 0.000000 1.000000
outer loop
vertex 0.032336 0.013394 0.105500
vertex 0.029101 0.019445 0.105500
vertex 0.024749 0.024749 0.105500
endloop
endfacet
facet normal -0.000006 0.000000 1.000000
outer loop
vertex 0.024749 0.024749 0.105500
vertex 0.019445 0.029101 0.105500
vertex 0.013394 0.032336 0.105500
endloop
endfacet
facet normal 0.000000 0.000000 1.000000
outer loop
vertex 0.013394 0.032336 0.105500
vertex 0.000000 0.035000 0.105500
vertex -0.013394 0.032336 0.105500
endloop
endfacet
facet normal 0.000000 0.000000 1.000000
outer loop
vertex -0.013394 0.032336 0.105500
vertex -0.024749 0.024749 0.105500
vertex -0.032336 0.013394 0.105500
endloop
endfacet
facet normal 0.000000 0.000000 1.000000
outer loop
vertex -0.032336 0.013394 0.105500
vertex -0.035000 0.000000 0.105500
vertex -0.032336 -0.013394 0.105500
endloop
endfacet
facet normal 0.000000 0.000000 1.000000
outer loop
vertex -0.032336 -0.013394 0.105500
vertex -0.024749 -0.024749 0.105500
vertex -0.013394 -0.032336 0.105500
endloop
endfacet
facet normal 0.000000 0.000000 1.000000
outer loop
vertex -0.013394 -0.032336 0.105500
vertex 0.000000 -0.035000 0.105500
vertex 0.013394 -0.032336 0.105500
endloop
endfacet
facet normal 0.000000 0.000000 1.000000
outer loop
vertex 0.013394 -0.032336 0.105500
vertex 0.024749 -0.024749 0.105500
vertex 0.032336 -0.013394 0.105500
endloop
endfacet
facet normal 0.000000 0.000000 1.000000
outer loop
vertex 0.032336 -0.013394 0.105500
vertex 0.035000 0.000000 0.105500
vertex 0.032336 0.013394 0.105500
endloop
endfacet
facet normal 0.000000 0.000000 1.000000
outer loop
vertex 0.032336 0.013394 0.105500
vertex 0.024749 0.024749 0.105500
vertex 0.013394 0.032336 0.105500
endloop
endfacet
facet normal 0.000000 0.000000 1.000000
outer loop
vertex 0.013394 0.032336 0.105500
vertex -0.013394 0.032336 0.105500
vertex -0.032336 0.013394 0.105500
endloop
endfacet
facet normal 0.000000 0.000000 1.000000
outer loop
vertex -0.032336 0.013394 0.105500
vertex -0.032336 -0.013394 0.105500
vertex -0.013394 -0.032336 0.105500
endloop
endfacet
facet normal 0.000000 0.000000 1.000000
outer loop
vertex -0.013394 -0.032336 0.105500
vertex 0.013394 -0.032336 0.105500
vertex 0.032336 -0.013394 0.105500
endloop
endfacet
facet normal 0.000000 0.000000 1.000000
outer loop
vertex 0.032336 -0.013394 0.105500
vertex 0.032336 0.013394 0.105500
vertex 0.013394 0.032336 0.105500
endloop
endfacet
facet normal 0.000000 0.000000 1.000000
outer loop
vertex 0.013394 0.032336 0.105500
vertex -0.032336 0.013394 0.105500
vertex -0.013394 -0.032336 0.105500
endloop
endfacet
facet normal 0.000000 0.000000 1.000000
outer loop
vertex -0.013394 -0.032336 0.105500
vertex 0.032336 -0.013394 0.105500
vertex 0.013394 0.032336 0.105500
endloop
endfacet
facet normal -0.290285 0.956940 0.000000
outer loop
vertex -0.013394 0.032336 -0.008500
vertex -0.013394 0.032336 0.105500
vertex -0.006828 0.034327 0.105500
endloop
endfacet
facet normal -0.290285 0.956940 0.000000
outer loop
vertex -0.013394 0.032336 -0.008500
vertex -0.006828 0.034327 0.105500
vertex -0.006828 0.034327 -0.008500
endloop
endfacet
facet normal -0.098017 0.995185 0.000000
outer loop
vertex -0.006828 0.034327 -0.008500
vertex -0.006828 0.034327 0.105500
vertex 0.000000 0.035000 0.105500
endloop
endfacet
facet normal -0.098017 0.995185 0.000000
outer loop
vertex -0.006828 0.034327 -0.008500
vertex 0.000000 0.035000 0.105500
vertex 0.000000 0.035000 -0.008500
endloop
endfacet
facet normal 0.000000 0.000000 -1.000000
outer loop
vertex -0.006828 0.034327 -0.008500
vertex 0.000000 0.035000 -0.008500
vertex 0.006828 0.034327 -0.008500
endloop
endfacet
facet normal -0.000000 0.000000 -1.000000
outer loop
vertex 0.006828 0.034327 -0.008500
vertex 0.013394 0.032336 -0.008500
vertex 0.019445 0.029101 -0.008500
endloop
endfacet
facet normal 0.000001 0.000000 -1.000000
outer loop
vertex 0.019445 0.029101 -0.008500
vertex 0.024749 0.024749 -0.008500
vertex 0.029101 0.019445 -0.008500
endloop
endfacet
facet normal 0.000002 0.000000 -1.000000
outer loop
vertex 0.029101 0.019445 -0.008500
vertex 0.032336 0.013394 -0.008500
vertex 0.034327 0.006828 -0.008500
endloop
endfacet
facet normal 0.000000 0.000000 -1.000000
outer loop
vertex 0.034327 0.006828 -0.008500
vertex 0.035000 0.000000 -0.008500
vertex 0.034327 -0.006828 -0.008500
endloop
endfacet
facet normal 0.000002 0.000000 -1.000000
outer loop
vertex 0.034327 -0.006828 -0.008500
vertex 0.032336 -0.013394 -0.008500
vertex 0.029101 -0.019445 -0.008500
endloop
endfacet
facet normal 0.000001 0.000000 -1.000000
outer loop
vertex 0.029101 -0.019445 -0.008500
vertex 0.024749 -0.024749 -0.008500
vertex 0.019445 -0.029101 -0.008500
endloop
endfacet
facet normal -0.000000 0.000000 -1.000000
outer loop
vertex 0.019445 -0.029101 -0.008500
vertex 0.013394 -0.032336 -0.008500
vertex 0.006828 -0.034327 -0.008500
endloop
endfacet
facet normal 0.000000 0.000000 -1.000000
outer loop
vertex 0.006828 -0.034327 -0.008500
vertex 0.000000 -0.035000 -0.008500
vertex -0.006828 -0.034327 -0.008500
endloop
endfacet
facet normal 0.000000 0.000000 -1.000000
outer loop
vertex -0.006828 -0.034327 -0.008500
vertex -0.013394 -0.032336 -0.008500
vertex -0.019445 -0.029101 -0.008500
endloop
endfacet
facet normal -0.000001 0.000000 -1.000000
outer loop
vertex -0.019445 -0.029101 -0.008500
vertex -0.024749 -0.024749 -0.008500
vertex -0.029101 -0.019445 -0.008500
endloop
endfacet
facet normal -0.000002 0.000000 -1.000000
outer loop
vertex -0.029101 -0.019445 -0.008500
vertex -0.032336 -0.013394 -0.008500
vertex -0.034327 -0.006828 -0.008500
endloop
endfacet
facet normal 0.000000 0.000000 -1.000000
outer loop
vertex -0.034327 -0.006828 -0.008500
vertex -0.035000 0.000000 -0.008500
vertex -0.034327 0.006828 -0.008500
endloop
endfacet
facet normal -0.000002 0.000000 -1.000000
outer loop
vertex -0.034327 0.006828 -0.008500
vertex -0.032336 0.013394 -0.008500
vertex -0.029101 0.019445 -0.008500
endloop
endfacet
facet normal -0.000001 0.000000 -1.000000
outer loop
vertex -0.029101 0.019445 -0.008500
vertex -0.024749 0.024749 -0.008500
vertex -0.019445 0.029101 -0.008500
endloop
endfacet
facet normal 0.000000 0.000000 -1.000000
outer loop
vertex -0.019445 0.029101 -0.008500
vertex -0.013394 0.032336 -0.008500
vertex -0.006828 0.034327 -0.008500
endloop
endfacet
facet normal 0.000000 0.000000 -1.000000
outer loop
vertex -0.006828 0.034327 -0.008500
vertex 0.006828 0.034327 -0.008500
vertex 0.019445 0.029101 -0.008500
endloop
endfacet
facet normal 0.000000 0.000000 -1.000000
outer loop
vertex 0.019445 0.029101 -0.008500
vertex 0.029101 0.019445 -0.008500
vertex 0.034327 0.006828 -0.008500
endloop
endfacet
facet normal 0.000000 0.000000 -1.000000
outer loop
vertex 0.034327 0.006828 -0.008500
vertex 0.034327 -0.006828 -0.008500
vertex 0.029101 -0.019445 -0.008500
endloop
endfacet
facet normal -0.000000 0.000000 -1.000000
outer loop
vertex 0.029101 -0.019445 -0.008500
vertex 0.019445 -0.029101 -0.008500
vertex 0.006828 -0.034327 -0.008500
endloop
endfacet
facet normal 0.000000 0.000000 -1.000000
outer loop
vertex 0.006828 -0.034327 -0.008500
vertex -0.006828 -0.034327 -0.008500
vertex -0.019445 -0.029101 -0.008500
endloop
endfacet
facet normal 0.000000 0.000000 -1.000000
outer loop
vertex -0.019445 -0.029101 -0.008500
vertex -0.029101 -0.019445 -0.008500
vertex -0.034327 -0.006828 -0.008500
endloop
endfacet
facet normal 0.000000 0.000000 -1.000000
outer loop
vertex -0.034327 -0.006828 -0.008500
vertex -0.034327 0.006828 -0.008500
vertex -0.029101 0.019445 -0.008500
endloop
endfacet
facet normal 0.000000 0.000000 -1.000000
outer loop
vertex -0.029101 0.019445 -0.008500
vertex -0.019445 0.029101 -0.008500
vertex -0.006828 0.034327 -0.008500
endloop
endfacet
facet normal 0.000000 0.000000 -1.000000
outer loop
vertex -0.006828 0.034327 -0.008500
vertex 0.019445 0.029101 -0.008500
vertex 0.034327 0.006828 -0.008500
endloop
endfacet
facet normal 0.000000 0.000000 -1.000000
outer loop
vertex 0.034327 0.006828 -0.008500
vertex 0.029101 -0.019445 -0.008500
vertex 0.006828 -0.034327 -0.008500
endloop
endfacet
facet normal 0.000000 0.000000 -1.000000
outer loop
vertex 0.006828 -0.034327 -0.008500
vertex -0.019445 -0.029101 -0.008500
vertex -0.034327 -0.006828 -0.008500
endloop
endfacet
facet normal -0.000000 0.000000 -1.000000
outer loop
vertex -0.034327 -0.006828 -0.008500
vertex -0.029101 0.019445 -0.008500
vertex -0.006828 0.034327 -0.008500
endloop
endfacet
facet normal -0.000000 0.000000 -1.000000
outer loop
vertex -0.006828 0.034327 -0.008500
vertex 0.034327 0.006828 -0.008500
vertex 0.006828 -0.034327 -0.008500
endloop
endfacet
facet normal 0.000000 0.000000 -1.000000
outer loop
vertex 0.006828 -0.034327 -0.008500
vertex -0.034327 -0.006828 -0.008500
vertex -0.006828 0.034327 -0.008500
endloop
endfacet
endsolid Exported from Blender-3.4.1
