solid Exported from Blender-3.4.1
facet normal -1.000000 0.000000 0.000000
outer loop
vertex 0.360000 -0.765000 0.005600
vertex 0.360000 -0.765000 0.050600
vertex 0.360000 0.765000 0.050600
endloop
endfacet
facet normal -1.000000 0.000000 0.000000
outer loop
vertex 0.360000 -0.765000 0.005600
vertex 0.360000 0.765000 0.050600
vertex 0.360000 0.765000 0.005600
endloop
endfacet
facet normal 0.000000 1.000000 0.000000
outer loop
vertex 0.360000 0.765000 0.005600
vertex 0.360000 0.765000 0.050600
vertex 0.450000 0.765000 0.050600
endloop
endfacet
facet normal 0.000000 1.000000 0.000000
outer loop
vertex 0.360000 0.765000 0.005600
vertex 0.450000 0.765000 0.050600
vertex 0.450000 0.765000 0.005600
endloop
endfacet
facet normal 1.000000 0.000000 0.000000
outer loop
vertex 0.450000 0.765000 0.005600
vertex 0.450000 0.765000 0.050600
vertex 0.450000 -0.765000 0.050600
endloop
endfacet
facet normal 1.000000 0.000000 0.000000
outer loop
vertex 0.450000 0.765000 0.005600
vertex 0.450000 -0.765000 0.050600
vertex 0.450000 -0.765000 0.005600
endloop
endfacet
facet normal 0.000000 -1.000000 0.000000
outer loop
vertex 0.450000 -0.765000 0.005600
vertex 0.450000 -0.765000 0.050600
vertex 0.360000 -0.765000 0.050600
endloop
endfacet
facet normal 0.000000 -1.000000 0.000000
outer loop
vertex 0.450000 -0.765000 0.005600
vertex 0.360000 -0.765000 0.050600
vertex 0.360000 -0.765000 0.005600
endloop
endfacet
facet normal 0.000000 0.000000 -1.000000
outer loop
vertex 0.360000 0.765000 0.005600
vertex 0.450000 0.765000 0.005600
vertex 0.450000 -0.765000 0.005600
endloop
endfacet
facet normal 0.000000 0.000000 -1.000000
outer loop
vertex 0.360000 0.765000 0.005600
vertex 0.450000 -0.765000 0.005600
vertex 0.360000 -0.765000 0.005600
endloop
endfacet
facet normal 0.000000 0.000000 1.000000
outer loop
vertex 0.450000 0.765000 0.050600
vertex 0.360000 0.765000 0.050600
vertex 0.360000 -0.765000 0.050600
endloop
endfacet
facet normal 0.000000 0.000000 1.000000
outer loop
vertex 0.450000 0.765000 0.050600
vertex 0.360000 -0.765000 0.050600
vertex 0.450000 -0.765000 0.050600
endloop
endfacet
facet normal -1.000000 0.000000 0.000000
outer loop
vertex -0.450000 -0.765000 -0.050600
vertex -0.450000 -0.765000 0.005600
vertex -0.450000 -0.675000 0.005600
endloop
endfacet
facet normal -1.000000 0.000000 0.000000
outer loop
vertex -0.450000 -0.765000 -0.050600
vertex -0.450000 -0.675000 0.005600
vertex -0.450000 -0.675000 -0.050600
endloop
endfacet
facet normal 0.000000 1.000000 0.000000
outer loop
vertex -0.450000 -0.675000 -0.050600
vertex -0.450000 -0.675000 0.005600
vertex 0.450000 -0.675000 0.005600
endloop
endfacet
facet normal 0.000000 1.000000 0.000000
outer loop
vertex -0.450000 -0.675000 -0.050600
vertex 0.450000 -0.675000 0.005600
vertex 0.450000 -0.675000 -0.050600
endloop
endfacet
facet normal 1.000000 0.000000 0.000000
outer loop
vertex 0.450000 -0.675000 -0.050600
vertex 0.450000 -0.675000 0.005600
vertex 0.450000 -0.765000 0.005600
endloop
endfacet
facet normal 1.000000 0.000000 0.000000
outer loop
vertex 0.450000 -0.675000 -0.050600
vertex 0.450000 -0.765000 0.005600
vertex 0.450000 -0.765000 -0.050600
endloop
endfacet
facet normal 0.000000 -1.000000 0.000000
outer loop
vertex 0.450000 -0.765000 -0.050600
vertex 0.450000 -0.765000 0.005600
vertex -0.450000 -0.765000 0.005600
endloop
endfacet
facet normal 0.000000 -1.000000 0.000000
outer loop
vertex 0.450000 -0.765000 -0.050600
vertex -0.450000 -0.765000 0.005600
vertex -0.450000 -0.765000 -0.050600
endloop
endfacet
facet normal 0.000000 0.000000 -1.000000
outer loop
vertex -0.450000 -0.675000 -0.050600
vertex 0.450000 -0.675000 -0.050600
vertex 0.450000 -0.765000 -0.050600
endloop
endfacet
facet normal 0.000000 0.000000 -1.000000
outer loop
vertex -0.450000 -0.675000 -0.050600
vertex 0.450000 -0.765000 -0.050600
vertex -0.450000 -0.765000 -0.050600
endloop
endfacet
facet normal 0.000000 0.000000 1.000000
outer loop
vertex 0.450000 -0.675000 0.005600
vertex -0.450000 -0.675000 0.005600
vertex -0.450000 -0.765000 0.005600
endloop
endfacet
facet normal 0.000000 0.000000 1.000000
outer loop
vertex 0.450000 -0.675000 0.005600
vertex -0.450000 -0.765000 0.005600
vertex 0.450000 -0.765000 0.005600
endloop
endfacet
facet normal -1.000000 0.000000 0.000000
outer loop
vertex -0.450000 0.675000 -0.050600
vertex -0.450000 0.675000 0.005600
vertex -0.450000 0.765000 0.005600
endloop
endfacet
facet normal -1.000000 0.000000 0.000000
outer loop
vertex -0.450000 0.675000 -0.050600
vertex -0.450000 0.765000 0.005600
vertex -0.450000 0.765000 -0.050600
endloop
endfacet
facet normal 0.000000 1.000000 0.000000
outer loop
vertex -0.450000 0.765000 -0.050600
vertex -0.450000 0.765000 0.005600
vertex 0.450000 0.765000 0.005600
endloop
endfacet
facet normal 0.000000 1.000000 0.000000
outer loop
vertex -0.450000 0.765000 -0.050600
vertex 0.450000 0.765000 0.005600
vertex 0.450000 0.765000 -0.050600
endloop
endfacet
facet normal 1.000000 0.000000 0.000000
outer loop
vertex 0.450000 0.765000 -0.050600
vertex 0.450000 0.765000 0.005600
vertex 0.450000 0.675000 0.005600
endloop
endfacet
facet normal 1.000000 0.000000 0.000000
outer loop
vertex 0.450000 0.765000 -0.050600
vertex 0.450000 0.675000 0.005600
vertex 0.450000 0.675000 -0.050600
endloop
endfacet
facet normal 0.000000 -1.000000 0.000000
outer loop
vertex 0.450000 0.675000 -0.050600
vertex 0.450000 0.675000 0.005600
vertex -0.450000 0.675000 0.005600
endloop
endfacet
facet normal 0.000000 -1.000000 0.000000
outer loop
vertex 0.450000 0.675000 -0.050600
vertex -0.450000 0.675000 0.005600
vertex -0.450000 0.675000 -0.050600
endloop
endfacet
facet normal 0.000000 0.000000 -1.000000
outer loop
vertex -0.450000 0.765000 -0.050600
vertex 0.450000 0.765000 -0.050600
vertex 0.450000 0.675000 -0.050600
endloop
endfacet
facet normal 0.000000 0.000000 -1.000000
outer loop
vertex -0.450000 0.765000 -0.050600
vertex 0.450000 0.675000 -0.050600
vertex -0.450000 0.675000 -0.050600
endloop
endfacet
facet normal 0.000000 0.000000 1.000000
outer loop
vertex 0.450000 0.765000 0.005600
vertex -0.450000 0.765000 0.005600
vertex -0.450000 0.675000 0.005600
endloop
endfacet
facet normal 0.000000 0.000000 1.000000
outer loop
vertex 0.450000 0.765000 0.005600
vertex -0.450000 0.675000 0.005600
vertex 0.450000 0.675000 0.005600
endloop
endfacet
endsolid Exported from Blender-3.4.1
